<?xml version="1.0" encoding="UTF-8" standalone="no"?>
<!DOCTYPE svg PUBLIC "-//W3C//DTD SVG 1.1//EN" "http://www.w3.org/Graphics/SVG/1.1/DTD/svg11.dtd">
<svg width="100%" height="100%" viewBox="0 0 1421 1212" version="1.1" xmlns="http://www.w3.org/2000/svg" xmlns:xlink="http://www.w3.org/1999/xlink" xml:space="preserve" xmlns:serif="http://www.serif.com/" style="fill-rule:evenodd;clip-rule:evenodd;stroke-miterlimit:10;">
    <g id="top">
        <rect x="16.919" y="144.192" width="1259.583" height="1050.417" style="fill:#fff;"/>
        <rect x="16.919" y="144.192" width="1259.583" height="1050.417" style="fill:#fff;"/>
        <path d="M966.502,652.525l0,10l269.583,0l0,256.25l-451.25,0l0,-256.25l60.417,0l0,-10l121.25,0Z" style="fill:#e0e0e0;fill-opacity:0.25;stroke:#a8a8a8;stroke-width:0.34px;"/>
        <path d="M596.085,184.609l0,302.917l-87.5,0l0,25.417l10,0l0,121.25l-10,0l0,8.333l-451.25,0l0,-457.917l538.75,0Z" style="fill:#e0e0e0;fill-opacity:0.25;stroke:#a8a8a8;stroke-width:0.34px;"/>
        <path d="M1236.085,184.609l0,457.917l-269.583,0l0,10l-121.25,0l0,-10l-141.25,0l0,-6.667l-10,0l0,-121.25l10,0l0,-27.083l-87.5,0l0,-302.917l619.583,0Z" style="fill:#e0e0e0;fill-opacity:0.25;stroke:#a8a8a8;stroke-width:0.34px;"/>
        <path d="M57.335,662.525l451.25,0l0,86.25l10,0l0,107.917l-10,0l0,297.5l-451.25,0l0,-491.667Z" style="fill:#e0e0e0;fill-opacity:0.25;stroke:#a8a8a8;stroke-width:0.34px;"/>
        <path d="M683.585,918.359l0,121.25l10.417,0l0,107.917l-10.417,0l0,47.083l-154.583,0l0,-337.917l-10.417,0l0,-107.917l10.417,0l0,-114.583l-10.417,0l0,-121.25l10.417,0l0,-5l154.583,0l0,6.667l10.417,0l0,121.25l-10.417,0l0,26.667l80.833,0l0,256.25l-80.833,-0.417Z" style="fill:#e0e0e0;fill-opacity:0.25;stroke:#a8a8a8;stroke-width:0.34px;"/>
        <path d="M694.002,1039.609l10,0l0,-80.833l532.083,0l0,195.417l-532.083,0l0,-6.667l-10,0l0,-107.917Z" style="fill:#e0e0e0;fill-opacity:0.25;stroke:#a8a8a8;stroke-width:0.34px;"/>
        <path d="M1124.835,1041.692l2.5,0l0,-78.75l-2.5,0l0,78.75Z" style="fill:#f7f7f7;stroke:#000;stroke-width:0.34px;"/>
        <path d="M1124.835,1134.609l0,-0.417m0,-0.417l0,-0.833m0,-0.417l0,-0.833m0,-0.417l0,-0.833m0,-0.417l0,-0.833m0,-0.417l0,-0.833m0,-0.417l0,-0.833m0,-0.417l0,-0.833m0,-0.417l0,-0.833m0,-0.417l0,-0.833m0,-0.417l0,-0.833m0,-0.417l0,-0.833m0,-0.417l0,-0.833m0,-0.417l0,-0.833m0,-0.417l0,-0.833m0,-0.417l0,-0.833m0,-0.417l0,-0.833m0,-0.417l0,-0.833m0,-0.417l0,-0.833m0,-0.417l0,-0.833m0,-0.417l0,-0.833m0,-0.417l0,-0.833m0,-0.417l0,-0.833m0,-0.417l0,-0.833m0,-0.417l0,-0.833m0,-0.417l0,-0.833m0,-0.417l0,-0.833m0,-0.417l0,-0.833m0,-0.417l0,-0.833m0,-0.417l0,-0.833m0,-0.417l0,-0.833m0,-0.417l0,-0.833m0,-0.417l0,-0.833m0,-0.417l0,-0.833m0,-0.417l0,-0.833m0,-0.417l0,-0.833m0,-0.417l0,-0.833m0,-0.417l0,-0.833m0,-0.417l0,-0.833m0,-0.417l0,-0.833m0,-0.417l0,-0.833m0,-0.417l0,-0.833m0,-0.417l0,-0.833m0,-0.417l0,-0.833m0,-0.417l0,-0.833m0,-0.417l0,-0.833m0,-0.417l0,-0.833m0,-0.417l0,-0.833m0,-0.417l0,-0.833m0,-0.417l0,-0.833m0,-0.417l0,-0.833m0,-0.417l0,-0.833m0,-0.417l0,-0.833m0,-0.417l0,-0.833m0,-0.417l0,-0.833m0,-0.417l0,-0.833m0,-0.417l0,-0.833m0,-0.417l0,-0.833m0,-0.417l0,-0.833m0,-0.417l0,-0.833m0,-0.417l0,-1.25m0,-0.417l0,-0.833m0,-0.417l0,-0.833m0,-0.417l0,-0.833m0,-0.417l0,-0.833m0,-0.417l0,-0.833m0,-0.417l0,-0.833m0,-0.417l0,-0.833m0,-0.417l0,-0.833m0,-0.417l0,-0.833m0,-0.417l0,-0.833m0,-0.417l0,-0.833m0,-0.417l0,-0.833m0,-0.417l0,-0.833m0,-0.417l0,-0.417" style="fill:none;fill-rule:nonzero;stroke:#bcbcbc;stroke-width:0.34px;"/>
        <path d="M1128.169,959.192l-3.75,0l0,3.75l3.75,0l0,-3.75Z" style="fill:#f7f7f7;stroke:#000;stroke-width:1.68px;"/>
        <path d="M1127.335,1041.692l0,0.417m0,0.417l0,0.833m0,0.417l0,0.833m0,0.417l0,0.833m0,0.417l0,0.833m0,0.417l0,0.833m0,0.417l0,0.833m0,0.417l0,0.833m0,0.417l0,0.833m0,0.417l0,0.833m0,0.417l0,0.833m0,0.417l0,0.833m0,0.417l0,0.833m0,0.417l0,0.833m0,0.417l0,0.833m0,0.417l0,0.833m0,0.417l0,0.833m0,0.417l0,0.833m0,0.417l0,0.833m0,0.417l0,0.833m0,0.417l0,0.833m0,0.417l0,0.833m0,0.417l0,0.833m0,0.417l0,0.833m0,0.417l0,0.833m0,0.417l0,0.833m0,0.417l0,0.833m0,0.417l0,0.833m0,0.417l0,0.833m0,0.417l0,0.833m0,0.417l0,0.833m0,0.417l0,0.833m0,0.417l0,0.833m0,0.417l0,0.833m0,0.417l0,0.833m0,0.417l0,0.833m0,0.417l0,0.833m0,0.417l0,0.833m0,0.417l0,0.833m0,0.417l0,0.833m0,0.417l0,0.833m0,0.417l0,0.833m0,0.417l0,0.833m0,0.417l0,0.833m0,0.417l0,0.833m0,0.417l0,0.833m0,0.417l0,0.833m0,0.417l0,0.833m0,0.417l0,0.833m0,0.417l0,0.833m0,0.417l0,0.833m0,0.417l0,0.833m0,0.417l0,0.833m0,0.417l0,0.833m0,0.417l0,0.833m0,0.417l0,0.833m0,0.417l0,0.833m0,0.417l0,0.833m0,0.417l0,0.833m0,0.417l0,0.833m0,0.417l0,0.833m0,0.417l0,0.833m0,0.417l0,0.833m0,0.417l0,0.833m0,0.417l0,0.833m0,0.417l0,0.833m0,0.417l0,0.833m0,0.417l0,0.833m0,0.417l0,0.833m0,0.417l0,0.833m0,0.417l0,0.833m0,0.417l0,0.833m0,0.417l0,0.833m0,0.417l0,0.833m0,0.417l0,0.833m0,0.417l0,0.833m0,0.417l0,0.833m0,0.417l0,0.417" style="fill:none;fill-rule:nonzero;stroke:#bcbcbc;stroke-width:0.34px;"/>
        <path d="M1061.502,1077.109l2.083,2.083l1.25,-1.25l-2.083,-2.083l-1.25,1.25Z" style="fill:#f7f7f7;"/>
        <path d="M1062.752,1075.859l-1.25,1.25l2.083,2.083l1.25,-1.25" style="fill:none;fill-rule:nonzero;stroke:#000;stroke-width:0.34px;"/>
        <path d="M1057.752,1070.859l67.083,67.083l2.083,-1.667l-67.083,-67.083l-2.083,1.667Z" style="fill:#f7f7f7;stroke:#000;stroke-width:0.34px;"/>
        <path d="M1064.835,1074.192l1.25,-1.25l2.083,1.667l-1.667,1.25l-1.667,-1.667Z" style="fill:#f7f7f7;"/>
        <path d="M1064.835,1074.192l1.25,-1.25l2.083,1.667l-1.667,1.25" style="fill:none;fill-rule:nonzero;stroke:#000;stroke-width:0.34px;"/>
        <path d="M1059.835,1069.192c17.917,-17.917 42.083,-27.917 67.5,-27.5" style="fill:none;fill-rule:nonzero;stroke:#000;stroke-width:0.34px;"/>
        <path d="M1124.835,1150.025l2.5,0l0,-12.083l-2.5,0l0,12.083Z" style="fill:#f7f7f7;stroke:#000;stroke-width:0.34px;"/>
        <path d="M1128.169,1150.025l-3.75,0l0,4.167l3.75,0l0,-4.167Z" style="fill:#f7f7f7;stroke:#000;stroke-width:1.68px;"/>
        <path d="M704.002,958.775l532.083,0l0,-20l-532.083,0l0,20Z" style="fill:#ddd;"/>
        <path d="M704.002,958.775l532.083,0" style="fill:none;fill-rule:nonzero;stroke:#2b2b2b;stroke-width:3.37px;stroke-linecap:round;"/>
        <g transform="matrix(1,0,0,1,-359.208769,278.339509)">
            <text x="607.05px" y="249.882px" style="font-family:'ArialMT', 'Arial', sans-serif;font-size:24.11px;fill:#2b2b2b;fill-opacity:0.99;">Pokoj</text>
            <g transform="matrix(24.109898,0,0,24.109898,684.782646,276.817559)">
            </g>
            <text x="589.638px" y="276.818px" style="font-family:'ArialMT', 'Arial', sans-serif;font-size:24.11px;fill:#2b2b2b;fill-opacity:0.99;">12.92 m²</text>
        </g>
        <g transform="matrix(1,0,0,1,155.340555,303.927443)">
            <text x="758.144px" y="257.963px" style="font-family:'ArialMT', 'Arial', sans-serif;font-size:24.11px;fill:#2b2b2b;fill-opacity:0.99;">Ložnice</text>
            <g transform="matrix(24.109898,0,0,24.109898,847.276049,284.897959)">
            </g>
            <text x="752.131px" y="284.898px" style="font-family:'ArialMT', 'Arial', sans-serif;font-size:24.11px;fill:#2b2b2b;fill-opacity:0.99;">15.03 m²</text>
        </g>
        <g transform="matrix(1,0,0,1,-347.654679,514.322233)">
            <text x="610.699px" y="324.403px" style="font-family:'ArialMT', 'Arial', sans-serif;font-size:24.11px;fill:#2b2b2b;fill-opacity:0.99;">Pokoj</text>
            <g transform="matrix(24.109898,0,0,24.109898,688.431306,351.338419)">
            </g>
            <text x="593.287px" y="351.338px" style="font-family:'ArialMT', 'Arial', sans-serif;font-size:24.11px;fill:#2b2b2b;fill-opacity:0.99;">12.29 m²</text>
        </g>
        <g transform="matrix(1,0,0,1,-125.726507,463.628481)">
            <text x="688.17px" y="308.395px" style="font-family:'ArialMT', 'Arial', sans-serif;font-size:24.11px;fill:#2b2b2b;fill-opacity:0.99;">Chodba</text>
            <text x="677.463px" y="335.33px" style="font-family:'ArialMT', 'Arial', sans-serif;font-size:24.11px;fill:#2b2b2b;fill-opacity:0.99;">horní část</text>
            <g transform="matrix(24.109898,0,0,24.109898,772.921527,362.265141)">
            </g>
            <text x="691.186px" y="362.265px" style="font-family:'ArialMT', 'Arial', sans-serif;font-size:24.11px;fill:#2b2b2b;fill-opacity:0.99;">7.26 m²</text>
        </g>
        <g transform="matrix(1,0,0,1,210.325499,488.734109)">
            <text x="769.483px" y="316.323px" style="font-family:'ArialMT', 'Arial', sans-serif;font-size:24.11px;fill:#2b2b2b;fill-opacity:0.99;">Pracovna</text>
            <g transform="matrix(24.109898,0,0,24.109898,861.281355,343.257959)">
            </g>
            <text x="779.546px" y="343.258px" style="font-family:'ArialMT', 'Arial', sans-serif;font-size:24.11px;fill:#2b2b2b;fill-opacity:0.99;">6.43 m²</text>
        </g>
        <g transform="matrix(1,0,0,1,156.438211,696.507976)">
            <text x="752.469px" y="381.935px" style="font-family:'ArialMT', 'Arial', sans-serif;font-size:24.11px;fill:#2b2b2b;fill-opacity:0.99;">Koupelna</text>
            <g transform="matrix(24.109898,0,0,24.109898,844.281975,408.870759)">
            </g>
            <text x="762.546px" y="408.871px" style="font-family:'ArialMT', 'Arial', sans-serif;font-size:24.11px;fill:#2b2b2b;fill-opacity:0.99;">5.79 m²</text>
        </g>
        <path d="M843.585,184.609l-53.75,0l0,53.75l53.75,0l0,-53.75Z" style="fill:#ddb682;stroke:#000;stroke-width:0.88px;"/>
        <path d="M1139.835,184.609l-53.75,0l0,53.75l53.75,0l0,-53.75Z" style="fill:#ddb682;stroke:#000;stroke-width:0.88px;"/>
        <path d="M1064.835,193.775l-80.833,0l0,67.083l80.833,0l0,-67.083Z" style="fill:#69b2ff;fill-opacity:0.5;"/>
        <path d="M843.585,467.525l0,-115l74.167,0l0,-86.667l168.333,0l0,201.667l-242.5,0Z" style="fill:#69b2ff;fill-opacity:0.5;"/>
        <path d="M917.752,265.859l-74.167,86.667l0,-167.917l242.5,0l0,81.25l-168.333,0Zm66.25,-5l80.833,0l0,-67.083l-80.833,0l0,67.083Zm-119.167,0l80.833,0l0,-67.083l-80.833,0l0,67.083Z" style="fill:#e5fcff;fill-opacity:0.5;"/>
        <path d="M945.669,193.775l-80.833,0l0,67.083l80.833,0l0,-67.083Z" style="fill:#69b2ff;fill-opacity:0.5;"/>
        <path d="M843.585,352.525l74.167,-86.667l0,86.667l-74.167,0Z" style="fill:#e5fcff;fill-opacity:0.5;"/>
        <path d="M789.835,238.359l0,-53.75l350,0l0,53.75l-53.75,0l0,229.167l-242.5,0l0,-229.167l-53.75,0Z" style="fill:none;fill-rule:nonzero;stroke:#000;stroke-width:0.88px;"/>
        <path d="M864.835,260.859l80.833,0l0,-67.083l-80.833,0l0,67.083Z" style="fill:none;stroke:#000;stroke-width:0.88px;"/>
        <rect x="984.002" y="193.775" width="80.833" height="67.083" style="fill:none;stroke:#000;stroke-width:0.88px;"/>
        <path d="M1086.085,265.859l-168.333,0l-74.167,86.667l74.167,0l0,-86.667" style="fill:none;fill-rule:nonzero;stroke:#000;stroke-width:0.88px;"/>
        <path d="M843.585,238.359l0,-53.75" style="fill:none;fill-rule:nonzero;stroke:#000;stroke-width:0.88px;"/>
        <path d="M1086.085,238.359l0,-53.75" style="fill:none;fill-rule:nonzero;stroke:#000;stroke-width:0.88px;"/>
        <path d="M117.752,398.359l13.75,-27.083l-2.917,-1.25c-0.833,-0.833 -1.25,-1.25 -1.667,-2.5c-0.417,-0.833 0,-1.667 0.417,-2.5c10.417,-16.25 30.833,-21.667 47.917,-13.333c17.083,8.333 24.583,28.333 17.917,46.25c-0.417,0.833 -0.833,1.667 -1.667,2.083c-1.25,0 -2.083,0 -2.917,-0.417l-2.917,-1.25l-13.333,27.083l-54.583,-27.083Z" style="fill:#cfd4a2;"/>
        <path d="M185.669,398.359l-13.333,27.083" style="fill:none;fill-rule:nonzero;stroke:#000;stroke-width:0.88px;"/>
        <path d="M193.169,397.942c-0.417,0.833 -0.833,1.667 -1.667,2.083c-1.25,0 -2.083,0 -2.917,-0.417" style="fill:none;fill-rule:nonzero;stroke:#000;stroke-width:0.88px;"/>
        <path d="M131.502,371.275l-2.917,-1.25" style="fill:none;fill-rule:nonzero;stroke:#000;stroke-width:0.88px;"/>
        <path d="M188.585,399.609l-2.917,-1.25" style="fill:none;fill-rule:nonzero;stroke:#000;stroke-width:0.88px;"/>
        <path d="M131.502,371.275c7.5,-15 25.833,-21.25 40.833,-13.75c15,7.5 20.833,25.833 13.333,40.833" style="fill:none;fill-rule:nonzero;stroke:#000;stroke-width:0.88px;"/>
        <path d="M127.335,365.025c10.417,-16.25 30.833,-21.667 47.917,-13.333c17.083,8.333 24.583,28.333 17.917,46.25" style="fill:none;fill-rule:nonzero;stroke:#000;stroke-width:0.88px;"/>
        <path d="M117.752,398.359l13.75,-27.083" style="fill:none;fill-rule:nonzero;stroke:#000;stroke-width:0.88px;"/>
        <path d="M172.335,425.442l-54.583,-27.083" style="fill:none;fill-rule:nonzero;stroke:#000;stroke-width:0.88px;"/>
        <path d="M128.585,370.025c-0.833,-0.833 -1.25,-1.25 -1.667,-2.5c-0.417,-0.833 0,-1.667 0.417,-2.5" style="fill:none;fill-rule:nonzero;stroke:#000;stroke-width:0.88px;"/>
        <path d="M57.335,467.525l80.833,0l0,-161.667l-80.833,0l0,161.667Z" style="fill:#ddb682;stroke:#000;stroke-width:0.88px;"/>
        <path d="M805.252,958.775l-46.25,0l-1.25,48.333c0.417,12.917 11.25,23.333 24.167,23.333c13.333,0 24.167,-10.417 24.583,-23.333l-1.25,-48.333Z" style="fill:#e0e0e0;stroke:#000;stroke-width:0.34px;"/>
        <path d="M781.919,1025.859c-3.75,0 -7.917,-1.25 -11.25,-3.75c-5.833,-4.167 -8.75,-10.833 -8.75,-17.917c0,-7.083 3.75,-13.333 9.167,-17.5c3.333,-2.083 7.083,-3.333 10.833,-3.333c4.167,0 7.917,1.25 10.833,3.333c5.833,4.167 9.583,10.417 9.583,17.5c0,7.083 -2.917,13.75 -8.75,17.917c-3.333,2.5 -7.5,3.75 -11.667,3.75Z" style="fill:#b4b4b4;stroke:#000;stroke-width:0.34px;"/>
        <path d="M781.919,958.775l0,3.333" style="fill:none;fill-rule:nonzero;stroke:#000;stroke-width:0.34px;"/>
        <path d="M771.085,986.692c0,1.667 0,3.333 0.417,5c0.417,1.667 0.833,3.333 1.667,4.583c0.833,1.25 1.667,2.5 2.5,3.333c1.25,0.417 2.5,1.25 3.333,1.667l2.917,0" style="fill:none;fill-rule:nonzero;stroke:#000;stroke-width:0.34px;"/>
        <path d="M771.502,992.525c0.833,-0.833 1.667,-1.25 2.5,-1.667c0.833,-0.417 1.667,-0.833 2.917,-1.25c0.833,0 1.667,-0.417 2.917,-0.417l2.083,0" style="fill:none;fill-rule:nonzero;stroke:#000;stroke-width:0.34px;"/>
        <path d="M773.585,974.817c0,-0.805 -0.747,-1.458 -1.667,-1.458c-0.92,0 -1.667,0.653 -1.667,1.458c0,0.805 0.747,1.458 1.667,1.458c0.92,0 1.667,-0.653 1.667,-1.458Z" style="fill:none;stroke:#000;stroke-width:0.34px;"/>
        <path d="M793.169,986.692c0,1.667 0,3.333 -0.417,5c-0.417,1.667 -0.833,3.333 -1.667,4.583c-0.833,1.25 -1.667,2.5 -2.917,3.333c-0.833,0.417 -2.083,1.25 -2.917,1.667l-3.333,0" style="fill:none;fill-rule:nonzero;stroke:#000;stroke-width:0.34px;"/>
        <path d="M792.752,992.525c-0.833,-0.833 -1.667,-1.25 -2.5,-1.667c-0.833,-0.417 -2.083,-0.833 -2.917,-1.25c-0.833,0 -2.083,-0.417 -2.917,-0.417l-2.5,0" style="fill:none;fill-rule:nonzero;stroke:#000;stroke-width:0.34px;"/>
        <path d="M790.669,974.817c0,0.805 0.653,1.458 1.458,1.458c0.805,0 1.458,-0.653 1.458,-1.458c0,-0.805 -0.653,-1.458 -1.458,-1.458c-0.805,0 -1.458,0.653 -1.458,1.458Z" style="fill:none;stroke:#000;stroke-width:0.34px;"/>
        <path d="M918.169,977.109l-29.583,0c-3.75,0 -5.417,2.083 -5.417,5.833l0,28.333c0,3.75 1.667,5.833 5.417,5.833l62.5,0c3.333,0 5.417,-2.083 5.417,-5.833l0,-28.333c0,-3.75 -2.083,-5.833 -5.417,-5.833l-22.917,0" style="fill:none;fill-rule:nonzero;stroke:#000;stroke-width:0.34px;"/>
        <path d="M868.169,1025.025l187.5,0c1.667,0 2.083,-0.833 2.083,-2.083l0,-63.333c0,-0.417 0,-0.833 -0.417,-0.833l-190,0c-0.417,0 -0.417,0.417 -0.417,0.833l0,63.333c0,1.25 0.417,2.083 1.25,2.083Z" style="fill:#f7f7f7;stroke:#000;stroke-width:1.68px;"/>
        <path d="M1011.085,972.109l-0.417,0" style="fill:none;fill-rule:nonzero;stroke:#000;stroke-width:0.34px;"/>
        <path d="M925.669,972.109l-0.417,0" style="fill:none;fill-rule:nonzero;stroke:#000;stroke-width:0.34px;"/>
        <path d="M1003.585,977.109l-29.583,0c-3.75,0 -5.833,2.083 -5.833,5.833l0,28.333c0,3.75 2.083,5.833 5.833,5.833l62.083,0c3.75,0 5.417,-2.083 5.417,-5.833l0,-28.333c0,-3.75 -1.667,-5.833 -5.417,-5.833l-22.5,0" style="fill:none;fill-rule:nonzero;stroke:#000;stroke-width:0.34px;"/>
        <path d="M928.169,972.525l0.833,0c0,0 0.417,0 0.417,-0.417l0,-4.583c0,-0.417 -0.417,-0.417 -0.417,-0.417l-2.917,0c-0.417,0 -0.417,0 -0.417,0.417l0,4.583c0,0.417 0,0.417 0.417,0.417l1.25,0" style="fill:none;fill-rule:nonzero;stroke:#000;stroke-width:0.34px;"/>
        <path d="M1013.585,972.525l0.833,0l0,-5.417l-3.333,0l0,5.417l1.667,0" style="fill:none;fill-rule:nonzero;stroke:#000;stroke-width:0.34px;"/>
        <path d="M921.085,969.609l0,28.75c0,0.833 -0.417,1.667 -1.25,1.667c-0.833,0 -1.667,-0.833 -1.667,-1.667l0,-28.75c0,-0.417 0,-0.417 0.417,-0.833c0.417,-0.417 0.417,-0.417 0.833,-0.417c0.417,0 0.833,0 1.25,0.417c0,0.417 0.417,0.417 0.417,0.833Z" style="fill:none;fill-rule:nonzero;stroke:#000;stroke-width:0.34px;"/>
        <path d="M1006.085,969.609c0,9.583 0.417,19.167 0.417,28.75c0,0.833 -0.417,1.667 -1.667,1.667c-0.833,0 -1.25,-0.833 -1.25,-1.667l0,-28.75c0,-0.417 0,-0.417 0.417,-0.833c0,-0.417 0.417,-0.417 0.833,-0.417c0.417,0 0.833,0 0.833,0.417c0.417,0.417 0.417,0.417 0.417,0.833Z" style="fill:none;fill-rule:nonzero;stroke:#000;stroke-width:0.34px;"/>
        <path d="M925.669,967.525l-0.417,0" style="fill:none;fill-rule:nonzero;stroke:#000;stroke-width:0.34px;"/>
        <path d="M1011.085,967.525l-0.417,0" style="fill:none;fill-rule:nonzero;stroke:#000;stroke-width:0.34px;"/>
        <path d="M921.085,990.859c0.833,-0.833 1.667,-1.667 1.667,-2.917c0,-1.667 -0.833,-2.5 -1.667,-3.333" style="fill:none;fill-rule:nonzero;stroke:#000;stroke-width:0.34px;"/>
        <path d="M1006.502,990.859c0.833,-0.833 1.667,-1.667 1.667,-2.917c0,-1.667 -0.833,-2.5 -1.667,-3.333" style="fill:none;fill-rule:nonzero;stroke:#000;stroke-width:0.34px;"/>
        <path d="M921.085,973.359c1.25,-0.833 2.083,-2.5 1.667,-4.167c0,-1.667 -1.667,-2.917 -3.333,-2.917c-1.25,-0 -2.917,1.25 -3.333,2.917c0,1.667 0.417,3.333 2.083,4.167" style="fill:none;fill-rule:nonzero;stroke:#000;stroke-width:0.34px;"/>
        <path d="M1006.085,973.359c1.667,-0.833 2.5,-2.5 2.083,-4.167c-0.417,-1.667 -1.667,-2.917 -3.333,-2.917c-1.667,-0 -2.917,1.25 -3.333,2.917c-0.417,1.667 0.417,3.333 2.083,4.167" style="fill:none;fill-rule:nonzero;stroke:#000;stroke-width:0.34px;"/>
        <path d="M918.169,985.025c-0.833,0.417 -1.667,1.667 -1.667,2.917c0,1.25 0.833,2.083 1.667,2.917" style="fill:none;fill-rule:nonzero;stroke:#000;stroke-width:0.34px;"/>
        <path d="M1003.585,985.025c-0.833,0.417 -1.667,1.667 -1.667,2.917c0,1.25 0.833,2.083 1.667,2.917" style="fill:none;fill-rule:nonzero;stroke:#000;stroke-width:0.34px;"/>
        <path d="M921.502,967.109l3.75,0l0,5.417l-3.333,0" style="fill:none;fill-rule:nonzero;stroke:#000;stroke-width:0.34px;"/>
        <path d="M1006.919,967.109l3.75,0l0,5.417l-3.333,0" style="fill:none;fill-rule:nonzero;stroke:#000;stroke-width:0.34px;"/>
        <path d="M927.335,971.275l0,7.917c0,0.417 0.417,0.417 0.417,0.417l0.417,0l0,-8.333" style="fill:none;fill-rule:nonzero;stroke:#000;stroke-width:0.34px;"/>
        <path d="M1012.752,971.275l0,7.917c0,0.417 0,0.417 0.417,0.417c0.417,0 0.417,0 0.417,-0.417l0,-7.917" style="fill:none;fill-rule:nonzero;stroke:#000;stroke-width:0.34px;"/>
        <path d="M927.335,977.109l-6.25,0" style="fill:none;fill-rule:nonzero;stroke:#000;stroke-width:0.34px;"/>
        <path d="M1012.752,977.109l-6.667,0" style="fill:none;fill-rule:nonzero;stroke:#000;stroke-width:0.34px;"/>
        <path d="M918.169,977.109l-29.583,0c-3.75,0 -5.417,2.083 -5.417,5.833l0,28.333c0,3.75 1.667,5.833 5.417,5.833l62.5,0c3.333,0 5.417,-2.083 5.417,-5.833l0,-28.333c0,-3.75 -2.083,-5.833 -5.417,-5.833l-22.917,0" style="fill:none;fill-rule:nonzero;stroke:#000;stroke-width:0.34px;"/>
        <rect x="367.335" y="662.525" width="141.25" height="80.833" style="fill:#ddb682;stroke:#000;stroke-width:0.88px;"/>
        <path d="M508.585,743.359l-70.417,-80.833l-70.833,80.833" style="fill:none;fill-rule:nonzero;stroke:#000;stroke-width:0.34px;"/>
        <rect x="205.669" y="662.525" width="161.667" height="80.833" style="fill:#ddb682;stroke:#000;stroke-width:0.88px;"/>
        <path d="M367.335,743.359l-80.833,-80.833l-80.833,80.833" style="fill:none;fill-rule:nonzero;stroke:#000;stroke-width:0.34px;"/>
        <rect x="57.335" y="662.525" width="148.333" height="80.833" style="fill:#ddb682;stroke:#000;stroke-width:0.88px;"/>
        <path d="M205.669,743.359l-74.167,-80.833l-74.167,80.833" style="fill:none;fill-rule:nonzero;stroke:#000;stroke-width:0.34px;"/>
        <path d="M1143.169,725.025l27.5,13.333l1.25,-2.5c0.417,-0.833 1.25,-1.667 2.083,-2.083c0.833,0 2.083,0 2.917,0.417c15.833,10.417 21.667,30.833 13.333,47.917c-8.75,17.083 -28.75,25 -46.25,18.333c-1.25,-0.417 -1.667,-1.25 -2.083,-2.083c-0.417,-0.833 -0.417,-2.083 0,-2.917l1.667,-2.917l-27.5,-13.333l27.083,-54.167Z" style="fill:#cfd4a2;"/>
        <path d="M1143.585,792.525l-27.5,-13.333" style="fill:none;fill-rule:nonzero;stroke:#000;stroke-width:0.88px;"/>
        <path d="M1144.002,800.442c-1.25,-0.417 -1.667,-1.25 -2.083,-2.083c-0.417,-0.833 -0.417,-2.083 0,-2.917" style="fill:none;fill-rule:nonzero;stroke:#000;stroke-width:0.88px;"/>
        <path d="M1170.669,738.359l1.25,-2.5" style="fill:none;fill-rule:nonzero;stroke:#000;stroke-width:0.88px;"/>
        <path d="M1141.919,795.442l1.667,-2.917" style="fill:none;fill-rule:nonzero;stroke:#000;stroke-width:0.88px;"/>
        <path d="M1170.669,738.359c15,7.5 20.833,25.833 13.333,40.833c-7.5,15 -25.833,20.833 -40.417,13.333" style="fill:none;fill-rule:nonzero;stroke:#000;stroke-width:0.88px;"/>
        <path d="M1176.919,734.192c15.833,10.417 21.667,30.833 13.333,47.917c-8.75,17.083 -28.75,25 -46.25,18.333" style="fill:none;fill-rule:nonzero;stroke:#000;stroke-width:0.88px;"/>
        <path d="M1143.169,725.025l27.5,13.333" style="fill:none;fill-rule:nonzero;stroke:#000;stroke-width:0.88px;"/>
        <path d="M1116.085,779.192l27.083,-54.167" style="fill:none;fill-rule:nonzero;stroke:#000;stroke-width:0.88px;"/>
        <path d="M1171.919,735.859c0.417,-0.833 1.25,-1.667 2.083,-2.083c0.833,0 2.083,0 2.917,0.417" style="fill:none;fill-rule:nonzero;stroke:#000;stroke-width:0.88px;"/>
        <rect x="1074.419" y="664.609" width="161.667" height="80.833" style="fill:#ddb682;stroke:#000;stroke-width:0.88px;"/>
        <path d="M57.335,1154.192l101.25,0l0,-85l46.667,-36.25l-147.917,0l0,121.25Zm83.75,-20.833l-70,0l0,-75l70,0l0,75Z" style="fill:#e5fffe;fill-opacity:0.5;"/>
        <path d="M205.252,1069.192l-46.667,0l0,85l181.667,0l0,-121.25l-135,0l0,36.25Z" style="fill:#bedcff;"/>
        <rect x="71.085" y="1058.359" width="70" height="75" style="fill:#bedcff;"/>
        <path d="M205.252,1069.192l0,-36.25l-46.667,36.25l46.667,0Z" style="fill:#e5fffe;fill-opacity:0.5;"/>
        <path d="M340.252,1032.942l-282.917,0l0,121.25l282.917,0l0,-121.25Z" style="fill:none;stroke:#000;stroke-width:0.88px;"/>
        <path d="M158.585,1154.192l0,-85l46.667,-36.25l0,36.25l-46.667,0" style="fill:none;fill-rule:nonzero;stroke:#000;stroke-width:0.88px;"/>
        <path d="M141.085,1058.359l-70,0l0,75l70,0l0,-75Z" style="fill:none;stroke:#000;stroke-width:0.88px;"/>
        <path d="M150.252,968.775l27.083,-13.333l1.25,2.917c0.417,0.833 1.25,1.25 2.083,1.667c0.833,0 2.083,0 2.917,-0.417c15.833,-10.417 21.667,-30.833 13.333,-47.917c-8.75,-17.083 -28.75,-24.583 -46.25,-17.917c-0.833,0.417 -1.667,0.833 -2.083,1.667c-0.417,1.25 -0.417,2.083 0,2.917l1.667,2.917l-27.5,13.333l27.5,54.167Z" style="fill:#cfd4a2;"/>
        <path d="M150.252,901.275l-27.5,13.333" style="fill:none;fill-rule:nonzero;stroke:#000;stroke-width:0.88px;"/>
        <path d="M150.669,893.775c-0.833,0.417 -1.667,0.833 -2.083,1.667c-0.417,1.25 -0.417,2.083 0,2.917" style="fill:none;fill-rule:nonzero;stroke:#000;stroke-width:0.88px;"/>
        <path d="M177.335,955.442l1.25,2.917" style="fill:none;fill-rule:nonzero;stroke:#000;stroke-width:0.88px;"/>
        <path d="M148.585,898.359l1.667,2.917" style="fill:none;fill-rule:nonzero;stroke:#000;stroke-width:0.88px;"/>
        <path d="M177.335,955.442c15,-7.5 20.833,-25.833 13.333,-40.833c-7.5,-15 -25.417,-20.833 -40.417,-13.333" style="fill:none;fill-rule:nonzero;stroke:#000;stroke-width:0.88px;"/>
        <path d="M183.585,959.609c15.833,-10.417 21.667,-30.833 13.333,-47.917c-8.75,-17.083 -28.75,-24.583 -46.25,-17.917" style="fill:none;fill-rule:nonzero;stroke:#000;stroke-width:0.88px;"/>
        <path d="M150.252,968.775l27.083,-13.333" style="fill:none;fill-rule:nonzero;stroke:#000;stroke-width:0.88px;"/>
        <path d="M122.752,914.609l27.5,54.167" style="fill:none;fill-rule:nonzero;stroke:#000;stroke-width:0.88px;"/>
        <path d="M178.585,958.359c0.417,0.833 1.25,1.25 2.083,1.667c0.833,0 2.083,0 2.917,-0.417" style="fill:none;fill-rule:nonzero;stroke:#000;stroke-width:0.88px;"/>
        <path d="M138.169,864.609l-80.833,0l0,168.333l80.833,0l0,-168.333Z" style="fill:#ddb682;stroke:#000;stroke-width:0.88px;"/>
        <rect x="468.169" y="1073.359" width="40.417" height="80.833" style="fill:#ddb682;stroke:#000;stroke-width:0.88px;"/>
        <path d="M468.169,1073.359l40.417,80.833" style="fill:none;fill-rule:nonzero;stroke:#000;stroke-width:0.34px;"/>
        <rect x="468.169" y="992.525" width="40.417" height="80.833" style="fill:#ddb682;stroke:#000;stroke-width:0.88px;"/>
        <path d="M468.169,992.525l40.417,80.833" style="fill:none;fill-rule:nonzero;stroke:#000;stroke-width:0.34px;"/>
        <path d="M57.335,305.859l101.25,0l0,-85.417l46.667,-35.833l-147.917,0l0,121.25Zm83.75,-21.25l-70,0l0,-75l70,0l0,75Z" style="fill:#e5fffe;fill-opacity:0.5;"/>
        <path d="M205.252,220.442l-46.667,0l0,85.417l181.667,0l0,-121.25l-135,0l0,35.833Z" style="fill:#bedcff;"/>
        <rect x="71.085" y="209.609" width="70" height="75" style="fill:#bedcff;"/>
        <path d="M205.252,220.442l0,-35.833l-46.667,35.833l46.667,0Z" style="fill:#e5fffe;fill-opacity:0.5;"/>
        <path d="M340.252,184.609l-282.917,0l0,121.25l282.917,0l0,-121.25Z" style="fill:none;stroke:#000;stroke-width:0.88px;"/>
        <path d="M158.585,305.859l0,-85.417l46.667,-35.833l0,35.833l-46.667,0" style="fill:none;fill-rule:nonzero;stroke:#000;stroke-width:0.88px;"/>
        <path d="M141.085,209.609l-70,0l0,75l70,0l0,-75Z" style="fill:none;stroke:#000;stroke-width:0.88px;"/>
        <rect x="468.169" y="911.692" width="40.417" height="80.833" style="fill:#ddb682;stroke:#000;stroke-width:0.88px;"/>
        <path d="M468.169,911.692l40.417,80.833" style="fill:none;fill-rule:nonzero;stroke:#000;stroke-width:0.34px;"/>
        <rect x="784.835" y="824.192" width="53.75" height="94.583" style="fill:#ddb682;stroke:#000;stroke-width:0.88px;"/>
        <path d="M784.835,824.192l53.75,94.583" style="fill:none;fill-rule:nonzero;stroke:#000;stroke-width:0.34px;"/>
        <rect x="784.835" y="743.359" width="53.75" height="80.833" style="fill:#ddb682;stroke:#000;stroke-width:0.88px;"/>
        <path d="M784.835,743.359l53.75,80.833" style="fill:none;fill-rule:nonzero;stroke:#000;stroke-width:0.34px;"/>
        <rect x="784.835" y="662.525" width="53.75" height="80.833" style="fill:#ddb682;stroke:#000;stroke-width:0.88px;"/>
        <path d="M784.835,662.525l53.75,80.833" style="fill:none;fill-rule:nonzero;stroke:#000;stroke-width:0.34px;"/>
        <path d="M486.085,662.525l20,-20m-43.75,20l20,-20m-43.75,20l20,-20m-43.75,20l20,-20m-44.167,20l20.417,-20m-44.167,20l20.417,-20m-44.167,20l20.417,-20m-44.167,20l20,-20m-43.75,20l20,-20m-43.75,20l20,-20m-43.75,20l20,-20m-44.167,20l20.417,-20m-44.167,20l20.417,-20m-44.167,20l20.417,-20m-44.167,20l20,-20m-43.75,20l20,-20m-43.75,20l20,-20m-43.75,20l20,-20m-44.167,20l20.417,-20" style="fill:none;fill-rule:nonzero;stroke:#000;stroke-opacity:0.31;stroke-width:1.68px;"/>
        <path d="M57.335,642.525l451.25,0m-451.25,20l451.25,0" style="fill:none;fill-rule:nonzero;stroke:#2b2b2b;stroke-width:3.37px;stroke-linecap:round;"/>
        <path d="M764.419,918.359l20.417,-20m-20.417,-3.75l20.417,-20m-20.417,-3.75l20.417,-20m-20.417,-3.75l20.417,-20m-20.417,-3.75l20.417,-20.417m-20.417,-3.333l20.417,-20.417m-20.417,-3.333l20.417,-20.417m-20.417,-3.333l20.417,-20.417m-20.417,-3.75l20.417,-20m-20.417,-3.75l20.417,-20m-20.417,-3.75l17.917,-17.917" style="fill:none;fill-rule:nonzero;stroke:#000;stroke-opacity:0.31;stroke-width:1.68px;"/>
        <path d="M764.419,662.525l0,256.25m20.417,-256.25l0,256.25" style="fill:none;fill-rule:nonzero;stroke:#2b2b2b;stroke-width:3.37px;stroke-linecap:round;"/>
        <path d="M695.669,507.942l8.333,-8.333m-32.083,8.333l20,-20.417m-44.167,20.417l20.417,-20.417m-44.167,20.417l20.417,-20.417m-44.167,20.417l20.417,-20.417m-44.167,20.417l20.417,-20.417m-44.167,20.417l20,-20.417m-43.75,20.417l20,-20.417" style="fill:none;fill-rule:nonzero;stroke:#000;stroke-opacity:0.31;stroke-width:1.68px;"/>
        <path d="M529.002,487.525l67.083,0m-67.083,20.417l154.583,0m-67.083,-20.417l87.5,0l0,20.417" style="fill:none;fill-rule:nonzero;stroke:#2b2b2b;stroke-width:3.37px;stroke-linecap:round;"/>
        <path d="M508.585,1154.192l20.417,-20m-20.417,-3.75l20.417,-20m-20.417,-3.75l20.417,-20.417m-20.417,-3.333l20.417,-20.417m-20.417,-3.333l20.417,-20.417m-20.417,-3.75l20.417,-20m-20.417,-3.75l20.417,-20m-20.417,-3.75l20.417,-20m-20.417,-3.75l20.417,-20m-20.417,-3.75l20.417,-20.417m-20.417,-3.333l20.417,-20.417m-20.417,-3.333l20.417,-20.417m-20.417,-3.333l12.083,-12.083m-11.25,-107.917l19.583,-19.583m-20.417,-3.333l20.417,-20.417m-20.417,-3.333l20.417,-20.417m-20.417,-3.75l20.417,-20m-20.417,-3.75l20,-20m-20,-122.917l20.417,-20" style="fill:none;fill-rule:nonzero;stroke:#000;stroke-opacity:0.31;stroke-width:1.68px;"/>
        <path d="M508.585,642.525l0,-8.333l20.417,0l0,114.583l-20.417,0l0,-86.25m0,491.667l0,-297.5l20.417,0l0,297.5m0,-666.667l-20.417,0l0,25.417l20.417,0l0,-5" style="fill:none;fill-rule:nonzero;stroke:#2b2b2b;stroke-width:3.37px;stroke-linecap:round;"/>
        <path d="M1213.169,938.775l20.417,-20m-44.167,20l20.417,-20m-44.167,20l20.417,-20m-44.167,20l20,-20m-43.75,20l20,-20m-43.75,20l20,-20m-43.75,20l20,-20m-44.167,20l20.417,-20m-44.167,20l20.417,-20m-44.167,20l20.417,-20m-44.167,20l20,-20m-43.75,20l20,-20m-43.75,20l20,-20m-43.75,20l20,-20m-43.75,20l20,-20m-44.167,20l20.417,-20m-44.167,20l20.417,-20m-44.167,20l20,-20m-43.75,20l20,-20" style="fill:none;fill-rule:nonzero;stroke:#000;stroke-opacity:0.31;stroke-width:1.68px;"/>
        <path d="M784.835,918.775l451.25,0" style="fill:none;fill-rule:nonzero;stroke:#2b2b2b;stroke-width:3.37px;stroke-linecap:round;"/>
        <path d="M596.085,487.525l20.417,-20m-20.417,-3.75l20.417,-20m-20.417,-3.75l20.417,-20.417m-20.417,-3.333l20.417,-20.417m-20.417,-3.333l20.417,-20.417m-20.417,-3.333l20.417,-20.417m-20.417,-3.75l20.417,-20m-20.417,-3.75l20.417,-20m-20.417,-3.75l20.417,-20m-20.417,-3.75l20.417,-20.417m-20.417,-3.333l20.417,-20.417m-20.417,-3.333l20.417,-20.417m-20.417,-3.333l17.5,-17.5" style="fill:none;fill-rule:nonzero;stroke:#000;stroke-opacity:0.31;stroke-width:1.68px;"/>
        <path d="M596.085,184.609l0,302.917m20.417,-302.917l0,302.917" style="fill:none;fill-rule:nonzero;stroke:#2b2b2b;stroke-width:3.37px;stroke-linecap:round;"/>
        <path d="M683.585,642.525l7.083,-6.667m2.083,-121.25l6.667,-6.667" style="fill:none;fill-rule:nonzero;stroke:#000;stroke-opacity:0.31;stroke-width:1.68px;"/>
        <path d="M683.585,642.525l0,-6.667l20.417,0l0,6.667m-20.417,-134.583l0,6.667l20.417,0l0,-6.667" style="fill:none;fill-rule:nonzero;stroke:#2b2b2b;stroke-width:3.37px;stroke-linecap:round;"/>
        <path d="M1231.502,662.525l4.583,-4.583m-28.75,4.583l20.417,-20m-44.167,20l20.417,-20m-44.167,20l20.417,-20m-44.167,20l20.417,-20m-44.167,20l20,-20m-43.75,20l20,-20m-43.75,20l20,-20m-43.75,20l20,-20m-44.167,20l20.417,-20m-44.167,20l20.417,-20m-44.167,20l20.417,-20m-163.333,20l18.75,-18.75m-42.5,18.75l20.417,-20m-44.167,20l20,-20m-43.75,20l20,-20m-43.75,20l20,-20m-43.75,20l20,-20m-44.167,20l20.417,-20" style="fill:none;fill-rule:nonzero;stroke:#000;stroke-opacity:0.31;stroke-width:1.68px;"/>
        <path d="M683.585,642.525l0,20l80.833,0m-60.417,-20l141.25,0l0,20l-60.417,0m451.25,0l-269.583,0l0,-20l269.583,0" style="fill:none;fill-rule:nonzero;stroke:#2b2b2b;stroke-width:3.37px;stroke-linecap:round;"/>
        <path d="M775.252,938.775l9.583,-9.583m-33.333,9.583l20.417,-20m-44.167,20l20,-20.417m-43.75,20.417l20,-20.417" style="fill:none;fill-rule:nonzero;stroke:#000;stroke-opacity:0.31;stroke-width:1.68px;"/>
        <path d="M704.002,918.359l60.417,0.417" style="fill:none;fill-rule:nonzero;stroke:#2b2b2b;stroke-width:3.37px;stroke-linecap:round;"/>
        <path d="M683.585,1154.192l7.083,-6.667m12.5,-107.917l0.833,-0.833m-20.417,-3.75l20.417,-20m-20.417,-3.75l20.417,-20m-20.417,-3.75l20.417,-20m-20.417,-3.75l20.417,-20m-20.417,-3.75l20.417,-20.417" style="fill:none;fill-rule:nonzero;stroke:#000;stroke-opacity:0.31;stroke-width:1.68px;"/>
        <path d="M683.585,1154.192l0,-6.667l20.417,0l0,6.667m0,-235.833l-20.417,0l0,121.25l20.417,0l0,-80.833" style="fill:none;fill-rule:nonzero;stroke:#2b2b2b;stroke-width:3.37px;stroke-linecap:round;"/>
        <rect x="57.335" y="1154.192" width="471.667" height="40.417" style="fill:#fff;fill-opacity:0.1;"/>
        <path d="M509.835,1194.609l19.167,-19.167m-42.917,19.167l40.417,-40.417m-64.167,40.417l40.417,-40.417m-64.167,40.417l40.417,-40.417m-64.167,40.417l40,-40.417m-64.167,40.417l40.417,-40.417m-64.167,40.417l40.417,-40.417m-64.167,40.417l40.417,-40.417m-64.167,40.417l40.417,-40.417m-64.167,40.417l40.417,-40.417m-64.167,40.417l40.417,-40.417m-64.167,40.417l40.417,-40.417m-64.583,40.417l40.417,-40.417m-64.167,40.417l40.417,-40.417m-64.167,40.417l40.417,-40.417m-64.167,40.417l40.417,-40.417m-64.167,40.417l40.417,-40.417m-64.167,40.417l40.417,-40.417m-64.167,40.417l40.417,-40.417m-64.583,40.417l40.417,-40.417m-40.417,16.667l16.667,-16.667m455,12.083l-12.083,-12.083m12.083,35.833l-35.833,-35.833m16.667,40.417l-40.417,-40.417m16.667,40.417l-40.417,-40.417m16.667,40.417l-40.417,-40.417m16.667,40.417l-40.417,-40.417m16.667,40.417l-40.417,-40.417m16.25,40.417l-40.417,-40.417m16.667,40.417l-40.417,-40.417m16.667,40.417l-40.417,-40.417m16.667,40.417l-40.417,-40.417m16.667,40.417l-40.417,-40.417m16.667,40.417l-40.417,-40.417m16.667,40.417l-40.417,-40.417m16.25,40.417l-40.417,-40.417m16.667,40.417l-40.417,-40.417m16.667,40.417l-40.417,-40.417m16.667,40.417l-40.417,-40.417m16.667,40.417l-40.417,-40.417m16.667,40.417l-40.417,-40.417m16.667,40.417l-24.167,-23.75" style="fill:none;fill-rule:nonzero;stroke:#000;stroke-opacity:0.31;stroke-width:1.68px;"/>
        <path d="M57.335,1194.609l471.667,0l0,-40.417m-471.667,0l451.25,0" style="fill:none;fill-rule:nonzero;stroke:#2b2b2b;stroke-width:3.37px;stroke-linecap:round;"/>
        <rect x="16.919" y="184.609" width="40.417" height="1010" style="fill:#fff;fill-opacity:0.1;"/>
        <path d="M41.085,1194.609l16.25,-16.667m-40.417,16.667l40.417,-40.417m-40.417,16.667l40.417,-40.417m-40.417,16.667l40.417,-40.417m-40.417,16.667l40.417,-40.417m-40.417,16.667l40.417,-40.417m-40.417,16.25l40.417,-40.417m-40.417,16.667l40.417,-40.417m-40.417,16.667l40.417,-40.417m-40.417,16.667l40.417,-40.417m-40.417,16.667l40.417,-40.417m-40.417,16.667l40.417,-40.417m-40.417,16.667l40.417,-40.417m-40.417,16.25l40.417,-40m-40.417,16.25l40.417,-40.417m-40.417,16.667l40.417,-40.417m-40.417,16.667l40.417,-40.417m-40.417,16.667l40.417,-40.417m-40.417,16.667l40.417,-40.417m-40.417,16.667l40.417,-40.417m-40.417,16.667l40.417,-40.417m-40.417,16.25l40.417,-40.417m-40.417,16.667l40.417,-40.417m-40.417,16.667l40.417,-40.417m-40.417,16.667l40.417,-40.417m-40.417,16.667l40.417,-40.417m-40.417,16.667l40.417,-40.417m-40.417,16.667l40.417,-40.417m-40.417,16.25l40.417,-40.417m-40.417,16.667l40.417,-40.417m-40.417,16.667l40.417,-40.417m-40.417,16.667l40.417,-40.417m-40.417,16.667l40.417,-40.417m-40.417,16.667l40.417,-40.417m-40.417,16.667l40.417,-40.417m-40.417,16.25l40.417,-40.417m-40.417,16.667l40.417,-40.417m-40.417,16.667l40.417,-40.417m-40.417,16.667l40.417,-40.417m-40.417,16.667l40.417,-40.417m-40.417,16.667l40.417,-40.417m-40.417,16.667l40.417,-40.417m-40.417,16.25l34.167,-33.75m-34.167,10l10.417,-10m30,2.917l-2.917,-2.917m2.917,26.667l-26.667,-26.667m26.667,50.417l-40.417,-40.417m40.417,64.167l-40.417,-40.417m40.417,64.583l-40.417,-40.417m40.417,64.167l-40.417,-40.417m40.417,64.167l-40.417,-40.417m40.417,64.167l-40.417,-40.417m40.417,64.167l-40.417,-40.417m40.417,64.167l-40.417,-40.417m40.417,64.167l-40.417,-40.417m40.417,64.583l-40.417,-40.417m40.417,64.167l-40.417,-40.417m40.417,64.167l-40.417,-40.417m40.417,64.167l-40.417,-40.417m40.417,64.167l-40.417,-40.417m40.417,64.167l-40.417,-40.417m40.417,64.167l-40.417,-40.417m40.417,64.583l-40.417,-40.417m40.417,64.167l-40.417,-40.417m40.417,64.167l-40.417,-40.417m40.417,64.167l-40.417,-40.417m40.417,64.167l-40.417,-40.417m40.417,64.167l-40.417,-40.417m40.417,64.167l-40.417,-40.417m40.417,64.167l-40.417,-40m40.417,64.167l-40.417,-40.417m40.417,64.167l-40.417,-40.417m40.417,64.167l-40.417,-40.417m40.417,64.167l-40.417,-40.417m40.417,64.167l-40.417,-40.417m40.417,64.167l-40.417,-40.417m40.417,64.167l-40.417,-40.417m40.417,64.583l-40.417,-40.417m40.417,64.167l-40.417,-40.417m40.417,64.167l-40.417,-40.417m40.417,64.167l-40.417,-40.417m40.417,64.167l-40.417,-40.417m40.417,64.167l-40.417,-40.417m40.417,64.167l-40.417,-40.417m40.417,64.583l-40.417,-40.417m40.417,64.167l-40.417,-40.417m40.417,64.167l-40.417,-40.417m24.167,47.5l-24.167,-23.75" style="fill:none;fill-rule:nonzero;stroke:#000;stroke-opacity:0.31;stroke-width:1.68px;"/>
        <path d="M16.919,184.609l0,1010l40.417,0m0,-40.417l0,-491.667m0,-477.917l0,457.917" style="fill:none;fill-rule:nonzero;stroke:#2b2b2b;stroke-width:3.37px;stroke-linecap:round;"/>
        <rect x="683.585" y="1154.192" width="552.5" height="40.417" style="fill:#fff;fill-opacity:0.1;"/>
        <path d="M1231.502,1194.609l4.583,-4.583m-28.75,4.583l28.75,-28.333m-52.5,28.333l40.417,-40.417m-64.167,40.417l40.417,-40.417m-64.167,40.417l40.417,-40.417m-64.167,40.417l40.417,-40.417m-64.167,40.417l40.417,-40.417m-64.167,40.417l40.417,-40.417m-64.167,40.417l40,-40.417m-64.167,40.417l40.417,-40.417m-64.167,40.417l40.417,-40.417m-64.167,40.417l40.417,-40.417m-64.167,40.417l40.417,-40.417m-64.167,40.417l40.417,-40.417m-64.167,40.417l40.417,-40.417m-64.167,40.417l40.417,-40.417m-64.583,40.417l40.417,-40.417m-64.167,40.417l40.417,-40.417m-64.167,40.417l40.417,-40.417m-64.167,40.417l40.417,-40.417m-64.167,40.417l40.417,-40.417m-64.167,40.417l40.417,-40.417m-64.167,40.417l40.417,-40.417m-64.583,40.417l40.417,-40.417m-40.417,16.667l16.667,-16.667m535.833,21.25l-21.25,-21.25m16.667,40.417l-40.417,-40.417m16.25,40.417l-40,-40.417m16.25,40.417l-40.417,-40.417m16.667,40.417l-40.417,-40.417m16.667,40.417l-40.417,-40.417m16.667,40.417l-40.417,-40.417m16.667,40.417l-40.417,-40.417m16.667,40.417l-40.417,-40.417m16.667,40.417l-40.417,-40.417m16.25,40.417l-40.417,-40.417m16.667,40.417l-40.417,-40.417m16.667,40.417l-40.417,-40.417m16.667,40.417l-40.417,-40.417m16.667,40.417l-40.417,-40.417m16.667,40.417l-40.417,-40.417m16.667,40.417l-40.417,-40.417m16.25,40.417l-40.417,-40.417m16.667,40.417l-40.417,-40.417m16.667,40.417l-40.417,-40.417m16.667,40.417l-40.417,-40.417m16.667,40.417l-40.417,-40.417m16.667,40.417l-40.417,-40.417m16.667,40.417l-24.167,-23.75" style="fill:none;fill-rule:nonzero;stroke:#000;stroke-opacity:0.31;stroke-width:1.68px;"/>
        <path d="M683.585,1154.192l0,40.417l552.5,0m-532.083,-40.417l532.083,0" style="fill:none;fill-rule:nonzero;stroke:#2b2b2b;stroke-width:3.37px;stroke-linecap:round;"/>
        <rect x="1236.085" y="184.609" width="40.417" height="1010" style="fill:#fff;fill-opacity:0.1;"/>
        <path d="M1259.835,1194.609l16.667,-16.667m-40.417,16.667l40.417,-40.417m-40.417,16.667l40.417,-40.417m-40.417,16.667l40.417,-40.417m-40.417,16.667l40.417,-40.417m-40.417,16.667l40.417,-40.417m-40.417,16.25l40.417,-40.417m-40.417,16.667l40.417,-40.417m-40.417,16.667l40.417,-40.417m-40.417,16.667l40.417,-40.417m-40.417,16.667l40.417,-40.417m-40.417,16.667l40.417,-40.417m-40.417,16.667l40.417,-40.417m-40.417,16.25l40.417,-40.417m-40.417,16.667l40.417,-40.417m-40.417,16.667l40.417,-40.417m-40.417,16.667l40.417,-40.417m-40.417,16.667l40.417,-40.417m-40.417,16.667l40.417,-40.417m-40.417,16.667l40.417,-40.417m-40.417,16.25l40.417,-40m-40.417,16.25l40.417,-40.417m-40.417,16.667l40.417,-40.417m-40.417,16.667l40.417,-40.417m-40.417,16.667l40.417,-40.417m-40.417,16.667l40.417,-40.417m-40.417,16.667l40.417,-40.417m-40.417,16.667l40.417,-40.417m-40.417,16.25l40.417,-40.417m-40.417,16.667l40.417,-40.417m-40.417,16.667l40.417,-40.417m-40.417,16.667l40.417,-40.417m-40.417,16.667l40.417,-40.417m-40.417,16.667l40.417,-40.417m-40.417,16.667l40.417,-40.417m-40.417,16.25l40.417,-40.417m-40.417,16.667l40.417,-40.417m-40.417,16.667l40.417,-40.417m-40.417,16.667l40.417,-40.417m-40.417,16.667l40.417,-40.417m-40.417,16.667l40.417,-40.417m-40.417,16.667l40.417,-40.417m-40.417,16.25l33.75,-33.75m-33.75,10l10,-10m30.417,2.917l-2.917,-2.917m2.917,26.667l-27.083,-26.667m27.083,50.417l-40.417,-40.417m40.417,64.167l-40.417,-40.417m40.417,64.583l-40.417,-40.417m40.417,64.167l-40.417,-40.417m40.417,64.167l-40.417,-40.417m40.417,64.167l-40.417,-40.417m40.417,64.167l-40.417,-40.417m40.417,64.167l-40.417,-40.417m40.417,64.167l-40.417,-40.417m40.417,64.583l-40.417,-40.417m40.417,64.167l-40.417,-40.417m40.417,64.167l-40.417,-40.417m40.417,64.167l-40.417,-40.417m40.417,64.167l-40.417,-40.417m40.417,64.167l-40.417,-40.417m40.417,64.167l-40.417,-40.417m40.417,64.583l-40.417,-40.417m40.417,64.167l-40.417,-40.417m40.417,64.167l-40.417,-40.417m40.417,64.167l-40.417,-40.417m40.417,64.167l-40.417,-40.417m40.417,64.167l-40.417,-40.417m40.417,64.167l-40.417,-40.417m40.417,64.583l-40.417,-40.417m40.417,64.167l-40.417,-40.417m40.417,64.167l-40.417,-40.417m40.417,64.167l-40.417,-40.417m40.417,64.167l-40.417,-40.417m40.417,64.167l-40.417,-40.417m40.417,64.167l-40.417,-40.417m40.417,64.167l-40.417,-40.417m40.417,64.583l-40.417,-40.417m40.417,64.167l-40.417,-40.417m40.417,64.167l-40.417,-40.417m40.417,64.167l-40.417,-40.417m40.417,64.167l-40.417,-40.417m40.417,64.167l-40.417,-40.417m40.417,64.167l-40.417,-40.417m40.417,64.583l-40.417,-40.417m40.417,64.167l-40.417,-40.417m40.417,64.167l-40.417,-40.417m23.75,47.5l-23.75,-23.75" style="fill:none;fill-rule:nonzero;stroke:#000;stroke-opacity:0.31;stroke-width:1.68px;"/>
        <path d="M1236.085,918.775l0,-256.25m0,296.25l0,195.417m0,40.417l40.417,0l0,-1010m-40.417,457.917l0,-457.917" style="fill:none;fill-rule:nonzero;stroke:#2b2b2b;stroke-width:3.37px;stroke-linecap:round;"/>
        <rect x="16.919" y="144.192" width="1259.583" height="40.417" style="fill:#fff;fill-opacity:0.1;"/>
        <path d="M1255.252,184.609l21.25,-21.25m-45,21.25l40,-40.417m-64.167,40.417l40.417,-40.417m-64.167,40.417l40.417,-40.417m-64.167,40.417l40.417,-40.417m-64.167,40.417l40.417,-40.417m-64.167,40.417l40.417,-40.417m-64.167,40.417l40.417,-40.417m-64.167,40.417l40.417,-40.417m-64.583,40.417l40.417,-40.417m-64.167,40.417l40.417,-40.417m-64.167,40.417l40.417,-40.417m-64.167,40.417l40.417,-40.417m-64.167,40.417l40.417,-40.417m-64.167,40.417l40.417,-40.417m-64.167,40.417l40.417,-40.417m-64.583,40.417l40.417,-40.417m-64.167,40.417l40.417,-40.417m-64.167,40.417l40.417,-40.417m-64.167,40.417l40.417,-40.417m-64.167,40.417l40.417,-40.417m-64.167,40.417l40.417,-40.417m-64.167,40.417l40.417,-40.417m-64.583,40.417l40.417,-40.417m-64.167,40.417l40.417,-40.417m-64.167,40.417l40.417,-40.417m-64.167,40.417l40.417,-40.417m-64.167,40.417l40.417,-40.417m-64.167,40.417l40.417,-40.417m-64.167,40.417l40.417,-40.417m-64.167,40.417l40,-40.417m-64.167,40.417l40.417,-40.417m-64.167,40.417l40.417,-40.417m-64.167,40.417l40.417,-40.417m-64.167,40.417l40.417,-40.417m-64.167,40.417l40.417,-40.417m-64.167,40.417l40.417,-40.417m-64.167,40.417l40.417,-40.417m-64.583,40.417l40.417,-40.417m-64.167,40.417l40.417,-40.417m-64.167,40.417l40.417,-40.417m-64.167,40.417l40.417,-40.417m-64.167,40.417l40.417,-40.417m-64.167,40.417l40.417,-40.417m-64.167,40.417l40.417,-40.417m-64.583,40.417l40.417,-40.417m-64.167,40.417l40.417,-40.417m-64.167,40.417l40.417,-40.417m-64.167,40.417l40.417,-40.417m-64.167,40.417l40.417,-40.417m-64.167,40.417l40.417,-40.417m-64.167,40.417l40.417,-40.417m-64.583,40.417l40.417,-40.417m-40.417,16.667l16.667,-16.667m1242.917,14.167l-14.167,-14.167m14.167,37.917l-37.917,-37.917m16.667,40.417l-40.417,-40.417m16.667,40.417l-40.417,-40.417m16.25,40.417l-40.417,-40.417m16.667,40.417l-40.417,-40.417m16.667,40.417l-40.417,-40.417m16.667,40.417l-40.417,-40.417m16.667,40.417l-40.417,-40.417m16.667,40.417l-40.417,-40.417m16.667,40.417l-40.417,-40.417m16.25,40.417l-40.417,-40.417m16.667,40.417l-40.417,-40.417m16.667,40.417l-40.417,-40.417m16.667,40.417l-40.417,-40.417m16.667,40.417l-40.417,-40.417m16.667,40.417l-40.417,-40.417m16.667,40.417l-40.417,-40.417m16.25,40.417l-40.417,-40.417m16.667,40.417l-40.417,-40.417m16.667,40.417l-40.417,-40.417m16.667,40.417l-40.417,-40.417m16.667,40.417l-40.417,-40.417m16.667,40.417l-40.417,-40.417m16.667,40.417l-40.417,-40.417m16.25,40.417l-40,-40.417m16.25,40.417l-40.417,-40.417m16.667,40.417l-40.417,-40.417m16.667,40.417l-40.417,-40.417m16.667,40.417l-40.417,-40.417m16.667,40.417l-40.417,-40.417m16.667,40.417l-40.417,-40.417m16.667,40.417l-40.417,-40.417m16.25,40.417l-40.417,-40.417m16.667,40.417l-40.417,-40.417m16.667,40.417l-40.417,-40.417m16.667,40.417l-40.417,-40.417m16.667,40.417l-40.417,-40.417m16.667,40.417l-40.417,-40.417m16.667,40.417l-40.417,-40.417m16.25,40.417l-40.417,-40.417m16.667,40.417l-40.417,-40.417m16.667,40.417l-40.417,-40.417m16.667,40.417l-40.417,-40.417m16.667,40.417l-40.417,-40.417m16.667,40.417l-40.417,-40.417m16.667,40.417l-40.417,-40.417m16.25,40.417l-40.417,-40.417m16.667,40.417l-40.417,-40.417m16.667,40.417l-40.417,-40.417m16.667,40.417l-40.417,-40.417m16.667,40.417l-40.417,-40.417m16.667,40.417l-40.417,-40.417m16.667,40.417l-24.167,-23.75" style="fill:none;fill-rule:nonzero;stroke:#000;stroke-opacity:0.31;stroke-width:1.68px;"/>
        <path d="M16.919,184.609l0,-40.417l1259.583,0l0,40.417m-1219.167,0l538.75,0m20.417,0l619.583,0" style="fill:none;fill-rule:nonzero;stroke:#2b2b2b;stroke-width:3.37px;stroke-linecap:round;"/>
        <path d="M529.002,520.025l-20.417,0" style="fill:none;fill-rule:nonzero;stroke:#000;stroke-width:0.34px;"/>
        <path d="M529.002,627.525l-127.917,0" style="fill:none;fill-rule:nonzero;stroke:#000;stroke-width:0.34px;"/>
        <path d="M401.085,627.525c0,-59.583 47.917,-107.5 107.5,-107.5" style="fill:none;fill-rule:nonzero;stroke:#000;stroke-width:0.34px;"/>
        <rect x="508.585" y="512.942" width="20.417" height="121.25" style="fill:none;fill-rule:nonzero;stroke:#000;stroke-width:0.34px;"/>
        <rect x="508.585" y="748.775" width="20.417" height="107.917" style="fill:none;fill-rule:nonzero;stroke:#000;stroke-width:0.34px;"/>
        <path d="M529.002,755.442l-114.583,0" style="fill:none;fill-rule:nonzero;stroke:#000;stroke-width:0.34px;"/>
        <path d="M508.585,849.609c-52.083,0 -94.167,-42.083 -94.167,-94.167" style="fill:none;fill-rule:nonzero;stroke:#000;stroke-width:0.34px;"/>
        <path d="M508.585,849.609l20.417,0" style="fill:none;fill-rule:nonzero;stroke:#000;stroke-width:0.34px;"/>
        <rect x="683.585" y="1039.609" width="20.417" height="107.917" style="fill:none;fill-rule:nonzero;stroke:#000;stroke-width:0.34px;"/>
        <path d="M683.585,1140.859l114.583,0" style="fill:none;fill-rule:nonzero;stroke:#000;stroke-width:0.34px;"/>
        <path d="M704.002,1046.692c52.083,-0 94.167,42.083 94.167,94.167" style="fill:none;fill-rule:nonzero;stroke:#000;stroke-width:0.34px;"/>
        <path d="M704.002,1046.692l-20.417,0" style="fill:none;fill-rule:nonzero;stroke:#000;stroke-width:0.34px;"/>
        <path d="M683.585,521.275l20.417,0" style="fill:none;fill-rule:nonzero;stroke:#000;stroke-width:0.34px;"/>
        <path d="M683.585,629.192l128.333,0" style="fill:none;fill-rule:nonzero;stroke:#000;stroke-width:0.34px;"/>
        <path d="M811.919,629.192c0,-59.583 -48.333,-107.917 -107.917,-107.917" style="fill:none;fill-rule:nonzero;stroke:#000;stroke-width:0.34px;"/>
        <rect x="683.585" y="514.609" width="20.417" height="121.25" style="fill:none;fill-rule:nonzero;stroke:#000;stroke-width:0.34px;"/>
        <path d="M959.835,642.525l0,20" style="fill:none;fill-rule:nonzero;stroke:#000;stroke-width:0.34px;"/>
        <path d="M851.919,642.525l0,127.917" style="fill:none;fill-rule:nonzero;stroke:#000;stroke-width:0.34px;"/>
        <path d="M851.919,770.442c59.583,0 107.917,-48.333 107.917,-107.917" style="fill:none;fill-rule:nonzero;stroke:#000;stroke-width:0.34px;"/>
        <rect x="845.252" y="642.525" width="121.25" height="20" style="fill:none;fill-rule:nonzero;stroke:#000;stroke-width:0.34px;"/>
        <path d="M518.585,1194.609l2.5,0m2.083,0l4.167,0m2.083,0l4.167,0m2.5,0l4.167,0m2.083,0l4.167,0m2.083,0l4.583,0m2.083,0l4.167,0m2.083,0l4.167,0m2.083,0l4.583,0m2.083,0l4.167,0m2.083,0l4.583,0m2.083,0l4.167,0m2.083,0l4.167,0m2.083,0l4.583,0m2.083,0l4.167,0m2.083,0l4.583,0m2.083,0l4.167,0m2.083,0l4.167,0m2.083,0l4.583,0m2.083,0l4.167,0m2.083,0l4.167,0m2.5,0l4.167,0m2.083,0l4.167,0m2.083,0l4.583,0m2.083,0l4.167,0m2.083,0l4.167,0m2.5,0l4.167,0m2.083,0l4.167,0m2.083,0l4.583,0m2.083,0l4.167,0m2.083,0l4.167,0m2.5,0l4.167,0m2.083,0l4.167,0m2.083,0l4.583,0m2.083,0l4.167,0m2.083,0l4.167,0m2.5,0l4.167,0m2.083,0l4.167,0m2.083,0l4.167,0" style="fill:none;fill-rule:nonzero;stroke:#a8a8a8;stroke-width:0.34px;stroke-linecap:round;"/>
        <path d="M764.419,662.525l-80.833,0l0,161.667l80.833,0l0,-161.667Z" style="fill:#ddb682;stroke:#000;stroke-width:0.88px;"/>
        <path d="M683.585,662.525l80.833,80.833l-80.833,80.833" style="fill:none;fill-rule:nonzero;stroke:#000;stroke-width:0.34px;"/>
        <path d="M596.085,325.859l-87.5,0l0,161.667l87.5,0l0,-161.667Z" style="fill:#ddb682;stroke:#000;stroke-width:0.88px;"/>
        <path d="M508.585,325.859l87.5,80.833l-87.5,80.833" style="fill:none;fill-rule:nonzero;stroke:#000;stroke-width:0.34px;"/>
        <path d="M596.085,184.609l-87.5,0l0,141.25l87.5,0l0,-141.25Z" style="fill:#ddb682;stroke:#000;stroke-width:0.88px;"/>
        <path d="M508.585,184.609l87.5,70.833l-87.5,70.417" style="fill:none;fill-rule:nonzero;stroke:#000;stroke-width:0.34px;"/>
        <path d="M704.002,325.859l-87.5,0l0,161.667l87.5,0l0,-161.667Z" style="fill:#ddb682;stroke:#000;stroke-width:0.88px;"/>
        <path d="M704.002,325.859l-87.5,80.833l87.5,80.833" style="fill:none;fill-rule:nonzero;stroke:#000;stroke-width:0.34px;"/>
        <path d="M704.002,184.609l-87.5,0l0,141.25l87.5,0l0,-141.25Z" style="fill:#ddb682;stroke:#000;stroke-width:0.88px;"/>
        <path d="M704.002,184.609l-87.5,70.833l87.5,70.417" style="fill:none;fill-rule:nonzero;stroke:#000;stroke-width:0.34px;"/>
        <path d="M764.835,824.192l-80.833,0l0,94.583l80.833,0l0,-94.583Z" style="fill:#ddb682;stroke:#000;stroke-width:0.88px;"/>
        <path d="M684.002,824.192l80.833,47.083l-80.833,47.5" style="fill:none;fill-rule:nonzero;stroke:#000;stroke-width:0.34px;"/>
    </g>
    <g id="anchorTop">
        <path d="M1419.002,144.192l-285.417,0" style="fill:none;fill-rule:nonzero;stroke:#f00;stroke-width:0.34px;"/>
        <path d="M1276.502,1.692l0,285" style="fill:none;fill-rule:nonzero;stroke:#f00;stroke-width:0.34px;"/>
    </g>
</svg>
