<?xml version="1.0" encoding="UTF-8" standalone="no"?>
<!DOCTYPE svg PUBLIC "-//W3C//DTD SVG 1.1//EN" "http://www.w3.org/Graphics/SVG/1.1/DTD/svg11.dtd">
<svg width="100%" height="100%" viewBox="0 0 1421 1212" version="1.1" xmlns="http://www.w3.org/2000/svg" xmlns:xlink="http://www.w3.org/1999/xlink" xml:space="preserve" xmlns:serif="http://www.serif.com/" style="fill-rule:evenodd;clip-rule:evenodd;stroke-miterlimit:10;">
    <g id="topAllL">
        <rect x="16.919" y="144.192" width="1259.583" height="1050.417" style="fill:#fff;"/>
        <path d="M57.335,184.609l532.083,0l0,457.917l-80.833,0l0,27.083l10,0l0,107.5l-10,0l0,6.667l-250.833,0l0,10.417l-102.5,0l0,-10.417l-97.917,0l0,-599.167Z" style="fill:#e0e0e0;fill-opacity:0.25;stroke:#a8a8a8;stroke-width:0.34px;"/>
        <path d="M737.752,642.525l0,10l-121.25,0l0,-10l-6.667,0l0,-457.917l626.25,0l0,397.083l-235.833,0l0,40.417l-215.417,0l0,-80.417l-20.417,0l0,100.833l-26.667,0Z" style="fill:#e0e0e0;fill-opacity:0.25;stroke:#a8a8a8;stroke-width:0.34px;"/>
        <path d="M1020.252,642.525l0,-40.417l215.833,0l0,552.083l-451.25,0l0,-282.917l-10,0l0,-120.833l10,0l0,-107.917l235.417,0Z" style="fill:#e0e0e0;fill-opacity:0.25;stroke:#a8a8a8;stroke-width:0.34px;"/>
        <path d="M357.752,804.192l231.667,0l0,126.667l10,0l0,102.5l-10,0l0,107.5l-231.667,0l0,-336.667Z" style="fill:#e0e0e0;fill-opacity:0.25;stroke:#a8a8a8;stroke-width:0.34px;"/>
        <path d="M155.252,804.192l0,-10l102.5,0l0,10l66.25,0l0,336.667l-242.083,0l0,-336.667l73.333,0Z" style="fill:#e0e0e0;fill-opacity:0.25;stroke:#a8a8a8;stroke-width:0.34px;"/>
        <path d="M774.835,871.275l-10.417,0l0,323.333l-154.583,0l0,-161.25l-10.417,0l0,-102.5l10.417,0l0,-147.083l-80.833,0l0,-6.667l-10.417,0l0,-107.5l10.417,0l0,-7.083l87.5,0l0,-10l121.25,0l0,10l26.667,0l0,87.917l10.417,0l0,120.833Z" style="fill:#e0e0e0;fill-opacity:0.25;stroke:#a8a8a8;stroke-width:0.34px;"/>
        <g transform="matrix(1,0,0,1,-311.312935,349.898893)">
            <text x="610.78px" y="272.48px" style="font-family:'ArialMT', 'Arial', sans-serif;font-size:24.11px;fill:#2b2b2b;fill-opacity:0.99;">Ložnice</text>
            <g transform="matrix(24.109898,0,0,24.109898,699.911789,299.415259)">
            </g>
            <text x="604.767px" y="299.415px" style="font-family:'ArialMT', 'Arial', sans-serif;font-size:24.11px;fill:#2b2b2b;fill-opacity:0.99;">17.06 m²</text>
        </g>
        <g transform="matrix(1,0,0,1,117.449393,198.045668)">
            <text x="757.574px" y="224.526px" style="font-family:'ArialMT', 'Arial', sans-serif;font-size:24.11px;fill:#2b2b2b;fill-opacity:0.99;">Pokoj</text>
            <g transform="matrix(24.109898,0,0,24.109898,835.306276,251.461609)">
            </g>
            <text x="740.162px" y="251.462px" style="font-family:'ArialMT', 'Arial', sans-serif;font-size:24.11px;fill:#2b2b2b;fill-opacity:0.99;">14.74 m²</text>
        </g>
        <g transform="matrix(1,0,0,1,220.173716,548.648076)">
            <text x="790.013px" y="335.243px" style="font-family:'ArialMT', 'Arial', sans-serif;font-size:24.11px;fill:#2b2b2b;fill-opacity:0.99;">Pokoj</text>
            <g transform="matrix(24.109898,0,0,24.109898,867.745536,362.178159)">
            </g>
            <text x="772.601px" y="362.178px" style="font-family:'ArialMT', 'Arial', sans-serif;font-size:24.11px;fill:#2b2b2b;fill-opacity:0.99;">13.28 m²</text>
        </g>
        <g transform="matrix(1,0,0,1,-210.226956,649.642196)">
            <text x="636.68px" y="367.136px" style="font-family:'ArialMT', 'Arial', sans-serif;font-size:24.11px;fill:#2b2b2b;fill-opacity:0.99;">Koupelna</text>
            <g transform="matrix(24.109898,0,0,24.109898,728.492975,394.071039)">
            </g>
            <text x="646.757px" y="394.071px" style="font-family:'ArialMT', 'Arial', sans-serif;font-size:24.11px;fill:#2b2b2b;fill-opacity:0.99;">4.36 m²</text>
        </g>
        <g transform="matrix(1,0,0,1,-453.315173,601.214616)">
            <text x="559.915px" y="351.843px" style="font-family:'ArialMT', 'Arial', sans-serif;font-size:24.11px;fill:#2b2b2b;fill-opacity:0.99;">Koupelna</text>
            <g transform="matrix(24.109898,0,0,24.109898,651.728275,378.778119)">
            </g>
            <text x="569.992px" y="378.778px" style="font-family:'ArialMT', 'Arial', sans-serif;font-size:24.11px;fill:#2b2b2b;fill-opacity:0.99;">4.56 m²</text>
        </g>
        <g transform="matrix(1,0,0,1,-73.18929,611.449621)">
            <text x="708.7px" y="355.075px" style="font-family:'ArialMT', 'Arial', sans-serif;font-size:24.11px;fill:#2b2b2b;fill-opacity:0.99;">Chodba</text>
            <text x="697.993px" y="382.01px" style="font-family:'ArialMT', 'Arial', sans-serif;font-size:24.11px;fill:#2b2b2b;fill-opacity:0.99;">horní část</text>
            <g transform="matrix(24.109898,0,0,24.109898,793.450894,408.945501)">
            </g>
            <text x="711.715px" y="408.946px" style="font-family:'ArialMT', 'Arial', sans-serif;font-size:24.11px;fill:#2b2b2b;fill-opacity:0.99;">5.33 m²</text>
        </g>
        <path d="M337.752,804.192l-13.75,0l0,336.667l13.75,0l0,-336.667Z" style="fill:#ddd;"/>
        <path d="M324.002,1140.859l0,-336.667" style="fill:none;fill-rule:nonzero;stroke:#2b2b2b;stroke-width:3.37px;stroke-linecap:round;"/>
        <path d="M357.752,1154.192l231.667,0l0,-13.333l-231.667,0l0,13.333Z" style="fill:#ddd;"/>
        <path d="M357.752,1140.859l231.667,0" style="fill:none;fill-rule:nonzero;stroke:#2b2b2b;stroke-width:3.37px;stroke-linecap:round;"/>
        <path d="M81.919,804.192l-24.583,0l0,336.667l24.583,0l0,-336.667Z" style="fill:#ddd;"/>
        <path d="M81.919,1140.859l0,-336.667" style="fill:none;fill-rule:nonzero;stroke:#2b2b2b;stroke-width:3.37px;stroke-linecap:round;"/>
        <rect x="57.335" y="1140.859" width="280.417" height="13.333" style="fill:#ddd;"/>
        <path d="M81.919,1140.859l242.083,0" style="fill:none;fill-rule:nonzero;stroke:#2b2b2b;stroke-width:3.37px;stroke-linecap:round;"/>
        <path d="M865.669,642.525l-80.833,0l0,40.417l80.833,0l0,-40.417Z" style="fill:#ddb682;stroke:#000;stroke-width:0.88px;"/>
        <path d="M865.669,682.942l-80.833,-40.417" style="fill:none;fill-rule:nonzero;stroke:#000;stroke-width:0.34px;"/>
        <path d="M946.502,642.525l-80.833,0l0,40.417l80.833,0l0,-40.417Z" style="fill:#ddb682;stroke:#000;stroke-width:0.88px;"/>
        <path d="M946.502,682.942l-80.833,-40.417" style="fill:none;fill-rule:nonzero;stroke:#000;stroke-width:0.34px;"/>
        <path d="M1020.252,642.525l-73.75,0l0,40.417l73.75,0l0,-40.417Z" style="fill:#ddb682;stroke:#000;stroke-width:0.88px;"/>
        <path d="M1020.252,682.942l-73.75,-40.417" style="fill:none;fill-rule:nonzero;stroke:#000;stroke-width:0.34px;"/>
        <rect x="1074.419" y="602.109" width="161.667" height="80.833" style="fill:#ddb682;stroke:#000;stroke-width:0.88px;"/>
        <path d="M1074.419,682.942l80.833,-80.833l80.833,80.833" style="fill:none;fill-rule:nonzero;stroke:#000;stroke-width:0.34px;"/>
        <rect x="1020.252" y="602.109" width="54.167" height="80.833" style="fill:#ddb682;stroke:#000;stroke-width:0.88px;"/>
        <path d="M1020.252,682.942l27.083,-80.833l27.083,80.833" style="fill:none;fill-rule:nonzero;stroke:#000;stroke-width:0.34px;"/>
        <path d="M1155.252,581.692l80.833,0l0,-40l-80.833,0l0,40Z" style="fill:#ddb682;stroke:#000;stroke-width:0.88px;"/>
        <path d="M1155.252,541.692l80.833,40" style="fill:none;fill-rule:nonzero;stroke:#000;stroke-width:0.34px;"/>
        <path d="M1074.419,581.692l80.833,0l0,-40l-80.833,0l0,40Z" style="fill:#ddb682;stroke:#000;stroke-width:0.88px;"/>
        <path d="M1074.419,541.692l80.833,40" style="fill:none;fill-rule:nonzero;stroke:#000;stroke-width:0.34px;"/>
        <path d="M1000.252,581.692l74.167,0l0,-40l-74.167,0l0,40Z" style="fill:#ddb682;stroke:#000;stroke-width:0.88px;"/>
        <path d="M1000.252,541.692l74.167,40" style="fill:none;fill-rule:nonzero;stroke:#000;stroke-width:0.34px;"/>
        <rect x="784.835" y="541.692" width="161.667" height="80.417" style="fill:#ddb682;stroke:#000;stroke-width:0.88px;"/>
        <path d="M946.502,541.692l-80.833,80.417l-80.833,-80.417" style="fill:none;fill-rule:nonzero;stroke:#000;stroke-width:0.34px;"/>
        <rect x="946.502" y="541.692" width="53.75" height="80.417" style="fill:#ddb682;stroke:#000;stroke-width:0.88px;"/>
        <path d="M1000.252,541.692l-27.083,80.417l-26.667,-80.417" style="fill:none;fill-rule:nonzero;stroke:#000;stroke-width:0.34px;"/>
        <path d="M589.419,480.859l-80.833,0l0,161.667l80.833,0l0,-161.667Z" style="fill:#ddb682;stroke:#000;stroke-width:0.88px;"/>
        <path d="M508.585,480.859l80.833,80.833l-80.833,80.833" style="fill:none;fill-rule:nonzero;stroke:#000;stroke-width:0.34px;"/>
        <path d="M589.419,319.192l-80.833,0l0,161.667l80.833,0l0,-161.667Z" style="fill:#ddb682;stroke:#000;stroke-width:0.88px;"/>
        <path d="M508.585,319.192l80.833,80.833l-80.833,80.833" style="fill:none;fill-rule:nonzero;stroke:#000;stroke-width:0.34px;"/>
        <path d="M589.419,184.609l-80.833,0l0,134.583l80.833,0l0,-134.583Z" style="fill:#ddb682;stroke:#000;stroke-width:0.88px;"/>
        <path d="M508.585,184.609l80.833,67.5l-80.833,67.083" style="fill:none;fill-rule:nonzero;stroke:#000;stroke-width:0.34px;"/>
        <rect x="81.919" y="1026.275" width="242.083" height="114.583" style="fill:#f7f7f7;stroke:#000;stroke-width:1.68px;"/>
        <path d="M158.585,1049.192l88.75,0c22.917,0 34.583,11.667 34.583,34.167c0,22.917 -11.667,34.583 -34.583,34.583l-88.75,0c-22.917,0 -34.583,-11.667 -34.583,-34.583c0,-22.5 11.667,-34.167 34.583,-34.167Z" style="fill:none;fill-rule:nonzero;stroke:#000;stroke-width:0.34px;"/>
        <path d="M200.669,1040.859c0,-3.333 -0.417,-6.667 -0.417,-10c-0.417,-0.833 0,-1.667 0.417,-2.5c0.833,-0.833 1.667,-0.833 2.5,-0.833c0.833,0 1.25,0 2.083,0.833c0.417,0.833 0.833,1.667 0.417,2.5c0,3.333 -0.417,6.667 -0.417,10c0,2.083 -0.833,2.917 -2.083,2.917c-1.667,0 -2.5,-0.833 -2.5,-2.917Z" style="fill:none;fill-rule:nonzero;stroke:#000;stroke-width:0.34px;"/>
        <path d="M206.085,1036.275l55.833,0c30,0 45.417,15.833 45.417,47.083c0,31.667 -15.417,47.5 -45.417,47.5l-117.917,0c-30,0 -45.417,-15.833 -45.417,-47.5c0,-31.25 15.417,-47.083 45.417,-47.083l55.833,0" style="fill:none;fill-rule:nonzero;stroke:#000;stroke-width:0.34px;"/>
        <path d="M205.669,1085.442c-0.833,1.667 -2.917,2.083 -4.583,0.833c-1.667,-0.833 -2.083,-2.917 -0.833,-4.583c0.833,-1.667 2.917,-2.083 4.583,-0.833c1.667,0.833 2.083,2.917 0.833,4.583" style="fill:none;fill-rule:nonzero;stroke:#000;stroke-width:0.34px;"/>
        <path d="M205.669,1045.025c0,2.5 -0.833,3.75 -2.5,3.75c-2.083,0 -2.917,-1.25 -2.917,-3.75c0,-4.167 -0.417,-8.75 -0.417,-13.333c0,-1.25 0,-2.5 0.833,-3.333c0.417,-0.833 1.25,-1.25 2.5,-1.25c0.833,0 1.667,0.417 2.083,1.25c0.833,0.833 0.833,2.083 0.833,3.333c0,4.583 -0.417,9.167 -0.417,13.333Z" style="fill:none;fill-rule:nonzero;stroke:#000;stroke-width:0.34px;"/>
        <path d="M206.085,1032.942l57.917,0c31.25,0 46.667,17.083 46.667,50.417c0,33.75 -15.417,50.833 -46.667,50.833l-122.083,0c-31.25,0 -46.667,-17.083 -46.667,-50.833c0,-33.333 15.417,-50.417 46.667,-50.417l57.917,0" style="fill:none;fill-rule:nonzero;stroke:#000;stroke-width:0.34px;"/>
        <path d="M305.669,975.442l0,29.583c0,3.333 -1.667,5.417 -5.417,5.417l-28.333,0c-3.75,0 -5.833,-2.083 -5.833,-5.417l0,-61.667c0,-3.75 2.083,-5.417 5.833,-5.417l28.333,0c3.75,0 5.417,1.667 5.417,5.417l0,22.083" style="fill:none;fill-rule:nonzero;stroke:#000;stroke-width:0.34px;"/>
        <path d="M258.169,1025.025l0,-185.417c0,-1.25 0.833,-1.667 2.083,-1.667l63.333,0c0.417,0 0.417,0 0.417,0.417l0,187.5c0,0.417 0,0.417 -0.417,0.417l-63.333,0c-1.25,0 -2.083,-0.417 -2.083,-1.25Z" style="fill:#f7f7f7;stroke:#000;stroke-width:1.68px;"/>
        <path d="M305.669,891.275l0,29.583c0,3.333 -1.667,5.417 -5.417,5.417l-28.333,0c-3.75,0 -5.833,-2.083 -5.833,-5.417l0,-61.667c0,-3.75 2.083,-5.417 5.833,-5.417l28.333,0c3.75,0 5.417,1.667 5.417,5.417l0,22.083" style="fill:none;fill-rule:nonzero;stroke:#000;stroke-width:0.34px;"/>
        <path d="M310.669,965.442l0,-0.417c0,-0.417 0,-0.417 0.417,-0.417l4.583,0c0.417,0 0.417,0 0.417,0.417l0,2.917c0,0.417 0,0.417 -0.417,0.417l-4.583,0c-0.417,0 -0.417,0 -0.417,-0.417l0,-1.25" style="fill:none;fill-rule:nonzero;stroke:#000;stroke-width:0.34px;"/>
        <path d="M310.669,881.275l0,-0.417c0,-0.417 0,-0.417 0.417,-0.417l4.583,0c0.417,0 0.417,0 0.417,0.417l0,2.917c0,0 0,0.417 -0.417,0.417l-4.583,0c-0.417,0 -0.417,-0.417 -0.417,-0.417l0,-1.667" style="fill:none;fill-rule:nonzero;stroke:#000;stroke-width:0.34px;"/>
        <path d="M313.169,972.942l-28.333,0c-1.25,0 -1.667,0.417 -1.667,1.25c0,0.833 0.417,1.25 1.667,1.25l29.583,0c0.417,-0.417 0.417,-0.833 0.417,-1.25c0,-0.417 0,-0.417 -0.417,-0.833c-0.417,-0.417 -0.833,-0.417 -1.25,-0.417Z" style="fill:none;fill-rule:nonzero;stroke:#000;stroke-width:0.34px;"/>
        <path d="M313.169,888.775l-28.333,0c-1.25,0 -1.667,0.417 -1.667,1.25c0,0.833 0.417,1.25 1.667,1.25l28.333,0c0.417,0 0.833,0 1.25,-0.417c0.417,0 0.417,-0.417 0.417,-0.833c0,-0.417 0,-0.833 -0.417,-0.833c-0.417,-0.417 -0.833,-0.417 -1.25,-0.417Z" style="fill:none;fill-rule:nonzero;stroke:#000;stroke-width:0.34px;"/>
        <path d="M292.335,972.942c0.833,-1.25 1.667,-1.667 2.917,-1.667c1.25,0 2.5,0.417 2.917,1.667" style="fill:none;fill-rule:nonzero;stroke:#000;stroke-width:0.34px;"/>
        <path d="M292.335,888.775c0.833,-1.25 1.667,-2.083 2.917,-2.083c1.25,0.417 2.5,0.833 2.917,2.083" style="fill:none;fill-rule:nonzero;stroke:#000;stroke-width:0.34px;"/>
        <path d="M309.835,972.942c0.833,-1.667 2.5,-2.083 4.167,-2.083c1.667,0.417 2.917,1.667 2.917,3.333c0,1.667 -1.25,2.917 -2.917,3.333c-1.667,0.417 -3.333,-0.417 -4.167,-2.083" style="fill:none;fill-rule:nonzero;stroke:#000;stroke-width:0.34px;"/>
        <path d="M309.835,888.775c0.833,-1.667 2.5,-2.5 4.167,-2.083c1.667,0.417 2.917,1.667 2.917,3.333c-0,1.667 -1.25,2.917 -2.917,3.333c-1.667,0.417 -3.333,-0.417 -4.167,-2.083" style="fill:none;fill-rule:nonzero;stroke:#000;stroke-width:0.34px;"/>
        <path d="M298.169,975.442c-0.417,1.25 -1.667,1.667 -2.917,1.667c-1.25,0 -2.083,-0.417 -2.917,-1.667" style="fill:none;fill-rule:nonzero;stroke:#000;stroke-width:0.34px;"/>
        <path d="M298.169,891.275c-0.417,1.25 -1.667,1.667 -2.917,1.667c-1.25,0 -2.083,-0.417 -2.917,-1.667" style="fill:none;fill-rule:nonzero;stroke:#000;stroke-width:0.34px;"/>
        <path d="M316.085,972.525l0,-4.167l-5.417,0l0,3.75" style="fill:none;fill-rule:nonzero;stroke:#000;stroke-width:0.34px;"/>
        <path d="M316.085,888.359l0,-4.167l-5.417,0l0,3.75" style="fill:none;fill-rule:nonzero;stroke:#000;stroke-width:0.34px;"/>
        <path d="M311.919,966.692l-7.917,0c-0.417,0 -0.417,-0.417 -0.417,-0.417l0,-0.417c0,0 0,-0.417 0.417,-0.417l7.917,0" style="fill:none;fill-rule:nonzero;stroke:#000;stroke-width:0.34px;"/>
        <path d="M311.919,882.109l-7.917,0c-0.417,0 -0.417,0 -0.417,-0.417c0,0 0,-0.417 0.417,-0.417l7.917,0" style="fill:none;fill-rule:nonzero;stroke:#000;stroke-width:0.34px;"/>
        <path d="M305.669,966.692l0,6.25" style="fill:none;fill-rule:nonzero;stroke:#000;stroke-width:0.34px;"/>
        <path d="M305.669,882.109l0,6.667" style="fill:none;fill-rule:nonzero;stroke:#000;stroke-width:0.34px;"/>
        <path d="M305.669,975.442l0,29.583c0,3.333 -1.667,5.417 -5.417,5.417l-28.333,0c-3.75,0 -5.833,-2.083 -5.833,-5.417l0,-61.667c0,-3.75 2.083,-5.417 5.833,-5.417l28.333,0c3.75,0 5.417,1.667 5.417,5.417l0,22.083" style="fill:none;fill-rule:nonzero;stroke:#000;stroke-width:0.34px;"/>
        <path d="M81.919,862.942l0,46.25l47.917,1.25c12.917,-0.417 23.333,-11.25 23.333,-24.167c0,-13.333 -10.417,-24.167 -23.333,-24.583l-47.917,1.25Z" style="fill:#e0e0e0;stroke:#000;stroke-width:0.34px;"/>
        <path d="M148.585,886.275c0,3.75 -1.25,7.917 -3.75,11.25c-4.167,5.833 -10.833,8.75 -17.917,8.75c-7.083,0 -13.333,-3.75 -17.5,-9.167c-2.083,-3.333 -3.333,-7.083 -2.917,-10.833c-0.417,-4.167 0.833,-7.917 2.917,-10.833c4.167,-5.833 10.417,-9.583 17.5,-9.583c7.083,0 13.75,2.917 17.917,8.75c2.5,3.333 3.75,7.5 3.75,11.667Z" style="fill:#b4b4b4;stroke:#000;stroke-width:0.34px;"/>
        <path d="M81.919,886.275l2.917,0" style="fill:none;fill-rule:nonzero;stroke:#000;stroke-width:0.34px;"/>
        <path d="M109.835,897.109c1.667,0 3.333,0 4.583,-0.417c1.667,-0.417 3.333,-0.833 4.583,-1.667c1.25,-0.833 2.5,-1.667 3.333,-2.917c0.833,-0.833 1.25,-2.083 1.667,-2.917l0,-2.083c0.417,-0.417 0,-0.833 0,-0.833" style="fill:none;fill-rule:nonzero;stroke:#000;stroke-width:0.34px;"/>
        <path d="M115.252,896.692c-0.833,-0.833 -1.25,-1.667 -1.667,-2.5c-0.417,-0.833 -0.833,-2.083 -1.25,-2.917c0,-0.833 -0.417,-1.667 -0.417,-2.917l0,-2.083" style="fill:none;fill-rule:nonzero;stroke:#000;stroke-width:0.34px;"/>
        <ellipse cx="97.544" cy="896.275" rx="1.458" ry="1.667" style="fill:none;stroke:#000;stroke-width:0.34px;"/>
        <path d="M109.835,875.025c1.667,0 3.333,0 4.583,0.417c1.667,0.417 3.333,0.833 4.583,1.667c1.25,0.833 2.5,1.667 3.333,2.917c0.833,0.833 1.25,2.083 1.667,2.917l0,2.083c0.417,0.417 0,0.833 0,1.25" style="fill:none;fill-rule:nonzero;stroke:#000;stroke-width:0.34px;"/>
        <path d="M115.252,875.442c-0.833,0.833 -1.25,1.667 -1.667,2.5c-0.417,0.833 -0.833,2.083 -1.25,2.917c0,0.833 -0.417,2.083 -0.417,2.917l0,2.5" style="fill:none;fill-rule:nonzero;stroke:#000;stroke-width:0.34px;"/>
        <path d="M97.752,877.525c-0.833,0 -1.667,-0.833 -1.667,-1.667c0,-0.833 0.833,-1.667 1.667,-1.667c0.833,0 1.25,0.833 1.25,1.667c0,0.833 -0.417,1.667 -1.25,1.667Z" style="fill:none;fill-rule:nonzero;stroke:#000;stroke-width:0.34px;"/>
        <rect x="57.335" y="534.609" width="54.167" height="54.167" style="fill:#ddb682;stroke:#000;stroke-width:0.88px;"/>
        <rect x="57.335" y="238.359" width="54.167" height="54.167" style="fill:#ddb682;stroke:#000;stroke-width:0.88px;"/>
        <rect x="66.502" y="313.359" width="67.5" height="80.833" style="fill:#69b2ff;fill-opacity:0.5;"/>
        <path d="M340.252,534.609l-114.583,0l0,-73.75l-86.667,0l0,-168.333l201.25,0l0,242.083Z" style="fill:#69b2ff;fill-opacity:0.5;"/>
        <path d="M139.002,460.859l86.667,73.75l-168.333,0l0,-242.083l81.667,0l0,168.333Zm-5,-66.667l0,-80.833l-67.5,0l0,80.833l67.5,0Zm0,119.583l0,-80.833l-67.5,0l0,80.833l67.5,0Z" style="fill:#e5fcff;fill-opacity:0.5;"/>
        <rect x="66.502" y="432.942" width="67.5" height="80.833" style="fill:#69b2ff;fill-opacity:0.5;"/>
        <path d="M225.669,534.609l-86.667,-73.75l86.667,0l0,73.75Z" style="fill:#e5fcff;fill-opacity:0.5;"/>
        <path d="M111.502,588.775l-54.167,0l0,-350.417l54.167,0l0,54.167l228.75,0l0,242.083l-228.75,0l0,54.167Z" style="fill:none;fill-rule:nonzero;stroke:#000;stroke-width:0.88px;"/>
        <rect x="66.502" y="432.942" width="67.5" height="80.833" style="fill:none;stroke:#000;stroke-width:0.88px;"/>
        <path d="M134.002,313.359l-67.5,0l0,80.833l67.5,0l0,-80.833Z" style="fill:none;stroke:#000;stroke-width:0.88px;"/>
        <path d="M139.002,292.525l0,168.333l86.667,73.75l0,-73.75l-86.667,0" style="fill:none;fill-rule:nonzero;stroke:#000;stroke-width:0.88px;"/>
        <path d="M111.502,534.609l-54.167,0" style="fill:none;fill-rule:nonzero;stroke:#000;stroke-width:0.88px;"/>
        <path d="M111.502,292.525l-54.167,0" style="fill:none;fill-rule:nonzero;stroke:#000;stroke-width:0.88px;"/>
        <path d="M117.752,681.275l13.75,-27.083l-2.917,-1.667c-0.833,-0.417 -1.25,-1.25 -1.667,-2.083c-0.417,-0.833 0,-2.083 0.417,-2.5c10.417,-16.25 30.833,-22.083 47.917,-13.333c17.083,8.333 24.583,28.333 17.917,46.25c-0.417,0.833 -0.833,1.25 -1.667,1.667c-1.25,0.417 -2.083,0.417 -2.917,0l-2.917,-1.25l-13.333,27.083l-54.583,-27.083Z" style="fill:#cfd4a2;"/>
        <path d="M185.669,681.275l-13.333,27.083" style="fill:none;fill-rule:nonzero;stroke:#000;stroke-width:0.88px;"/>
        <path d="M193.169,680.859c-0.417,0.833 -0.833,1.25 -1.667,1.667c-1.25,0.417 -2.083,0.417 -2.917,0" style="fill:none;fill-rule:nonzero;stroke:#000;stroke-width:0.88px;"/>
        <path d="M131.502,654.192l-2.917,-1.667" style="fill:none;fill-rule:nonzero;stroke:#000;stroke-width:0.88px;"/>
        <path d="M188.585,682.525l-2.917,-1.25" style="fill:none;fill-rule:nonzero;stroke:#000;stroke-width:0.88px;"/>
        <path d="M131.502,654.192c7.5,-15 25.833,-21.25 40.833,-13.75c15,7.5 20.833,25.833 13.333,40.833" style="fill:none;fill-rule:nonzero;stroke:#000;stroke-width:0.88px;"/>
        <path d="M127.335,647.942c10.417,-16.25 30.833,-22.083 47.917,-13.333c17.083,8.333 24.583,28.333 17.917,46.25" style="fill:none;fill-rule:nonzero;stroke:#000;stroke-width:0.88px;"/>
        <path d="M117.752,681.275l13.75,-27.083" style="fill:none;fill-rule:nonzero;stroke:#000;stroke-width:0.88px;"/>
        <path d="M172.335,708.359l-54.583,-27.083" style="fill:none;fill-rule:nonzero;stroke:#000;stroke-width:0.88px;"/>
        <path d="M128.585,652.525c-0.833,-0.417 -1.25,-1.25 -1.667,-2.083c-0.417,-0.833 0,-2.083 0.417,-2.5" style="fill:none;fill-rule:nonzero;stroke:#000;stroke-width:0.88px;"/>
        <path d="M57.335,750.442l80.833,0l0,-161.667l-80.833,0l0,161.667Z" style="fill:#ddb682;stroke:#000;stroke-width:0.88px;"/>
        <path d="M553.169,1074.609l-158.75,0c-0.833,0 -1.667,0.833 -1.667,2.083l0,63.333c0,0.417 0.417,0.833 0.833,0.833l160.417,0c0.417,0 0.417,-0.417 0.417,-0.833l0,-63.333c0,-1.25 -0.417,-2.083 -1.25,-2.083Z" style="fill:#f7f7f7;stroke:#000;stroke-width:1.68px;"/>
        <path d="M429.002,1127.942l0.417,0" style="fill:none;fill-rule:nonzero;stroke:#000;stroke-width:0.34px;"/>
        <path d="M436.502,1122.525l27.917,0c3.333,0 5.417,-2.083 5.417,-5.833l0,-27.917c0,-4.167 -2.083,-5.833 -5.417,-5.833l-58.333,0c-3.333,0 -5,1.667 -5,5.833l0,27.917c0,3.75 1.667,5.833 5,5.833l21.25,0" style="fill:none;fill-rule:nonzero;stroke:#000;stroke-width:0.34px;"/>
        <path d="M426.085,1127.525l-0.833,0l0,5l3.75,0l0,-5l-2.083,0" style="fill:none;fill-rule:nonzero;stroke:#000;stroke-width:0.34px;"/>
        <path d="M434.002,1130.025l0,-28.75c0,-0.833 0.417,-1.25 1.25,-1.25c0.833,0 1.25,0.417 1.25,1.25c0.417,9.583 0.417,19.167 0.417,28.75c0,0.417 0,0.833 -0.417,0.833c-0.417,0.417 -0.833,0.417 -1.25,0.417c-0.417,0 -0.417,0 -0.833,-0.417c-0.417,0 -0.417,-0.417 -0.417,-0.833Z" style="fill:none;fill-rule:nonzero;stroke:#000;stroke-width:0.34px;"/>
        <path d="M429.002,1132.109l0.417,0" style="fill:none;fill-rule:nonzero;stroke:#000;stroke-width:0.34px;"/>
        <path d="M434.002,1109.192c-1.25,0.417 -2.083,1.667 -2.083,2.917c0,1.25 0.833,2.5 2.083,2.917" style="fill:none;fill-rule:nonzero;stroke:#000;stroke-width:0.34px;"/>
        <path d="M434.002,1126.692c-1.667,0.417 -2.5,2.083 -2.083,3.75c0.417,1.667 1.667,2.917 3.333,2.917c1.667,0 3.333,-0.833 3.75,-2.917c0.417,-1.667 -0.417,-2.917 -2.083,-3.75" style="fill:none;fill-rule:nonzero;stroke:#000;stroke-width:0.34px;"/>
        <path d="M436.919,1115.025c0.833,-0.833 1.667,-1.667 1.667,-2.917c0,-1.25 -0.833,-2.5 -1.667,-2.917" style="fill:none;fill-rule:nonzero;stroke:#000;stroke-width:0.34px;"/>
        <path d="M433.169,1132.942l-3.75,0l0,-5.833l3.75,0" style="fill:none;fill-rule:nonzero;stroke:#000;stroke-width:0.34px;"/>
        <path d="M426.919,1128.775l0,-8.333c0,0 0,-0.417 -0.417,-0.417c-0.417,0 -0.417,0.417 -0.417,0.417l0,8.333" style="fill:none;fill-rule:nonzero;stroke:#000;stroke-width:0.34px;"/>
        <path d="M426.919,1122.525l7.083,0" style="fill:none;fill-rule:nonzero;stroke:#000;stroke-width:0.34px;"/>
        <path d="M513.585,1122.525l27.5,0c3.75,0 5.417,-2.083 5.417,-5.833l0,-27.917c0,-4.167 -1.667,-5.833 -5.417,-5.833l-58.333,0c-3.333,0 -5,1.667 -5,5.833l0,27.917c0,3.75 1.667,5.833 5,5.833l21.25,0" style="fill:none;fill-rule:nonzero;stroke:#000;stroke-width:0.34px;"/>
        <path d="M505.669,1127.942l0.417,0" style="fill:none;fill-rule:nonzero;stroke:#000;stroke-width:0.34px;"/>
        <path d="M502.752,1127.525l-0.833,0l0,5l3.75,0l0,-5l-1.667,0" style="fill:none;fill-rule:nonzero;stroke:#000;stroke-width:0.34px;"/>
        <path d="M510.669,1130.025l0,-28.75c0,-0.833 0.417,-1.25 1.25,-1.25c1.25,0 1.667,0.417 1.667,1.25l0,28.75c0,0.417 0,0.833 -0.417,0.833c-0.417,0.417 -0.417,0.417 -0.833,0.417c-0.417,0 -0.833,0 -1.25,-0.417c0,0 -0.417,-0.417 -0.417,-0.833Z" style="fill:none;fill-rule:nonzero;stroke:#000;stroke-width:0.34px;"/>
        <path d="M505.669,1132.109l0.417,0" style="fill:none;fill-rule:nonzero;stroke:#000;stroke-width:0.34px;"/>
        <path d="M510.669,1109.192c-1.25,0.417 -2.083,1.667 -2.083,2.917c0,1.25 0.833,2.5 2.083,2.917" style="fill:none;fill-rule:nonzero;stroke:#000;stroke-width:0.34px;"/>
        <path d="M510.669,1126.692c-1.667,0.417 -2.5,2.083 -2.083,3.75c0.417,1.667 1.667,2.917 3.75,2.917c1.667,0 2.917,-0.833 3.333,-2.917c0.417,-1.667 -0.417,-2.917 -2.083,-3.75" style="fill:none;fill-rule:nonzero;stroke:#000;stroke-width:0.34px;"/>
        <path d="M513.585,1115.025c1.25,-0.833 1.667,-1.667 1.667,-2.917c0,-1.25 -0.417,-2.5 -1.667,-2.917" style="fill:none;fill-rule:nonzero;stroke:#000;stroke-width:0.34px;"/>
        <path d="M510.252,1132.942l-4.167,0l0,-5.833l3.75,0" style="fill:none;fill-rule:nonzero;stroke:#000;stroke-width:0.34px;"/>
        <path d="M504.002,1128.775l0,-8.333l-0.417,-0.417l-0.417,0l-0.417,0.417l0,8.333" style="fill:none;fill-rule:nonzero;stroke:#000;stroke-width:0.34px;"/>
        <path d="M504.002,1122.525l6.667,0" style="fill:none;fill-rule:nonzero;stroke:#000;stroke-width:0.34px;"/>
        <rect x="258.169" y="804.192" width="65.833" height="33.75" style="fill:#ddb682;stroke:#000;stroke-width:0.88px;"/>
        <path d="M892.335,184.609l-100.833,0l0,85l-47.083,36.25l147.917,0l0,-121.25Zm-83.75,20.833l70.417,0l0,75l-70.417,0l0,-75Z" style="fill:#e5fffe;fill-opacity:0.5;"/>
        <path d="M744.419,269.609l47.083,0l0,-85l-181.667,0l0,121.25l134.583,0l0,-36.25Z" style="fill:#bedcff;"/>
        <rect x="808.585" y="205.442" width="70.417" height="75" style="fill:#bedcff;"/>
        <path d="M744.419,269.609l0,36.25l47.083,-36.25l-47.083,0Z" style="fill:#e5fffe;fill-opacity:0.5;"/>
        <path d="M609.835,305.859l282.5,0l0,-121.25l-282.5,0l0,121.25Z" style="fill:none;stroke:#000;stroke-width:0.88px;"/>
        <path d="M791.502,184.609l0,85l-47.083,36.25l0,-36.25l47.083,0" style="fill:none;fill-rule:nonzero;stroke:#000;stroke-width:0.88px;"/>
        <path d="M808.585,280.442l70.417,0l0,-75l-70.417,0l0,75Z" style="fill:none;stroke:#000;stroke-width:0.88px;"/>
        <path d="M956.502,275.859l13.75,27.083l-2.917,1.667c-0.833,0.417 -1.667,1.25 -1.667,2.083c-0.417,0.833 0,2.083 0.417,2.917c10,15.833 30.833,21.667 47.917,12.917c16.667,-8.333 24.583,-28.333 17.917,-45.833c-0.417,-1.25 -1.25,-1.667 -2.083,-2.083c-0.833,-0.417 -1.667,-0.417 -2.5,0l-2.917,1.25l-13.75,-27.083l-54.167,27.083Z" style="fill:#cfd4a2;"/>
        <path d="M1024.419,275.859l-13.75,-27.083" style="fill:none;fill-rule:nonzero;stroke:#000;stroke-width:0.88px;"/>
        <path d="M1031.919,276.692c-0.417,-1.25 -1.25,-1.667 -2.083,-2.083c-0.833,-0.417 -1.667,-0.417 -2.5,0" style="fill:none;fill-rule:nonzero;stroke:#000;stroke-width:0.88px;"/>
        <path d="M970.252,302.942l-2.917,1.667" style="fill:none;fill-rule:nonzero;stroke:#000;stroke-width:0.88px;"/>
        <path d="M1027.335,274.609l-2.917,1.25" style="fill:none;fill-rule:nonzero;stroke:#000;stroke-width:0.88px;"/>
        <path d="M970.252,302.942c7.5,15 25.417,21.25 40.417,13.75c15,-7.5 21.25,-25.833 13.75,-40.833" style="fill:none;fill-rule:nonzero;stroke:#000;stroke-width:0.88px;"/>
        <path d="M966.085,309.609c10,15.833 30.833,21.667 47.917,12.917c16.667,-8.333 24.583,-28.333 17.917,-45.833" style="fill:none;fill-rule:nonzero;stroke:#000;stroke-width:0.88px;"/>
        <path d="M956.502,275.859l13.75,27.083" style="fill:none;fill-rule:nonzero;stroke:#000;stroke-width:0.88px;"/>
        <path d="M1010.669,248.775l-54.167,27.083" style="fill:none;fill-rule:nonzero;stroke:#000;stroke-width:0.88px;"/>
        <path d="M967.335,304.609c-0.833,0.417 -1.667,1.25 -1.667,2.083c-0.417,0.833 0,2.083 0.417,2.917" style="fill:none;fill-rule:nonzero;stroke:#000;stroke-width:0.88px;"/>
        <rect x="892.335" y="184.609" width="161.667" height="80.833" style="fill:#ddb682;stroke:#000;stroke-width:0.88px;"/>
        <path d="M1067.752,1154.192l-101.25,0l0,-85l-46.667,-36.25l147.917,0l0,121.25Zm-83.75,-20.833l70,0l0,-75l-70,0l0,75Z" style="fill:#e5fffe;fill-opacity:0.5;"/>
        <path d="M919.835,1069.192l46.667,0l0,85l-181.667,0l0,-121.25l135,0l0,36.25Z" style="fill:#bedcff;"/>
        <rect x="984.002" y="1058.359" width="70" height="75" style="fill:#bedcff;"/>
        <path d="M919.835,1069.192l0,-36.25l46.667,36.25l-46.667,0Z" style="fill:#e5fffe;fill-opacity:0.5;"/>
        <path d="M1067.752,1032.942l-282.917,0l0,121.25l282.917,0l0,-121.25Z" style="fill:none;stroke:#000;stroke-width:0.88px;"/>
        <path d="M966.502,1154.192l0,-85l-46.667,-36.25l0,36.25l46.667,0" style="fill:none;fill-rule:nonzero;stroke:#000;stroke-width:0.88px;"/>
        <path d="M1054.002,1058.359l-70,0l0,75l70,0l0,-75Z" style="fill:none;stroke:#000;stroke-width:0.88px;"/>
        <path d="M1131.502,1061.692l13.75,-27.083l-2.917,-1.25c-0.833,-0.833 -1.25,-1.25 -1.667,-2.5c-0.417,-0.833 0,-1.667 0.417,-2.5c10,-16.25 30.833,-21.667 47.917,-13.333c17.083,8.333 24.583,28.333 17.917,46.25c-0.417,0.833 -0.833,1.667 -1.667,2.083c-1.25,0 -2.083,0 -2.917,-0.417l-2.917,-1.25l-13.333,27.083l-54.583,-27.083Z" style="fill:#cfd4a2;"/>
        <path d="M1199.419,1061.692l-13.333,27.083" style="fill:none;fill-rule:nonzero;stroke:#000;stroke-width:0.88px;"/>
        <path d="M1206.919,1061.275c-0.417,0.833 -0.833,1.667 -1.667,2.083c-1.25,0 -2.083,0 -2.917,-0.417" style="fill:none;fill-rule:nonzero;stroke:#000;stroke-width:0.88px;"/>
        <path d="M1145.252,1034.609l-2.917,-1.25" style="fill:none;fill-rule:nonzero;stroke:#000;stroke-width:0.88px;"/>
        <path d="M1202.335,1062.942l-2.917,-1.25" style="fill:none;fill-rule:nonzero;stroke:#000;stroke-width:0.88px;"/>
        <path d="M1145.252,1034.609c7.5,-15 25.833,-21.25 40.833,-13.75c15,7.5 20.833,25.833 13.333,40.833" style="fill:none;fill-rule:nonzero;stroke:#000;stroke-width:0.88px;"/>
        <path d="M1141.085,1028.359c10,-16.25 30.833,-21.667 47.917,-13.333c17.083,8.333 24.583,28.333 17.917,46.25" style="fill:none;fill-rule:nonzero;stroke:#000;stroke-width:0.88px;"/>
        <path d="M1131.502,1061.692l13.75,-27.083" style="fill:none;fill-rule:nonzero;stroke:#000;stroke-width:0.88px;"/>
        <path d="M1186.085,1088.775l-54.583,-27.083" style="fill:none;fill-rule:nonzero;stroke:#000;stroke-width:0.88px;"/>
        <path d="M1142.335,1033.359c-0.833,-0.833 -1.25,-1.25 -1.667,-2.5c-0.417,-0.833 0,-1.667 0.417,-2.5" style="fill:none;fill-rule:nonzero;stroke:#000;stroke-width:0.88px;"/>
        <rect x="1067.752" y="1073.359" width="168.333" height="80.833" style="fill:#ddb682;stroke:#000;stroke-width:0.88px;"/>
        <rect x="554.419" y="1074.609" width="35" height="66.25" style="fill:#ddb682;stroke:#000;stroke-width:0.88px;"/>
        <rect x="357.752" y="1074.609" width="35" height="66.25" style="fill:#ddb682;stroke:#000;stroke-width:0.88px;"/>
        <path d="M589.419,1194.609l20.417,-20m-20.417,-3.75l20.417,-20m-20.417,-3.75l20.417,-20.417m-20.417,-3.333l20.417,-20.417m-20.417,-3.333l20.417,-20.417m-20.417,-3.75l20.417,-20m-20.417,-3.75l18.333,-18.333m-16.25,-102.5l18.333,-18.333m-20.417,-3.75l20.417,-20m-20.417,-3.75l20.417,-20m-20.417,-3.75l20.417,-20m-20.417,-3.75l20.417,-20m-20.417,-3.75l20.417,-20.417m-20.417,-3.333l6.25,-6.25" style="fill:none;fill-rule:nonzero;stroke:#000;stroke-opacity:0.31;stroke-width:1.68px;"/>
        <path d="M589.419,1140.859l0,-107.5l20.417,0l0,161.25l-20.417,0m0,-390.417l0,126.667l20.417,0l0,-147.083l-20.417,0" style="fill:none;fill-rule:nonzero;stroke:#2b2b2b;stroke-width:3.37px;stroke-linecap:round;"/>
        <path d="M764.419,622.109l20.417,-20m-20.417,-3.75l20.417,-20m-20.417,-3.75l20.417,-20m-20.417,-3.75l9.583,-9.167" style="fill:none;fill-rule:nonzero;stroke:#000;stroke-opacity:0.31;stroke-width:1.68px;"/>
        <path d="M764.419,622.109l0,-80.417l20.417,0l0,80.417" style="fill:none;fill-rule:nonzero;stroke:#2b2b2b;stroke-width:3.37px;stroke-linecap:round;"/>
        <path d="M589.419,642.525l20.417,-20.417m-20.417,-3.333l20.417,-20.417m-20.417,-3.333l20.417,-20.417m-20.417,-3.333l20.417,-20.417m-20.417,-3.75l20.417,-20m-20.417,-3.75l20.417,-20m-20.417,-3.75l20.417,-20m-20.417,-3.75l20.417,-20.417m-20.417,-3.333l20.417,-20.417m-20.417,-3.333l20.417,-20.417m-20.417,-3.333l20.417,-20.417m-20.417,-3.75l20.417,-20m-20.417,-3.75l20.417,-20m-20.417,-3.75l20.417,-20m-20.417,-3.75l20.417,-20m-20.417,-3.75l20.417,-20.417m-20.417,-3.333l20.417,-20.417m-20.417,-3.333l20.417,-20.417m-20.417,-3.75l20.417,-20m-20.417,-3.75l5.833,-5.417" style="fill:none;fill-rule:nonzero;stroke:#000;stroke-opacity:0.31;stroke-width:1.68px;"/>
        <path d="M589.419,642.525l0,-457.917m20.417,457.917l0,-457.917" style="fill:none;fill-rule:nonzero;stroke:#2b2b2b;stroke-width:3.37px;stroke-linecap:round;"/>
        <path d="M743.169,662.525l20,-20m-25.417,2.083l1.667,-2.083m-139.167,20l16.25,-15.833m-40,15.833l20,-20m-43.75,20l20,-20m-43.75,20l20,-20" style="fill:none;fill-rule:nonzero;stroke:#000;stroke-opacity:0.31;stroke-width:1.68px;"/>
        <path d="M529.002,642.525l60.417,0m-60.417,20l87.5,0l0,-20l-6.667,0m154.583,0l-26.667,0l0,20l26.667,0" style="fill:none;fill-rule:nonzero;stroke:#2b2b2b;stroke-width:3.37px;stroke-linecap:round;"/>
        <path d="M508.585,783.775l6.667,-6.667m12.5,-107.5l1.25,-1.25m-20.417,-3.333l20.417,-20.417" style="fill:none;fill-rule:nonzero;stroke:#000;stroke-opacity:0.31;stroke-width:1.68px;"/>
        <path d="M508.585,783.775l0,-6.667l20.417,0l0,6.667m0,-141.25l-20.417,0l0,27.083l20.417,0l0,-7.083" style="fill:none;fill-rule:nonzero;stroke:#2b2b2b;stroke-width:3.37px;stroke-linecap:round;"/>
        <path d="M764.419,1154.192l20.417,-20m-20.417,-3.75l20.417,-20m-20.417,-3.75l20.417,-20.417m-20.417,-3.333l20.417,-20.417m-20.417,-3.333l20.417,-20.417m-20.417,-3.75l20.417,-20m-20.417,-3.75l20.417,-20m-20.417,-3.75l20.417,-20m-20.417,-3.75l20.417,-20m-20.417,-3.75l20.417,-20.417m-20.417,-3.333l20.417,-20.417m-20.417,-3.333l20.417,-20.417m-20.417,-122.5l20.417,-20.417m-20.417,-3.333l20.417,-20.417m-20.417,-3.333l20.417,-20.417m-20.417,-3.75l20.417,-20m-20.417,-3.75l12.083,-11.667" style="fill:none;fill-rule:nonzero;stroke:#000;stroke-opacity:0.31;stroke-width:1.68px;"/>
        <path d="M764.419,662.525l0,87.917l20.417,0l0,-107.917m-20.417,511.667l0,-282.917l20.417,0l0,282.917" style="fill:none;fill-rule:nonzero;stroke:#2b2b2b;stroke-width:3.37px;stroke-linecap:round;"/>
        <path d="M357.752,804.192l-20,20m20,3.75l-20,20m20,3.75l-20,20.417m20,3.333l-20,20.417m20,3.333l-20,20.417m20,3.333l-20,20.417m20,3.75l-20,20m20,3.75l-20,20m20,3.75l-20,20m20,3.75l-20,20.417m20,3.333l-20,20.417m20,3.333l-20,20.417m20,3.333l-20,20.417m20,3.75l-20,20m20,3.75l-16.667,16.667" style="fill:none;fill-rule:nonzero;stroke:#000;stroke-opacity:0.5;stroke-width:1.68px;"/>
        <path d="M357.752,804.192l0,336.667" style="fill:none;fill-rule:nonzero;stroke:#2b2b2b;stroke-width:1.68px;stroke-linecap:round;"/>
        <path d="M581.085,804.192l8.333,-8.333m-32.083,8.333l20.417,-20.417m-44.167,20.417l20.417,-20.417m-44.167,20.417l20.417,-20.417m-44.167,20.417l20,-20.417m-43.75,20.417l20,-20.417m-43.75,20.417l20,-20.417m-43.75,20.417l20,-20.417m-44.167,20.417l20.417,-20.417m-44.167,20.417l20.417,-20.417m-44.167,20.417l20.417,-20.417m-44.167,20.417l20,-20.417m-43.75,20.417l20,-20.417m-43.75,20.417l20,-20.417m-34.167,10.417l10.417,-10.417m-115.417,20.417l2.5,-2.5m-26.25,2.5l20,-20.417m-43.75,20.417l20,-20.417m-43.75,20.417l20,-20.417m-44.167,20.417l20.417,-20.417" style="fill:none;fill-rule:nonzero;stroke:#000;stroke-opacity:0.31;stroke-width:1.68px;"/>
        <path d="M57.335,783.775l97.917,0l0,20.417l-73.333,0m242.083,0l-66.25,0l0,-20.417l250.833,0m-150.833,20.417l231.667,0m-60.417,-20.417l60.417,0" style="fill:none;fill-rule:nonzero;stroke:#2b2b2b;stroke-width:3.37px;stroke-linecap:round;"/>
        <path d="M979.002,642.525l20,-20.417m-44.167,20.417l20.417,-20.417m-44.167,20.417l20.417,-20.417m-44.167,20.417l20.417,-20.417m-44.167,20.417l20.417,-20.417m-44.167,20.417l20,-20.417m-43.75,20.417l20,-20.417m-43.75,20.417l20,-20.417m-44.167,20.417l20.417,-20.417m-44.167,20.417l20.417,-20.417" style="fill:none;fill-rule:nonzero;stroke:#000;stroke-opacity:0.31;stroke-width:1.68px;"/>
        <path d="M764.419,622.109l0,20.417m20.417,-20.417l215.417,0m-215.417,20.417l215.417,0" style="fill:none;fill-rule:nonzero;stroke:#2b2b2b;stroke-width:3.37px;stroke-linecap:round;"/>
        <path d="M1000.252,642.525l20,-20.417m-20,-3.333l16.667,-16.667" style="fill:none;fill-rule:nonzero;stroke:#000;stroke-opacity:0.31;stroke-width:1.68px;"/>
        <path d="M1000.252,642.525l20,0l0,-40.417m-20,20l0,-20" style="fill:none;fill-rule:nonzero;stroke:#2b2b2b;stroke-width:3.37px;stroke-linecap:round;"/>
        <path d="M1214.419,602.109l20.417,-20.417m-44.167,20.417l20.417,-20.417m-44.167,20.417l20,-20.417m-43.75,20.417l20,-20.417m-43.75,20.417l20,-20.417m-43.75,20.417l20,-20.417m-44.167,20.417l20.417,-20.417m-44.167,20.417l20.417,-20.417m-44.167,20.417l20.417,-20.417m-44.167,20.417l20,-20.417" style="fill:none;fill-rule:nonzero;stroke:#000;stroke-opacity:0.31;stroke-width:1.68px;"/>
        <path d="M1000.252,602.109l0,-20.417l235.833,0m-215.833,20.417l215.833,0" style="fill:none;fill-rule:nonzero;stroke:#2b2b2b;stroke-width:3.37px;stroke-linecap:round;"/>
        <path d="M589.419,1154.192l-532.083,0l0,40.417l532.083,0l0,-40.417Z" style="fill:#fff;fill-opacity:0.1;"/>
        <path d="M581.085,1194.609l8.333,-8.333m-32.083,8.333l32.083,-32.083m-55.833,32.083l40.417,-40.417m-64.167,40.417l40.417,-40.417m-64.167,40.417l40.417,-40.417m-64.167,40.417l40.417,-40.417m-64.167,40.417l40.417,-40.417m-64.167,40.417l40,-40.417m-64.167,40.417l40.417,-40.417m-64.167,40.417l40.417,-40.417m-64.167,40.417l40.417,-40.417m-64.167,40.417l40.417,-40.417m-64.167,40.417l40.417,-40.417m-64.167,40.417l40.417,-40.417m-64.167,40.417l40.417,-40.417m-64.583,40.417l40.417,-40.417m-64.167,40.417l40.417,-40.417m-64.167,40.417l40.417,-40.417m-64.167,40.417l40.417,-40.417m-64.167,40.417l40.417,-40.417m-64.167,40.417l40.417,-40.417m-64.167,40.417l40.417,-40.417m-64.583,40.417l40.417,-40.417m-40.417,16.667l16.667,-16.667m515.417,1.25l-0.833,-1.25m0.833,25l-24.583,-25m16.25,40.417l-40,-40.417m16.25,40.417l-40.417,-40.417m16.667,40.417l-40.417,-40.417m16.667,40.417l-40.417,-40.417m16.667,40.417l-40.417,-40.417m16.667,40.417l-40.417,-40.417m16.667,40.417l-40.417,-40.417m16.667,40.417l-40.417,-40.417m16.25,40.417l-40.417,-40.417m16.667,40.417l-40.417,-40.417m16.667,40.417l-40.417,-40.417m16.667,40.417l-40.417,-40.417m16.667,40.417l-40.417,-40.417m16.667,40.417l-40.417,-40.417m16.667,40.417l-40.417,-40.417m16.25,40.417l-40.417,-40.417m16.667,40.417l-40.417,-40.417m16.667,40.417l-40.417,-40.417m16.667,40.417l-40.417,-40.417m16.667,40.417l-40.417,-40.417m16.667,40.417l-40.417,-40.417m16.667,40.417l-24.167,-23.75" style="fill:none;fill-rule:nonzero;stroke:#000;stroke-opacity:0.31;stroke-width:1.68px;"/>
        <path d="M57.335,1194.609l532.083,0" style="fill:none;fill-rule:nonzero;stroke:#2b2b2b;stroke-width:3.37px;stroke-linecap:round;"/>
        <rect x="16.919" y="184.609" width="40.417" height="1010" style="fill:#fff;fill-opacity:0.1;"/>
        <path d="M41.085,1194.609l16.25,-16.667m-40.417,16.667l40.417,-40.417m-40.417,16.667l40.417,-40.417m-40.417,16.667l40.417,-40.417m-40.417,16.667l40.417,-40.417m-40.417,16.667l40.417,-40.417m-40.417,16.25l40.417,-40.417m-40.417,16.667l40.417,-40.417m-40.417,16.667l40.417,-40.417m-40.417,16.667l40.417,-40.417m-40.417,16.667l40.417,-40.417m-40.417,16.667l40.417,-40.417m-40.417,16.667l40.417,-40.417m-40.417,16.25l40.417,-40m-40.417,16.25l40.417,-40.417m-40.417,16.667l40.417,-40.417m-40.417,16.667l40.417,-40.417m-40.417,16.667l40.417,-40.417m-40.417,16.667l40.417,-40.417m-40.417,16.667l40.417,-40.417m-40.417,16.667l40.417,-40.417m-40.417,16.25l40.417,-40.417m-40.417,16.667l40.417,-40.417m-40.417,16.667l40.417,-40.417m-40.417,16.667l40.417,-40.417m-40.417,16.667l40.417,-40.417m-40.417,16.667l40.417,-40.417m-40.417,16.667l40.417,-40.417m-40.417,16.25l40.417,-40.417m-40.417,16.667l40.417,-40.417m-40.417,16.667l40.417,-40.417m-40.417,16.667l40.417,-40.417m-40.417,16.667l40.417,-40.417m-40.417,16.667l40.417,-40.417m-40.417,16.667l40.417,-40.417m-40.417,16.25l40.417,-40.417m-40.417,16.667l40.417,-40.417m-40.417,16.667l40.417,-40.417m-40.417,16.667l40.417,-40.417m-40.417,16.667l40.417,-40.417m-40.417,16.667l40.417,-40.417m-40.417,16.667l40.417,-40.417m-40.417,16.25l34.167,-33.75m-34.167,10l10.417,-10m30,2.917l-2.917,-2.917m2.917,26.667l-26.667,-26.667m26.667,50.417l-40.417,-40.417m40.417,64.167l-40.417,-40.417m40.417,64.583l-40.417,-40.417m40.417,64.167l-40.417,-40.417m40.417,64.167l-40.417,-40.417m40.417,64.167l-40.417,-40.417m40.417,64.167l-40.417,-40.417m40.417,64.167l-40.417,-40.417m40.417,64.167l-40.417,-40.417m40.417,64.583l-40.417,-40.417m40.417,64.167l-40.417,-40.417m40.417,64.167l-40.417,-40.417m40.417,64.167l-40.417,-40.417m40.417,64.167l-40.417,-40.417m40.417,64.167l-40.417,-40.417m40.417,64.167l-40.417,-40.417m40.417,64.583l-40.417,-40.417m40.417,64.167l-40.417,-40.417m40.417,64.167l-40.417,-40.417m40.417,64.167l-40.417,-40.417m40.417,64.167l-40.417,-40.417m40.417,64.167l-40.417,-40.417m40.417,64.167l-40.417,-40.417m40.417,64.167l-40.417,-40m40.417,64.167l-40.417,-40.417m40.417,64.167l-40.417,-40.417m40.417,64.167l-40.417,-40.417m40.417,64.167l-40.417,-40.417m40.417,64.167l-40.417,-40.417m40.417,64.167l-40.417,-40.417m40.417,64.167l-40.417,-40.417m40.417,64.583l-40.417,-40.417m40.417,64.167l-40.417,-40.417m40.417,64.167l-40.417,-40.417m40.417,64.167l-40.417,-40.417m40.417,64.167l-40.417,-40.417m40.417,64.167l-40.417,-40.417m40.417,64.167l-40.417,-40.417m40.417,64.583l-40.417,-40.417m40.417,64.167l-40.417,-40.417m40.417,64.167l-40.417,-40.417m24.167,47.5l-24.167,-23.75" style="fill:none;fill-rule:nonzero;stroke:#000;stroke-opacity:0.31;stroke-width:1.68px;"/>
        <path d="M16.919,184.609l0,1010l40.417,0m0,-1010l0,599.167" style="fill:none;fill-rule:nonzero;stroke:#2b2b2b;stroke-width:3.37px;stroke-linecap:round;"/>
        <rect x="764.419" y="1154.192" width="471.667" height="40.417" style="fill:#fff;fill-opacity:0.1;"/>
        <path d="M1216.919,1194.609l19.167,-18.75m-42.917,18.75l40.417,-40.417m-64.167,40.417l40.417,-40.417m-64.167,40.417l40.417,-40.417m-64.583,40.417l40.417,-40.417m-64.167,40.417l40.417,-40.417m-64.167,40.417l40.417,-40.417m-64.167,40.417l40.417,-40.417m-64.167,40.417l40.417,-40.417m-64.167,40.417l40.417,-40.417m-64.167,40.417l40.417,-40.417m-64.167,40.417l40,-40.417m-64.167,40.417l40.417,-40.417m-64.167,40.417l40.417,-40.417m-64.167,40.417l40.417,-40.417m-64.167,40.417l40.417,-40.417m-64.167,40.417l40.417,-40.417m-64.167,40.417l40.417,-40.417m-64.167,40.417l40.417,-40.417m-64.583,40.417l40.417,-40.417m-40.417,16.667l16.667,-16.667m455,11.667l-12.083,-11.667m12.083,35.833l-35.833,-35.833m16.667,40.417l-40.417,-40.417m16.667,40.417l-40.417,-40.417m16.667,40.417l-40.417,-40.417m16.667,40.417l-40.417,-40.417m16.25,40.417l-40,-40.417m16.25,40.417l-40.417,-40.417m16.667,40.417l-40.417,-40.417m16.667,40.417l-40.417,-40.417m16.667,40.417l-40.417,-40.417m16.667,40.417l-40.417,-40.417m16.667,40.417l-40.417,-40.417m16.667,40.417l-40.417,-40.417m16.25,40.417l-40.417,-40.417m16.667,40.417l-40.417,-40.417m16.667,40.417l-40.417,-40.417m16.667,40.417l-40.417,-40.417m16.667,40.417l-40.417,-40.417m16.667,40.417l-40.417,-40.417m16.667,40.417l-24.167,-23.75" style="fill:none;fill-rule:nonzero;stroke:#000;stroke-opacity:0.31;stroke-width:1.68px;"/>
        <path d="M764.419,1154.192l0,40.417l471.667,0m-451.25,-40.417l451.25,0" style="fill:none;fill-rule:nonzero;stroke:#2b2b2b;stroke-width:3.37px;stroke-linecap:round;"/>
        <rect x="1236.085" y="184.609" width="40.417" height="1010" style="fill:#fff;fill-opacity:0.1;"/>
        <path d="M1259.835,1194.609l16.667,-16.667m-40.417,16.667l40.417,-40.417m-40.417,16.667l40.417,-40.417m-40.417,16.667l40.417,-40.417m-40.417,16.667l40.417,-40.417m-40.417,16.25l40.417,-40m-40.417,16.25l40.417,-40.417m-40.417,16.667l40.417,-40.417m-40.417,16.667l40.417,-40.417m-40.417,16.667l40.417,-40.417m-40.417,16.667l40.417,-40.417m-40.417,16.667l40.417,-40.417m-40.417,16.667l40.417,-40.417m-40.417,16.25l40.417,-40.417m-40.417,16.667l40.417,-40.417m-40.417,16.667l40.417,-40.417m-40.417,16.667l40.417,-40.417m-40.417,16.667l40.417,-40.417m-40.417,16.667l40.417,-40.417m-40.417,16.667l40.417,-40.417m-40.417,16.25l40.417,-40.417m-40.417,16.667l40.417,-40.417m-40.417,16.667l40.417,-40.417m-40.417,16.667l40.417,-40.417m-40.417,16.667l40.417,-40.417m-40.417,16.667l40.417,-40.417m-40.417,16.667l40.417,-40.417m-40.417,16.667l40.417,-40.833m-40.417,16.667l40.417,-40.417m-40.417,16.667l40.417,-40.417m-40.417,16.667l40.417,-40.417m-40.417,16.667l40.417,-40.417m-40.417,16.667l40.417,-40.417m-40.417,16.667l40.417,-40.417m-40.417,16.667l40.417,-40.417m-40.417,16.25l40.417,-40.417m-40.417,16.667l40.417,-40.417m-40.417,16.667l40.417,-40.417m-40.417,16.667l40.417,-40.417m-40.417,16.667l40.417,-40.417m-40.417,16.667l40.417,-40.417m-40.417,16.667l40.417,-40.417m-40.417,16.25l33.75,-33.75m-33.75,10l10,-10m30.417,2.917l-3.333,-2.917m3.333,26.667l-27.083,-26.667m27.083,50.417l-40.417,-40.417m40.417,64.583l-40.417,-40.417m40.417,64.167l-40.417,-40.417m40.417,64.167l-40.417,-40.417m40.417,64.167l-40.417,-40.417m40.417,64.167l-40.417,-40.417m40.417,64.167l-40.417,-40.417m40.417,64.167l-40.417,-40.417m40.417,64.583l-40.417,-40.833m40.417,64.583l-40.417,-40.417m40.417,64.167l-40.417,-40.417m40.417,64.167l-40.417,-40.417m40.417,64.167l-40.417,-40.417m40.417,64.167l-40.417,-40.417m40.417,64.167l-40.417,-40.417m40.417,64.167l-40.417,-40.417m40.417,64.583l-40.417,-40.417m40.417,64.167l-40.417,-40.417m40.417,64.167l-40.417,-40.417m40.417,64.167l-40.417,-40.417m40.417,64.167l-40.417,-40.417m40.417,64.167l-40.417,-40.417m40.417,64.167l-40.417,-40.417m40.417,64.583l-40.417,-40.417m40.417,64.167l-40.417,-40.417m40.417,64.167l-40.417,-40.417m40.417,64.167l-40.417,-40.417m40.417,64.167l-40.417,-40.417m40.417,64.167l-40.417,-40.417m40.417,64.167l-40.417,-40.417m40.417,64.583l-40.417,-40.417m40.417,64.167l-40.417,-40.417m40.417,64.167l-40.417,-40.417m40.417,64.167l-40.417,-40.417m40.417,64.167l-40.417,-40.417m40.417,64.167l-40.417,-40.417m40.417,64.167l-40.417,-40.417m40.417,64.583l-40.417,-40.417m40.417,64.167l-40.417,-40.417m40.417,64.167l-40.417,-40.417m40.417,64.167l-40.417,-40.417m23.75,47.5l-23.75,-23.75" style="fill:none;fill-rule:nonzero;stroke:#000;stroke-opacity:0.31;stroke-width:1.68px;"/>
        <path d="M1236.085,581.692l0,-397.083m0,417.5l0,552.083m0,40.417l40.417,0l0,-1010" style="fill:none;fill-rule:nonzero;stroke:#2b2b2b;stroke-width:3.37px;stroke-linecap:round;"/>
        <rect x="16.919" y="144.192" width="1259.583" height="40.417" style="fill:#fff;fill-opacity:0.1;"/>
        <path d="M1255.252,184.609l21.25,-21.25m-45,21.25l40,-40.417m-64.167,40.417l40.417,-40.417m-64.167,40.417l40.417,-40.417m-64.167,40.417l40.417,-40.417m-64.167,40.417l40.417,-40.417m-64.167,40.417l40.417,-40.417m-64.167,40.417l40.417,-40.417m-64.167,40.417l40.417,-40.417m-64.583,40.417l40.417,-40.417m-64.167,40.417l40.417,-40.417m-64.167,40.417l40.417,-40.417m-64.167,40.417l40.417,-40.417m-64.167,40.417l40.417,-40.417m-64.167,40.417l40.417,-40.417m-64.167,40.417l40.417,-40.417m-64.583,40.417l40.417,-40.417m-64.167,40.417l40.417,-40.417m-64.167,40.417l40.417,-40.417m-64.167,40.417l40.417,-40.417m-64.167,40.417l40.417,-40.417m-64.167,40.417l40.417,-40.417m-64.167,40.417l40.417,-40.417m-64.583,40.417l40.417,-40.417m-64.167,40.417l40.417,-40.417m-64.167,40.417l40.417,-40.417m-64.167,40.417l40.417,-40.417m-64.167,40.417l40.417,-40.417m-64.167,40.417l40.417,-40.417m-64.167,40.417l40.417,-40.417m-64.167,40.417l40,-40.417m-64.167,40.417l40.417,-40.417m-64.167,40.417l40.417,-40.417m-64.167,40.417l40.417,-40.417m-64.167,40.417l40.417,-40.417m-64.167,40.417l40.417,-40.417m-64.167,40.417l40.417,-40.417m-64.167,40.417l40.417,-40.417m-64.583,40.417l40.417,-40.417m-64.167,40.417l40.417,-40.417m-64.167,40.417l40.417,-40.417m-64.167,40.417l40.417,-40.417m-64.167,40.417l40.417,-40.417m-64.167,40.417l40.417,-40.417m-64.167,40.417l40.417,-40.417m-64.583,40.417l40.417,-40.417m-64.167,40.417l40.417,-40.417m-64.167,40.417l40.417,-40.417m-64.167,40.417l40.417,-40.417m-64.167,40.417l40.417,-40.417m-64.167,40.417l40.417,-40.417m-64.167,40.417l40.417,-40.417m-64.583,40.417l40.417,-40.417m-40.417,16.667l16.667,-16.667m1242.917,14.167l-14.167,-14.167m14.167,37.917l-37.917,-37.917m16.667,40.417l-40.417,-40.417m16.667,40.417l-40.417,-40.417m16.25,40.417l-40.417,-40.417m16.667,40.417l-40.417,-40.417m16.667,40.417l-40.417,-40.417m16.667,40.417l-40.417,-40.417m16.667,40.417l-40.417,-40.417m16.667,40.417l-40.417,-40.417m16.667,40.417l-40.417,-40.417m16.25,40.417l-40.417,-40.417m16.667,40.417l-40.417,-40.417m16.667,40.417l-40.417,-40.417m16.667,40.417l-40.417,-40.417m16.667,40.417l-40.417,-40.417m16.667,40.417l-40.417,-40.417m16.667,40.417l-40.417,-40.417m16.25,40.417l-40.417,-40.417m16.667,40.417l-40.417,-40.417m16.667,40.417l-40.417,-40.417m16.667,40.417l-40.417,-40.417m16.667,40.417l-40.417,-40.417m16.667,40.417l-40.417,-40.417m16.667,40.417l-40.417,-40.417m16.25,40.417l-40,-40.417m16.25,40.417l-40.417,-40.417m16.667,40.417l-40.417,-40.417m16.667,40.417l-40.417,-40.417m16.667,40.417l-40.417,-40.417m16.667,40.417l-40.417,-40.417m16.667,40.417l-40.417,-40.417m16.667,40.417l-40.417,-40.417m16.25,40.417l-40.417,-40.417m16.667,40.417l-40.417,-40.417m16.667,40.417l-40.417,-40.417m16.667,40.417l-40.417,-40.417m16.667,40.417l-40.417,-40.417m16.667,40.417l-40.417,-40.417m16.667,40.417l-40.417,-40.417m16.25,40.417l-40.417,-40.417m16.667,40.417l-40.417,-40.417m16.667,40.417l-40.417,-40.417m16.667,40.417l-40.417,-40.417m16.667,40.417l-40.417,-40.417m16.667,40.417l-40.417,-40.417m16.667,40.417l-40.417,-40.417m16.25,40.417l-40.417,-40.417m16.667,40.417l-40.417,-40.417m16.667,40.417l-40.417,-40.417m16.667,40.417l-40.417,-40.417m16.667,40.417l-40.417,-40.417m16.667,40.417l-40.417,-40.417m16.667,40.417l-24.167,-23.75" style="fill:none;fill-rule:nonzero;stroke:#000;stroke-opacity:0.31;stroke-width:1.68px;"/>
        <path d="M16.919,184.609l0,-40.417l1259.583,0l0,40.417m-1219.167,0l532.083,0m20.417,0l626.25,0" style="fill:none;fill-rule:nonzero;stroke:#2b2b2b;stroke-width:3.37px;stroke-linecap:round;"/>
        <rect x="75.669" y="789.609" width="79.583" height="8.75" style="fill:#fff;stroke:#000;stroke-width:0.34px;"/>
        <rect x="155.252" y="788.359" width="4.167" height="11.25" style="fill:#f7f7f7;stroke:#000;stroke-width:1.68px;"/>
        <rect x="112.335" y="791.275" width="94.167" height="5.417" style="fill:#f7f7f7;stroke:#000;stroke-width:1.68px;"/>
        <path d="M159.419,788.359l94.167,0" style="fill:none;fill-rule:nonzero;stroke:#bcbcbc;stroke-width:0.34px;"/>
        <rect x="253.585" y="788.359" width="4.167" height="11.25" style="fill:#f7f7f7;stroke:#000;stroke-width:1.68px;"/>
        <path d="M159.419,799.609l94.167,0" style="fill:none;fill-rule:nonzero;stroke:#bcbcbc;stroke-width:0.34px;"/>
        <path d="M764.419,864.609l20.417,0" style="fill:none;fill-rule:nonzero;stroke:#000;stroke-width:0.34px;"/>
        <path d="M764.419,757.109l127.917,0" style="fill:none;fill-rule:nonzero;stroke:#000;stroke-width:0.34px;"/>
        <path d="M892.335,757.109c0,59.167 -47.917,107.5 -107.5,107.5" style="fill:none;fill-rule:nonzero;stroke:#000;stroke-width:0.34px;"/>
        <rect x="764.419" y="750.442" width="20.417" height="120.833" style="fill:none;fill-rule:nonzero;stroke:#000;stroke-width:0.34px;"/>
        <path d="M730.669,662.525l0,-20" style="fill:none;fill-rule:nonzero;stroke:#000;stroke-width:0.34px;"/>
        <path d="M623.169,662.525l0,-127.917" style="fill:none;fill-rule:nonzero;stroke:#000;stroke-width:0.34px;"/>
        <path d="M623.169,534.609c59.583,0 107.5,48.333 107.5,107.917" style="fill:none;fill-rule:nonzero;stroke:#000;stroke-width:0.34px;"/>
        <rect x="616.502" y="642.525" width="121.25" height="20" style="fill:none;fill-rule:nonzero;stroke:#000;stroke-width:0.34px;"/>
        <rect x="508.585" y="669.609" width="20.417" height="107.5" style="fill:none;fill-rule:nonzero;stroke:#000;stroke-width:0.34px;"/>
        <path d="M529.002,770.442l-114.583,0" style="fill:none;fill-rule:nonzero;stroke:#000;stroke-width:0.34px;"/>
        <path d="M508.585,676.275c-52.083,0 -94.167,42.083 -94.167,94.167" style="fill:none;fill-rule:nonzero;stroke:#000;stroke-width:0.34px;"/>
        <path d="M508.585,676.275l20.417,0" style="fill:none;fill-rule:nonzero;stroke:#000;stroke-width:0.34px;"/>
        <path d="M595.252,1112.942l0,-79.583l8.75,0l-0.417,79.583l-8.333,0Z" style="fill:#fff;stroke:#000;stroke-width:0.34px;"/>
        <path d="M605.252,1029.192l-11.25,0l0,4.167l11.25,0l0,-4.167Z" style="fill:#f7f7f7;stroke:#000;stroke-width:1.68px;"/>
        <path d="M602.335,982.109l-5.417,0l0,94.167l5.417,0l0,-94.167Z" style="fill:#f7f7f7;stroke:#000;stroke-width:1.68px;"/>
        <path d="M605.252,1029.192l0,-94.167" style="fill:none;fill-rule:nonzero;stroke:#bcbcbc;stroke-width:0.34px;"/>
        <path d="M605.252,930.859l-11.25,0l0,4.167l11.25,0l0,-4.167Z" style="fill:#f7f7f7;stroke:#000;stroke-width:1.68px;"/>
        <path d="M594.002,1029.192l0,-94.167" style="fill:none;fill-rule:nonzero;stroke:#bcbcbc;stroke-width:0.34px;"/>
        <path d="M513.169,1194.609l2.083,0m2.083,0l4.583,0m2.083,0l4.167,0m2.083,0l4.167,0m2.083,0l4.583,0m2.083,0l4.167,0m2.083,0l4.583,0m2.083,0l4.167,0m2.083,0l4.167,0m2.083,0l4.583,0m2.083,0l4.167,0m2.083,0l4.167,0m2.5,0l4.167,0m2.083,0l4.167,0m2.083,0l4.583,0m2.083,0l4.167,0m2.083,0l4.167,0m2.5,0l4.167,0m2.083,0l4.167,0m2.083,0l4.583,0m2.083,0l4.167,0m2.083,0l4.167,0m2.5,0l4.167,0m2.083,0l4.167,0m2.083,0l4.583,0m2.083,0l4.167,0m2.083,0l4.167,0m2.5,0l4.167,0m2.083,0l4.167,0m2.083,0l4.583,0m2.083,0l4.167,0m2.083,0l4.167,0m2.083,0l4.583,0m2.083,0l4.167,0m2.083,0l4.583,0m2.083,0l4.167,0m2.083,0l4.167,0m2.083,0l4.583,0m2.083,0l4.167,0m2.083,0l4.167,0m2.5,0l4.167,0m2.083,0l4.167,0m2.083,0l4.583,0" style="fill:none;fill-rule:nonzero;stroke:#a8a8a8;stroke-width:0.34px;stroke-linecap:round;"/>
        <rect x="470.669" y="912.525" width="114.583" height="2.5" style="fill:#f7f7f7;stroke:#000;stroke-width:0.34px;"/>
        <path d="M377.752,915.025l0.417,0m0.417,0l0.833,0m0.417,0l0.833,0m0.417,0l0.833,0m0.417,0l0.833,0m0.417,0l0.833,0m0.417,0l0.833,0m0.417,0l0.833,0m0.417,0l0.833,0m0.417,0l0.833,0m0.417,0l0.833,0m0.417,0l0.833,0m0.417,0l0.833,0m0.417,0l0.833,0m0.417,0l0.833,0m0.417,0l0.833,0m0.417,0l0.833,0m0.417,0l0.833,0m0.417,0l0.833,0m0.417,0l0.833,0m0.417,0l0.833,0m0.417,0l0.833,0m0.417,0l0.833,0m0.417,0l0.833,0m0.417,0l0.833,0m0.417,0l0.833,0m0.417,0l0.833,0m0.417,0l0.833,0m0.417,0l0.833,0m0.417,0l0.833,0m0.417,0l0.833,0m0.417,0l0.833,0m0.417,0l0.833,0m0.417,0l0.833,0m0.417,0l0.833,0m0.417,0l0.833,0m0.417,0l0.833,0m0.417,0l0.833,0m0.417,0l0.833,0m0.417,0l0.833,0m0.417,0l0.833,0m0.417,0l0.833,0m0.417,0l0.833,0m0.417,0l0.833,0m0.417,0l0.833,0m0.417,0l0.833,0m0.417,0l0.833,0m0.417,0l0.833,0m0.417,0l0.833,0m0.417,0l0.833,0m0.417,0l0.833,0m0.417,0l0.833,0m0.417,0l0.833,0m0.417,0l0.833,0m0.417,0l0.833,0m0.417,0l0.833,0m0.417,0l0.833,0m0.417,0l0.833,0m0.417,0l0.833,0m0.417,0l0.833,0m0.417,0l0.833,0m0.417,0l0.833,0m0.417,0l0.833,0m0.417,0l0.833,0m0.417,0l0.833,0m0.417,0l0.833,0m0.417,0l0.833,0m0.417,0l0.833,0m0.417,0l0.833,0m0.417,0l0.833,0m0.417,0l0.833,0m0.417,0l0.833,0m0.417,0l0.833,0m0.417,0l0.833,0m0.417,0l0.833,0" style="fill:none;fill-rule:nonzero;stroke:#bcbcbc;stroke-width:0.34px;"/>
        <rect x="585.252" y="911.692" width="4.167" height="3.75" style="fill:#f7f7f7;stroke:#000;stroke-width:1.68px;"/>
        <path d="M470.669,912.525l-0.417,0m-0.417,0l-0.833,0m-0.417,0l-0.833,0m-0.417,0l-0.833,0m-0.417,0l-0.833,0m-0.417,0l-0.833,0m-0.417,0l-0.833,0m-0.417,0l-0.833,0m-0.417,0l-0.833,0m-0.417,0l-0.833,0m-0.417,0l-0.833,0m-0.417,0l-0.833,0m-0.417,0l-0.833,0m-0.417,0l-0.833,0m-0.417,0l-0.833,0m-0.417,0l-0.833,0m-0.417,0l-0.833,0m-0.417,0l-0.833,0m-0.417,0l-0.833,0m-0.417,0l-0.833,0m-0.417,0l-0.833,0m-0.417,0l-0.833,0m-0.417,0l-0.833,0m-0.417,0l-0.833,0m-0.417,0l-0.833,0m-0.417,0l-0.833,0m-0.417,0l-0.833,0m-0.417,0l-0.833,0m-0.417,0l-0.833,0m-0.417,0l-0.833,0m-0.417,0l-0.833,0m-0.417,0l-0.833,0m-0.417,0l-0.833,0m-0.417,0l-0.833,0m-0.417,0l-0.833,0m-0.417,0l-0.833,0m-0.417,0l-0.833,0m-0.417,0l-0.833,0m-0.417,0l-0.833,0m-0.417,0l-0.833,0m-0.417,0l-0.833,0m-0.417,0l-0.833,0m-0.417,0l-0.833,0m-0.417,0l-0.833,0m-0.417,0l-0.833,0m-0.417,0l-0.833,0m-0.417,0l-0.833,0m-0.417,0l-0.833,0m-0.417,0l-0.833,0m-0.417,0l-0.833,0m-0.417,0l-0.833,0m-0.417,0l-0.833,0m-0.417,0l-0.833,0m-0.417,0l-0.833,0m-0.417,0l-0.833,0m-0.417,0l-0.833,0m-0.417,0l-0.833,0m-0.417,0l-0.833,0m-0.417,0l-0.833,0m-0.417,0l-0.833,0m-0.417,0l-0.833,0m-0.417,0l-0.833,0m-0.417,0l-0.833,0m-0.417,0l-0.833,0m-0.417,0l-0.833,0m-0.417,0l-0.833,0m-0.417,0l-0.833,0m-0.417,0l-0.833,0m-0.417,0l-0.833,0m-0.417,0l-0.833,0m-0.417,0l-0.833,0m-0.417,0l-0.833,0m-0.417,0l-0.833,0m-0.417,0l-0.833,0m-0.417,0l-0.833,0m-0.417,0l-0.833,0m-0.417,0l-0.833,0m-0.417,0l-0.833,0" style="fill:none;fill-rule:nonzero;stroke:#bcbcbc;stroke-width:0.34px;"/>
        <path d="M436.085,977.109l-1.25,1.25l-2.083,-1.667l1.667,-1.667l1.667,2.083Z" style="fill:#f7f7f7;"/>
        <path d="M436.085,977.109l-1.25,1.25l-2.083,-1.667l1.667,-1.667" style="fill:none;fill-rule:nonzero;stroke:#000;stroke-width:0.34px;"/>
        <path d="M441.085,982.109l-67.083,-67.083l2.083,-1.667l67.083,67.083l-2.083,1.667Z" style="fill:#f7f7f7;stroke:#000;stroke-width:0.34px;"/>
        <path d="M438.169,975.442l1.25,-1.667l-2.083,-1.667l-1.25,1.25l2.083,2.083Z" style="fill:#f7f7f7;"/>
        <path d="M438.169,975.442l1.25,-1.667l-2.083,-1.667l-1.25,1.25" style="fill:none;fill-rule:nonzero;stroke:#000;stroke-width:0.34px;"/>
        <path d="M443.169,980.442c17.5,-18.333 27.5,-42.5 27.5,-67.917" style="fill:none;fill-rule:nonzero;stroke:#000;stroke-width:0.34px;"/>
        <rect x="361.919" y="912.525" width="12.083" height="2.5" style="fill:#f7f7f7;stroke:#000;stroke-width:0.34px;"/>
        <rect x="357.752" y="911.692" width="4.167" height="3.75" style="fill:#f7f7f7;stroke:#000;stroke-width:1.68px;"/>
    </g>
    <g id="anchorTop">
        <path d="M1419.002,144.192l-285.417,0" style="fill:none;fill-rule:nonzero;stroke:#f00;stroke-width:0.34px;"/>
        <path d="M1276.502,1.692l0,285" style="fill:none;fill-rule:nonzero;stroke:#f00;stroke-width:0.34px;"/>
    </g>
</svg>
