<?xml version="1.0" encoding="UTF-8" standalone="no"?>
<!DOCTYPE svg PUBLIC "-//W3C//DTD SVG 1.1//EN" "http://www.w3.org/Graphics/SVG/1.1/DTD/svg11.dtd">
<svg width="100%" height="100%" viewBox="0 0 1246 1063" version="1.1" xmlns="http://www.w3.org/2000/svg" xmlns:xlink="http://www.w3.org/1999/xlink" xml:space="preserve" xmlns:serif="http://www.serif.com/" style="fill-rule:evenodd;clip-rule:evenodd;stroke-miterlimit:10;">
    <g id="topAllR">
        <path d="M14.84,1048.15l0,-921.25l1104.17,0l0,921.25l-448.75,0l0,-35.42l-206.67,0l0,35.42l-448.75,0Z" style="fill:#fff;"/>
        <path d="M658.59,410.23l-70.83,0l0,8.75l-106.25,0l0,-8.75l-17.92,0l0,-247.92l195,0l0,247.92Z" style="fill:#e0e0e0;fill-opacity:0.25;stroke:#a8a8a8;stroke-width:0.3px;"/>
        <path d="M446.09,433.98l8.75,0l0,106.25l-8.75,0l0,5.83l-206.67,0l0,70.83l-189.17,0l0,-454.58l395.83,0l0,271.67Z" style="fill:#e0e0e0;fill-opacity:0.25;stroke:#a8a8a8;stroke-width:0.3px;"/>
        <path d="M688.17,676.07l-9.17,0l0,-106.25l9.17,0l0,-407.5l395.42,0l0,598.75l-395.42,0l0,-85Z" style="fill:#e0e0e0;fill-opacity:0.25;stroke:#a8a8a8;stroke-width:0.3px;"/>
        <path d="M256.92,634.4l0,-70.83l189.17,0l0,77.08l8.75,0l0,94.17l-8.75,0l0,277.92l-395.83,0l0,-378.33l206.67,0Z" style="fill:#e0e0e0;fill-opacity:0.25;stroke:#a8a8a8;stroke-width:0.3px;"/>
        <path d="M463.59,1012.73l2.08,0m2.08,0l3.75,0m1.67,0l3.75,0m2.08,0l3.75,0m1.67,0l3.75,0m2.08,0l3.75,0m1.67,0l3.75,0m2.08,0l3.75,0m1.67,0l3.75,0m2.08,0l3.75,0m1.67,0l3.75,0m2.08,0l3.75,0m1.67,0l3.75,0m2.08,0l3.75,0m1.67,0l3.75,0m2.08,0l3.75,0m1.67,0l3.75,0m2.08,0l3.75,0m1.67,0l3.75,0m2.08,0l3.75,0m1.67,0l3.75,0m2.08,0l3.75,0m1.67,0l3.75,0m2.08,0l3.75,0m1.67,0l3.75,0m2.08,0l3.75,0m1.67,0l3.75,0m2.08,0l3.75,0m1.67,0l3.75,0m2.08,0l3.75,0m1.67,0l3.75,0m2.08,0l3.75,0m1.67,0l3.75,0m2.08,0l3.75,0m1.67,0l3.75,0m2.08,0l3.75,0m1.67,0l5.83,0" style="fill:none;fill-rule:nonzero;stroke:#a8a8a8;stroke-width:0.3px;stroke-linecap:round;"/>
        <path d="M679,906.07l-8.75,0l0,106.67l-206.67,0l0,-277.92l-8.75,0l0,-94.17l8.75,0l0,-100.42l-8.75,0l0,-106.25l8.75,0l0,-6.25l17.92,0l0,-8.75l106.25,0l0,8.75l82.5,0l0,142.08l8.75,0l0,106.25l-8.75,0l0,135.83l8.75,0l0,94.17Z" style="fill:#e0e0e0;fill-opacity:0.25;stroke:#a8a8a8;stroke-width:0.3px;"/>
        <path d="M1083.59,778.57l0,212.5l-395.42,0l0,-85l-9.17,0l0,-94.17l9.17,0l0,-33.33l395.42,0Z" style="fill:#e0e0e0;fill-opacity:0.25;stroke:#a8a8a8;stroke-width:0.3px;"/>
        <path d="M688.17,1012.73l395.42,0l0,-21.67l-395.42,0l0,21.67Z" style="fill:#ddd;"/>
        <path d="M688.17,991.07l395.42,0" style="fill:none;fill-rule:nonzero;stroke:#2b2b2b;stroke-width:2.95px;stroke-linecap:round;"/>
        <g transform="matrix(1,0,0,1,-350.472019,301.336191)">
            <text x="569.38px" y="148.62px" style="font-family:'ArialMT', 'Arial', sans-serif;font-size:21.14px;fill:#2b2b2b;fill-opacity:0.99;">Pokoj</text>
            <g transform="matrix(21.144211,0,0,21.144211,637.153103,172.24176)">
            </g>
            <text x="555.28px" y="172.24px" style="font-family:'ArialMT', 'Arial', sans-serif;font-size:21.14px;fill:#2b2b2b;fill-opacity:0.99;">11.92 m²</text>
        </g>
        <g transform="matrix(1,0,0,1,144.582622,416.24797)">
            <text x="716.11px" y="184.91px" style="font-family:'ArialMT', 'Arial', sans-serif;font-size:21.14px;fill:#2b2b2b;fill-opacity:0.99;">Ložnice</text>
            <g transform="matrix(21.144211,0,0,21.144211,794.278786,208.52969)">
            </g>
            <text x="710.84px" y="208.53px" style="font-family:'ArialMT', 'Arial', sans-serif;font-size:21.14px;fill:#2b2b2b;fill-opacity:0.99;">17.05 m²</text>
        </g>
        <g transform="matrix(1,0,0,1,-341.367853,518.57855)">
            <text x="572.26px" y="217.22px" style="font-family:'ArialMT', 'Arial', sans-serif;font-size:21.14px;fill:#2b2b2b;fill-opacity:0.99;">Pokoj</text>
            <g transform="matrix(21.144211,0,0,21.144211,640.028103,240.84461)">
            </g>
            <text x="558.16px" y="240.84px" style="font-family:'ArialMT', 'Arial', sans-serif;font-size:21.14px;fill:#2b2b2b;fill-opacity:0.99;">11.74 m²</text>
        </g>
        <g transform="matrix(1,0,0,1,-108.536877,424.775784)">
            <text x="669.52px" y="187.6px" style="font-family:'ArialMT', 'Arial', sans-serif;font-size:21.14px;fill:#2b2b2b;fill-opacity:0.99;">Chodba</text>
            <text x="660.13px" y="211.22px" style="font-family:'ArialMT', 'Arial', sans-serif;font-size:21.14px;fill:#2b2b2b;fill-opacity:0.99;">horní část</text>
            <g transform="matrix(21.144211,0,0,21.144211,743.8463,234.844731)">
            </g>
            <text x="672.16px" y="234.84px" style="font-family:'ArialMT', 'Arial', sans-serif;font-size:21.14px;fill:#2b2b2b;fill-opacity:0.99;">8.99 m²</text>
        </g>
        <g transform="matrix(1,0,0,1,123.524095,597.714531)">
            <text x="704.18px" y="242.21px" style="font-family:'ArialMT', 'Arial', sans-serif;font-size:21.14px;fill:#2b2b2b;fill-opacity:0.99;">Koupelna</text>
            <g transform="matrix(21.144211,0,0,21.144211,784.698952,265.83492)">
            </g>
            <text x="713.02px" y="265.83px" style="font-family:'ArialMT', 'Arial', sans-serif;font-size:21.14px;fill:#2b2b2b;fill-opacity:0.99;">6.09 m²</text>
        </g>
        <g transform="matrix(1,0,0,1,-133.219815,136.356975)">
            <text x="623.1px" y="96.52px" style="font-family:'ArialMT', 'Arial', sans-serif;font-size:21.14px;fill:#2b2b2b;fill-opacity:0.99;">Prádelna</text>
            <g transform="matrix(21.144211,0,0,21.144211,701.262821,120.14306)">
            </g>
            <text x="629.58px" y="120.14px" style="font-family:'ArialMT', 'Arial', sans-serif;font-size:21.14px;fill:#2b2b2b;fill-opacity:0.99;">3.53 m²</text>
        </g>
        <path d="M50.25,1012.73l88.75,0l0,-75l40.83,-31.67l-129.58,0l0,106.67Zm73.33,-18.75l-61.67,0l0,-65.83l61.67,0l0,65.83Z" style="fill:#e5fffe;fill-opacity:0.5;"/>
        <path d="M179.84,937.73l-40.83,0l0,75l159.17,0l0,-106.67l-118.33,0l0,31.67Z" style="fill:#bedcff;"/>
        <rect x="61.92" y="928.15" width="61.67" height="65.83" style="fill:#bedcff;"/>
        <path d="M179.84,937.73l0,-31.67l-40.83,31.67l40.83,0Z" style="fill:#e5fffe;fill-opacity:0.5;"/>
        <path d="M298.17,906.07l-247.92,0l0,106.67l247.92,0l0,-106.67Z" style="fill:none;stroke:#000;stroke-width:0.77px;"/>
        <path d="M139,1012.73l0,-75l40.83,-31.67l0,31.67l-40.83,0" style="fill:none;fill-rule:nonzero;stroke:#000;stroke-width:0.77px;"/>
        <path d="M123.59,928.15l-61.67,0l0,65.83l61.67,0l0,-65.83Z" style="fill:none;stroke:#000;stroke-width:0.77px;"/>
        <path d="M131.5,850.23l23.75,-12.08l1.25,2.5c0.42,0.83 0.83,1.25 1.67,1.67c0.83,0 1.67,0 2.5,-0.42c14.17,-9.17 19.17,-27.08 11.67,-42.08c-7.5,-15 -25,-21.67 -40.42,-15.83c-0.83,0.42 -1.67,0.83 -1.67,1.67c-0.42,0.83 -0.42,1.67 0,2.5l1.25,2.5l-23.75,11.67l23.75,47.92Z" style="fill:#cfd4a2;"/>
        <path d="M131.5,790.65l-23.75,11.67" style="fill:none;fill-rule:nonzero;stroke:#000;stroke-width:0.77px;"/>
        <path d="M131.92,783.98c-0.83,0.42 -1.67,0.83 -1.67,1.67c-0.42,0.83 -0.42,1.67 0,2.5" style="fill:none;fill-rule:nonzero;stroke:#000;stroke-width:0.77px;"/>
        <path d="M155.25,838.15l1.25,2.5" style="fill:none;fill-rule:nonzero;stroke:#000;stroke-width:0.77px;"/>
        <path d="M130.25,788.15l1.25,2.5" style="fill:none;fill-rule:nonzero;stroke:#000;stroke-width:0.77px;"/>
        <path d="M155.25,838.15c12.92,-6.67 18.33,-22.5 11.67,-35.83c-6.25,-12.92 -22.5,-18.33 -35.42,-11.67" style="fill:none;fill-rule:nonzero;stroke:#000;stroke-width:0.77px;"/>
        <path d="M160.67,841.9c14.17,-9.17 19.17,-27.08 11.67,-42.08c-7.5,-15 -25,-21.67 -40.42,-15.83" style="fill:none;fill-rule:nonzero;stroke:#000;stroke-width:0.77px;"/>
        <path d="M131.5,850.23l23.75,-12.08" style="fill:none;fill-rule:nonzero;stroke:#000;stroke-width:0.77px;"/>
        <path d="M107.75,802.32l23.75,47.92" style="fill:none;fill-rule:nonzero;stroke:#000;stroke-width:0.77px;"/>
        <path d="M156.5,840.65c0.42,0.83 0.83,1.25 1.67,1.67c0.83,0 1.67,0 2.5,-0.42" style="fill:none;fill-rule:nonzero;stroke:#000;stroke-width:0.77px;"/>
        <path d="M121.09,758.57l-70.83,0l0,147.5l70.83,0l0,-147.5Z" style="fill:#ddb682;stroke:#000;stroke-width:0.77px;"/>
        <path d="M304,1012.73l71.25,0l0,-35.83l-71.25,0l0,35.83Z" style="fill:#ddb682;stroke:#000;stroke-width:0.77px;"/>
        <path d="M375.25,976.9l-71.25,35.83" style="fill:none;fill-rule:nonzero;stroke:#000;stroke-width:0.3px;"/>
        <path d="M375.25,1012.73l70.83,0l0,-35.83l-70.83,0l0,35.83Z" style="fill:#ddb682;stroke:#000;stroke-width:0.77px;"/>
        <path d="M446.09,976.9l-70.83,35.83" style="fill:none;fill-rule:nonzero;stroke:#000;stroke-width:0.3px;"/>
        <path d="M50.25,268.57l88.75,0l0,-75l40.83,-31.25l-129.58,0l0,106.25Zm73.33,-18.75l-61.67,0l0,-65.42l61.67,0l0,65.42Z" style="fill:#e5fffe;fill-opacity:0.5;"/>
        <path d="M179.84,193.57l-40.83,0l0,75l159.17,0l0,-106.25l-118.33,0l0,31.25Z" style="fill:#bedcff;"/>
        <rect x="61.92" y="184.4" width="61.67" height="65.42" style="fill:#bedcff;"/>
        <path d="M179.84,193.57l0,-31.25l-40.83,31.25l40.83,0Z" style="fill:#e5fffe;fill-opacity:0.5;"/>
        <path d="M298.17,162.32l-247.92,0l0,106.25l247.92,0l0,-106.25Z" style="fill:none;stroke:#000;stroke-width:0.77px;"/>
        <path d="M139,268.57l0,-75l40.83,-31.25l0,31.25l-40.83,0" style="fill:none;fill-rule:nonzero;stroke:#000;stroke-width:0.77px;"/>
        <path d="M123.59,184.4l-61.67,0l0,65.42l61.67,0l0,-65.42Z" style="fill:none;stroke:#000;stroke-width:0.77px;"/>
        <rect x="688.17" y="690.23" width="141.67" height="70.83" style="fill:#ddb682;stroke:#000;stroke-width:0.77px;"/>
        <path d="M829.84,690.23l-70.83,70.83l-70.83,-70.83" style="fill:none;fill-rule:nonzero;stroke:#000;stroke-width:0.3px;"/>
        <rect x="688.17" y="520.65" width="47.08" height="47.5" style="fill:#ddb682;stroke:#000;stroke-width:0.77px;"/>
        <rect x="688.17" y="261.07" width="47.08" height="47.08" style="fill:#ddb682;stroke:#000;stroke-width:0.77px;"/>
        <rect x="696.09" y="326.9" width="59.17" height="70.83" style="fill:#69b2ff;fill-opacity:0.5;"/>
        <path d="M936.09,520.65l-100.83,0l0,-64.58l-75.83,0l0,-147.92l176.67,0l0,212.5Z" style="fill:#69b2ff;fill-opacity:0.5;"/>
        <path d="M759.42,456.07l75.83,64.58l-147.08,0l0,-212.5l71.25,0l0,147.92Zm-4.17,-58.33l0,-70.83l-59.17,0l0,70.83l59.17,0Zm0,104.58l0,-70.83l-59.17,0l0,70.83l59.17,0Z" style="fill:#e5fcff;fill-opacity:0.5;"/>
        <rect x="696.09" y="431.48" width="59.17" height="70.83" style="fill:#69b2ff;fill-opacity:0.5;"/>
        <path d="M835.25,520.65l-75.83,-64.58l75.83,0l0,64.58Z" style="fill:#e5fcff;fill-opacity:0.5;"/>
        <path d="M735.25,568.15l-47.08,0l0,-307.08l47.08,0l0,47.08l200.83,0l0,212.5l-200.83,0l0,47.5Z" style="fill:none;fill-rule:nonzero;stroke:#000;stroke-width:0.77px;"/>
        <rect x="696.09" y="431.48" width="59.17" height="70.83" style="fill:none;stroke:#000;stroke-width:0.77px;"/>
        <path d="M755.25,326.9l-59.17,0l0,70.83l59.17,0l0,-70.83Z" style="fill:none;stroke:#000;stroke-width:0.77px;"/>
        <path d="M759.42,308.15l0,147.92l75.83,64.58l0,-64.58l-75.83,0" style="fill:none;fill-rule:nonzero;stroke:#000;stroke-width:0.77px;"/>
        <path d="M735.25,520.65l-47.08,0" style="fill:none;fill-rule:nonzero;stroke:#000;stroke-width:0.77px;"/>
        <path d="M735.25,308.15l-47.08,0" style="fill:none;fill-rule:nonzero;stroke:#000;stroke-width:0.77px;"/>
        <path d="M103.17,349.82l12.08,-24.17l-2.5,-1.25c-0.83,0 -1.25,-0.83 -1.67,-1.67c0,-0.83 0,-1.67 0.42,-2.5c8.75,-14.17 27.08,-19.17 42.08,-11.67c14.58,7.5 21.67,25 15.83,40.42c-0.42,0.83 -0.83,1.67 -1.67,2.08c-0.83,0 -1.67,0 -2.5,-0.42l-2.5,-1.25l-12.08,24.17l-47.5,-23.75Z" style="fill:#cfd4a2;"/>
        <path d="M162.75,349.4l-12.08,24.17" style="fill:none;fill-rule:nonzero;stroke:#000;stroke-width:0.77px;"/>
        <path d="M169.42,348.98c-0.42,0.83 -0.83,1.67 -1.67,2.08c-0.83,0 -1.67,0 -2.5,-0.42" style="fill:none;fill-rule:nonzero;stroke:#000;stroke-width:0.77px;"/>
        <path d="M115.25,325.65l-2.5,-1.25" style="fill:none;fill-rule:nonzero;stroke:#000;stroke-width:0.77px;"/>
        <path d="M165.25,350.65l-2.5,-1.25" style="fill:none;fill-rule:nonzero;stroke:#000;stroke-width:0.77px;"/>
        <path d="M115.25,325.65c6.67,-12.92 22.5,-18.33 35.42,-11.67c13.33,6.67 18.75,22.5 12.08,35.42" style="fill:none;fill-rule:nonzero;stroke:#000;stroke-width:0.77px;"/>
        <path d="M111.5,320.23c8.75,-14.17 27.08,-19.17 42.08,-11.67c14.58,7.5 21.67,25 15.83,40.42" style="fill:none;fill-rule:nonzero;stroke:#000;stroke-width:0.77px;"/>
        <path d="M103.17,349.82l12.08,-24.17" style="fill:none;fill-rule:nonzero;stroke:#000;stroke-width:0.77px;"/>
        <path d="M150.67,373.57l-47.5,-23.75" style="fill:none;fill-rule:nonzero;stroke:#000;stroke-width:0.77px;"/>
        <path d="M112.75,324.4c-0.83,0 -1.25,-0.83 -1.67,-1.67c0,-0.83 0,-1.67 0.42,-2.5" style="fill:none;fill-rule:nonzero;stroke:#000;stroke-width:0.77px;"/>
        <path d="M50.25,410.23l70.83,0l0,-141.67l-70.83,0l0,141.67Z" style="fill:#ddb682;stroke:#000;stroke-width:0.77px;"/>
        <rect x="829.84" y="690.23" width="141.67" height="70.83" style="fill:#ddb682;stroke:#000;stroke-width:0.77px;"/>
        <path d="M971.5,690.23l-70.83,70.83l-70.83,-70.83" style="fill:none;fill-rule:nonzero;stroke:#000;stroke-width:0.3px;"/>
        <rect x="971.5" y="690.23" width="112.08" height="70.83" style="fill:#ddb682;stroke:#000;stroke-width:0.77px;"/>
        <path d="M1083.59,690.23l-55.83,70.83l-56.25,-70.83" style="fill:none;fill-rule:nonzero;stroke:#000;stroke-width:0.3px;"/>
        <path d="M998.17,242.32l12.08,23.75l-2.5,1.25c-0.83,0.42 -1.25,1.25 -1.67,2.08c-0.42,0.83 0,1.67 0.42,2.08c8.75,14.17 27.08,19.17 42.08,11.67c14.58,-7.5 21.67,-25 15.83,-40.42c-0.42,-0.83 -1.25,-1.25 -2.08,-1.67c-0.42,-0.42 -1.67,-0.42 -2.08,0l-2.5,1.25l-12.08,-23.75l-47.5,23.75Z" style="fill:#cfd4a2;"/>
        <path d="M1057.75,242.32l-12.08,-23.75" style="fill:none;fill-rule:nonzero;stroke:#000;stroke-width:0.77px;"/>
        <path d="M1064.42,242.73c-0.42,-0.83 -1.25,-1.25 -2.08,-1.67c-0.42,-0.42 -1.67,-0.42 -2.08,0" style="fill:none;fill-rule:nonzero;stroke:#000;stroke-width:0.77px;"/>
        <path d="M1010.25,266.07l-2.5,1.25" style="fill:none;fill-rule:nonzero;stroke:#000;stroke-width:0.77px;"/>
        <path d="M1060.25,241.07l-2.5,1.25" style="fill:none;fill-rule:nonzero;stroke:#000;stroke-width:0.77px;"/>
        <path d="M1010.25,266.07c6.25,13.33 22.5,18.33 35.42,12.08c13.33,-6.67 18.33,-22.5 12.08,-35.83" style="fill:none;fill-rule:nonzero;stroke:#000;stroke-width:0.77px;"/>
        <path d="M1006.5,271.48c8.75,14.17 27.08,19.17 42.08,11.67c14.58,-7.5 21.67,-25 15.83,-40.42" style="fill:none;fill-rule:nonzero;stroke:#000;stroke-width:0.77px;"/>
        <path d="M998.17,242.32l12.08,23.75" style="fill:none;fill-rule:nonzero;stroke:#000;stroke-width:0.77px;"/>
        <path d="M1045.67,218.57l-47.5,23.75" style="fill:none;fill-rule:nonzero;stroke:#000;stroke-width:0.77px;"/>
        <path d="M1007.75,267.32c-0.83,0.42 -1.25,1.25 -1.67,2.08c-0.42,0.83 0,1.67 0.42,2.08" style="fill:none;fill-rule:nonzero;stroke:#000;stroke-width:0.77px;"/>
        <rect x="941.92" y="162.32" width="141.67" height="70.83" style="fill:#ddb682;stroke:#000;stroke-width:0.77px;"/>
        <path d="M767.75,991.07l-40.42,0l-0.83,-42.08c0.42,-11.25 9.58,-20.42 21.25,-20.42c11.25,0 20.83,9.17 21.25,20.42l-1.25,42.08Z" style="fill:#e0e0e0;stroke:#000;stroke-width:0.3px;"/>
        <path d="M747.75,932.73c-3.75,0 -7.08,0.83 -10,2.92c-5,3.75 -7.92,9.58 -7.92,15.83c0.42,6.25 3.33,11.67 8.33,15.42c2.92,1.67 6.25,2.92 9.58,2.92c3.33,0 6.67,-1.25 9.58,-2.92c5,-3.75 7.92,-9.17 7.92,-15.42c0.42,-6.25 -2.5,-12.08 -7.5,-15.83c-2.92,-2.08 -6.25,-2.92 -10,-2.92Z" style="fill:#b4b4b4;stroke:#000;stroke-width:0.3px;"/>
        <path d="M747.75,991.07l0,-2.5" style="fill:none;fill-rule:nonzero;stroke:#000;stroke-width:0.3px;"/>
        <path d="M737.75,966.9c0.42,-1.67 0.42,-2.92 0.83,-4.58c0,-1.25 0.42,-2.5 1.25,-3.75c0.42,-1.25 1.67,-2.08 2.5,-2.92c0.83,-0.83 1.67,-1.25 2.5,-1.25c0.83,-0.42 1.67,-0.42 2.08,-0.42l0.83,0" style="fill:none;fill-rule:nonzero;stroke:#000;stroke-width:0.3px;"/>
        <path d="M738.59,961.9c0.42,0.42 1.25,0.83 2.08,1.25c0.83,0.42 1.67,0.83 2.5,1.25c0.83,-0 1.67,-0 2.5,0.42l2.08,0" style="fill:none;fill-rule:nonzero;stroke:#000;stroke-width:0.3px;"/>
        <path d="M740.25,977.32c0,-0.69 -0.65,-1.25 -1.46,-1.25c-0.8,0 -1.46,0.56 -1.46,1.25c0,0.69 0.65,1.25 1.46,1.25c0.8,0 1.46,-0.56 1.46,-1.25Z" style="fill:none;stroke:#000;stroke-width:0.3px;"/>
        <path d="M757.34,966.9c0,-1.67 0,-2.92 -0.42,-4.58c-0.42,-1.25 -0.83,-2.5 -1.25,-3.75c-0.83,-1.25 -1.67,-2.08 -2.5,-2.92c-0.83,-0.83 -1.67,-1.25 -2.92,-1.25c-0.42,-0.42 -1.25,-0.42 -1.67,-0.42l-0.83,0" style="fill:none;fill-rule:nonzero;stroke:#000;stroke-width:0.3px;"/>
        <path d="M756.92,961.9c-0.83,0.42 -1.25,0.83 -2.08,1.25c-0.83,0.42 -1.67,0.83 -2.5,1.25c-0.83,-0 -1.67,-0 -2.5,0.42l-2.08,0" style="fill:none;fill-rule:nonzero;stroke:#000;stroke-width:0.3px;"/>
        <path d="M755.25,977.32c0,0.69 0.56,1.25 1.25,1.25c0.69,0 1.25,-0.56 1.25,-1.25c0,-0.69 -0.56,-1.25 -1.25,-1.25c-0.69,0 -1.25,0.56 -1.25,1.25Z" style="fill:none;stroke:#000;stroke-width:0.3px;"/>
        <path d="M860.67,975.23l-25.83,0c-3.33,0 -5,-1.67 -5,-5l0,-24.58c0,-3.33 1.67,-5 5,-5l54.58,0c3.33,0 5,1.67 5,5l0,24.58c0,3.33 -1.67,5 -5,5l-19.58,0" style="fill:none;fill-rule:nonzero;stroke:#000;stroke-width:0.3px;"/>
        <path d="M816.92,933.57l164.58,0c1.25,0 1.67,0.42 1.67,1.67l0,55.42c0,0.42 0,0.42 -0.42,0.42l-166.67,0c0,0 -0.42,0 -0.42,-0.42l0,-55.42c0,-1.25 0.42,-1.67 1.25,-1.67Z" style="fill:#f7f7f7;stroke:#000;stroke-width:1.48px;"/>
        <path d="M942.34,979.82l-0.42,0" style="fill:none;fill-rule:nonzero;stroke:#000;stroke-width:0.3px;"/>
        <path d="M935.67,975.23l-26.25,0c-2.92,0 -4.58,-1.67 -4.58,-5l0,-24.58c0,-3.33 1.67,-5 4.58,-5l55,0c2.92,0 4.58,1.67 4.58,5l0,24.58c0,3.33 -1.67,5 -4.58,5l-20,0" style="fill:none;fill-rule:nonzero;stroke:#000;stroke-width:0.3px;"/>
        <path d="M869.84,979.4l0.42,0c0,0 0.42,0 0.42,0.42l0,4.17l-3.33,0l0,-4.17c0,-0.42 0,-0.42 0.42,-0.42l1.25,0" style="fill:none;fill-rule:nonzero;stroke:#000;stroke-width:0.3px;"/>
        <path d="M944.42,979.4l0.83,0l0,4.58l-2.92,0l0,-4.58l1.25,0" style="fill:none;fill-rule:nonzero;stroke:#000;stroke-width:0.3px;"/>
        <path d="M863.17,981.9l0,-25.42c0,-0.83 -0.42,-1.25 -1.25,-1.25c-0.42,0 -0.83,0.42 -0.83,1.25c0,8.75 -0.42,17.08 -0.42,25.42c0,0.42 0.42,0.42 0.42,0.83c0.42,0 0.42,0.42 0.83,0.42c0.42,0 0.83,-0.42 0.83,-0.42c0.42,-0.42 0.42,-0.42 0.42,-0.83Z" style="fill:none;fill-rule:nonzero;stroke:#000;stroke-width:0.3px;"/>
        <path d="M938.17,981.9l0,-25.42c0,-0.83 -0.42,-1.25 -1.25,-1.25c-0.83,0 -1.25,0.42 -1.25,1.25l0,25.42c0,0.42 0,0.42 0.42,0.83c0,0 0.42,0.42 0.83,0.42c0.42,0 0.42,-0.42 0.83,-0.42c0,-0.42 0.42,-0.42 0.42,-0.83Z" style="fill:none;fill-rule:nonzero;stroke:#000;stroke-width:0.3px;"/>
        <path d="M942.34,983.57l-0.42,0" style="fill:none;fill-rule:nonzero;stroke:#000;stroke-width:0.3px;"/>
        <path d="M863.17,963.57c1.25,0.42 1.67,1.25 1.67,2.5c0,1.25 -0.83,2.08 -1.67,2.5" style="fill:none;fill-rule:nonzero;stroke:#000;stroke-width:0.3px;"/>
        <path d="M938.17,963.57c0.83,0.42 1.67,1.25 1.67,2.5c0,1.25 -0.83,2.08 -1.67,2.5" style="fill:none;fill-rule:nonzero;stroke:#000;stroke-width:0.3px;"/>
        <path d="M863.17,978.98c1.25,0.42 2.08,1.67 1.67,3.33c-0.42,1.67 -1.25,2.5 -2.92,2.5c-1.25,0 -2.5,-0.83 -2.92,-2.5c0,-1.67 0.42,-2.92 1.67,-3.33" style="fill:none;fill-rule:nonzero;stroke:#000;stroke-width:0.3px;"/>
        <path d="M938.17,978.98c1.25,0.42 1.67,1.67 1.67,3.33c-0.42,1.67 -1.67,2.5 -2.92,2.5c-1.67,0 -2.5,-0.83 -2.92,-2.5c-0.42,-1.67 0.42,-2.92 1.67,-3.33" style="fill:none;fill-rule:nonzero;stroke:#000;stroke-width:0.3px;"/>
        <path d="M860.67,968.57c-0.83,-0.42 -1.25,-1.67 -1.25,-2.5c0,-1.25 0.42,-2.08 1.67,-2.5" style="fill:none;fill-rule:nonzero;stroke:#000;stroke-width:0.3px;"/>
        <path d="M935.67,968.57c-0.83,-0.42 -1.25,-1.67 -1.25,-2.5c0,-1.25 0.42,-2.08 1.25,-2.5" style="fill:none;fill-rule:nonzero;stroke:#000;stroke-width:0.3px;"/>
        <path d="M863.59,984.4l3.75,0l0,-5l-3.33,0" style="fill:none;fill-rule:nonzero;stroke:#000;stroke-width:0.3px;"/>
        <path d="M938.59,984.4l3.33,0l0,-5l-2.92,0" style="fill:none;fill-rule:nonzero;stroke:#000;stroke-width:0.3px;"/>
        <path d="M869,980.65l0,-7.08c0,-0.42 0,-0.42 0.42,-0.42c0,0 0.42,0 0.42,0.42l0,7.08" style="fill:none;fill-rule:nonzero;stroke:#000;stroke-width:0.3px;"/>
        <path d="M943.59,980.65l0,-7.08c0,-0.42 0.42,-0.42 0.42,-0.42l0.42,0l0,7.5" style="fill:none;fill-rule:nonzero;stroke:#000;stroke-width:0.3px;"/>
        <path d="M869,975.23l-5.83,0" style="fill:none;fill-rule:nonzero;stroke:#000;stroke-width:0.3px;"/>
        <path d="M943.59,975.23l-5.42,0" style="fill:none;fill-rule:nonzero;stroke:#000;stroke-width:0.3px;"/>
        <path d="M860.67,975.23l-25.83,0c-3.33,0 -5,-1.67 -5,-5l0,-24.58c0,-3.33 1.67,-5 5,-5l54.58,0c3.33,0 5,1.67 5,5l0,24.58c0,3.33 -1.67,5 -5,5l-19.58,0" style="fill:none;fill-rule:nonzero;stroke:#000;stroke-width:0.3px;"/>
        <path d="M988.59,778.57c-3.33,0 -5.42,1.67 -5.42,5.42l0,201.67c0,3.75 2.08,5.42 5.42,5.42l89.58,0c3.75,0 5.42,-1.67 5.42,-5.42l0,-201.67c0,-3.75 -1.67,-5.42 -5.42,-5.42l-89.58,0Z" style="fill:#f7f7f7;stroke:#000;stroke-width:1.48px;"/>
        <path d="M1031.5,969.4c-12.08,-0.42 -20,-5.83 -23.33,-15.42c0,-0.42 -0.42,-1.25 -0.42,-2.08c-6.67,-45.42 -9.17,-83.75 -7.5,-114.58l0,-0.42c2.08,-17.5 12.92,-26.67 33.33,-27.08c20,0.42 31.25,9.58 32.92,27.08l0,0.42c2.08,30.83 -0.42,69.17 -7.08,114.58c-0.42,0.83 -0.42,1.67 -0.83,2.08c-3.33,9.58 -10.83,15 -23.33,15.42" style="fill:none;fill-rule:nonzero;stroke:#000;stroke-width:0.3px;"/>
        <path d="M1035.67,971.48c0,-2.08 -0.42,-2.92 -2.08,-2.92c-1.67,0 -2.5,0.83 -2.5,2.92c0,3.75 -0.42,7.08 -0.42,10.83c-0.42,1.25 0,2.08 0.42,2.92c0.83,0.83 1.67,1.25 2.5,1.25c0.83,0 1.67,-0.42 2.08,-1.25c0.83,-0.83 0.83,-1.67 0.83,-2.92c0,-3.75 -0.42,-7.08 -0.83,-10.83Z" style="fill:none;fill-rule:nonzero;stroke:#000;stroke-width:0.3px;"/>
        <path d="M1031.5,974.82c-0.42,2.92 -0.42,5.42 -0.83,8.33c0,0.83 0.42,1.67 0.83,2.08c0.42,0.83 1.25,0.83 2.08,0.83c0.83,0 1.25,0 2.08,-0.83c0.42,-0.42 0.42,-1.25 0.42,-2.08c0,-2.92 -0.42,-5.42 -0.42,-8.33c0,-1.67 -0.83,-2.08 -2.08,-2.08c-1.67,0 -2.08,0.42 -2.08,2.08Z" style="fill:none;fill-rule:nonzero;stroke:#000;stroke-width:0.3px;"/>
        <path d="M1033.59,956.48c2.08,0 3.75,-1.25 3.75,-3.33c0,-2.08 -1.67,-3.75 -3.75,-3.75c-2.5,0 -4.17,1.67 -4.17,3.75c0,2.08 1.67,3.33 4.17,3.33" style="fill:none;fill-rule:nonzero;stroke:#000;stroke-width:0.3px;"/>
        <path d="M1030.67,979.4c-17.08,-0.83 -28.33,-7.08 -33.75,-18.75c-0.42,-0.83 -0.83,-1.67 -1.25,-2.5c-6.25,-52.5 -8.75,-97.92 -7.5,-135.42l0,-1.25c3.33,-23.75 18.33,-35.83 45.42,-36.67c27.08,0.83 42.08,12.92 45,36.67c0.42,0.42 0.42,0.83 0.42,1.25c1.25,37.5 -1.25,82.92 -7.92,135.42c0,0.83 -0.42,1.67 -0.83,2.5c-5.42,11.67 -16.67,17.92 -33.75,18.75" style="fill:none;fill-rule:nonzero;stroke:#000;stroke-width:0.3px;"/>
        <rect x="50.25" y="546.07" width="141.67" height="70.83" style="fill:#ddb682;stroke:#000;stroke-width:0.77px;"/>
        <path d="M50.25,546.07l70.83,70.83l70.83,-70.83" style="fill:none;fill-rule:nonzero;stroke:#000;stroke-width:0.3px;"/>
        <rect x="191.92" y="546.07" width="47.5" height="70.83" style="fill:#ddb682;stroke:#000;stroke-width:0.77px;"/>
        <path d="M191.92,546.07l23.75,70.83l23.75,-70.83" style="fill:none;fill-rule:nonzero;stroke:#000;stroke-width:0.3px;"/>
        <rect x="304" y="563.98" width="142.08" height="70.83" style="fill:#ddb682;stroke:#000;stroke-width:0.77px;"/>
        <path d="M446.09,634.82l-70.83,-70.83l-71.25,70.83" style="fill:none;fill-rule:nonzero;stroke:#000;stroke-width:0.3px;"/>
        <rect x="256.92" y="563.57" width="47.08" height="70.83" style="fill:#ddb682;stroke:#000;stroke-width:0.77px;"/>
        <path d="M304,634.4l-23.33,-70.83l-23.75,70.83" style="fill:none;fill-rule:nonzero;stroke:#000;stroke-width:0.3px;"/>
        <rect x="410.67" y="162.32" width="35.42" height="70.83" style="fill:#ddb682;stroke:#000;stroke-width:0.77px;"/>
        <path d="M410.67,233.15l35.42,-70.83" style="fill:none;fill-rule:nonzero;stroke:#000;stroke-width:0.3px;"/>
        <rect x="410.67" y="233.15" width="35.42" height="70.83" style="fill:#ddb682;stroke:#000;stroke-width:0.77px;"/>
        <path d="M410.67,303.98l35.42,-70.83" style="fill:none;fill-rule:nonzero;stroke:#000;stroke-width:0.3px;"/>
        <rect x="410.67" y="303.98" width="35.42" height="65" style="fill:#ddb682;stroke:#000;stroke-width:0.77px;"/>
        <path d="M410.67,368.98l35.42,-65" style="fill:none;fill-rule:nonzero;stroke:#000;stroke-width:0.3px;"/>
        <path d="M444.84,563.57l1.25,-0.83m-22.08,0.83l17.5,-17.5m-38.33,17.5l17.5,-17.5m-38.33,17.5l17.5,-17.5m-38.33,17.5l17.5,-17.5m-38.75,17.5l17.92,-17.5m-38.75,17.5l17.92,-17.5m-38.75,17.5l17.92,-17.5m-38.75,17.5l17.92,-17.5m-38.75,17.5l17.92,-17.5" style="fill:none;fill-rule:nonzero;stroke:#000;stroke-opacity:0.31;stroke-width:1.48px;"/>
        <path d="M256.92,546.07l189.17,0m0,17.5l-189.17,0" style="fill:none;fill-rule:nonzero;stroke:#2b2b2b;stroke-width:2.95px;stroke-linecap:round;"/>
        <path d="M248.17,625.65l8.75,-8.75m-17.5,-3.33l17.5,-17.5m-17.5,-3.33l17.5,-17.5m-17.5,-3.33l17.5,-17.5m-17.5,-3.33l5,-5" style="fill:none;fill-rule:nonzero;stroke:#000;stroke-opacity:0.31;stroke-width:1.48px;"/>
        <path d="M256.92,634.4l-8.75,0m-8.75,-17.5l0,-70.83l17.5,0m0,17.5l0,70.83" style="fill:none;fill-rule:nonzero;stroke:#2b2b2b;stroke-width:2.95px;stroke-linecap:round;"/>
        <path d="M670.25,761.07l17.92,-17.92m-17.92,-2.92l17.92,-17.92m-17.92,-3.33l17.92,-17.5m-17.92,-3.33l17.92,-17.5m-17.92,-3.33l1.67,-1.25m1.67,-106.25l14.58,-14.58m-17.92,-2.92l17.92,-17.92m-17.92,-2.92l17.92,-17.92m-17.92,-3.33l17.92,-17.5m-17.92,-3.33l17.92,-17.5m-17.92,-3.33l17.92,-17.5m-17.92,-3.33l17.92,-17.5m-17.92,-3.33l17.92,-17.92m-17.92,-2.92l17.92,-17.92m-17.92,-2.92l17.92,-17.92m-17.92,-2.92l17.92,-17.92m-17.92,-2.92l17.92,-17.92m-17.92,-3.33l17.92,-17.5m-17.92,-3.33l17.92,-17.5m-17.92,-3.33l17.92,-17.5m-17.92,-3.33l17.92,-17.5m-17.92,-3.33l17.92,-17.92m-17.92,-2.92l17.92,-17.92m-17.92,-2.92l17.92,-17.92m-17.92,-2.92l14.17,-14.17" style="fill:none;fill-rule:nonzero;stroke:#000;stroke-opacity:0.31;stroke-width:1.48px;"/>
        <path d="M688.17,162.32l0,407.5l-17.92,0l0,-142.08m0,248.33l17.92,0l0,85m-17.92,0l0,-85" style="fill:none;fill-rule:nonzero;stroke:#2b2b2b;stroke-width:2.95px;stroke-linecap:round;"/>
        <path d="M651.5,427.73l17.92,-17.5m-38.75,17.5l17.92,-17.5m-38.75,17.5l17.5,-17.5m-38.33,17.5l17.5,-17.5m-142.92,17.5l17.92,-17.5" style="fill:none;fill-rule:nonzero;stroke:#000;stroke-opacity:0.31;stroke-width:1.48px;"/>
        <path d="M670.25,427.73l-82.5,0l0,-17.5l70.83,0m-195,0l17.92,0l0,17.5l-17.92,0" style="fill:none;fill-rule:nonzero;stroke:#2b2b2b;stroke-width:2.95px;stroke-linecap:round;"/>
        <path d="M446.09,1012.32l17.5,-17.5m-17.5,-3.33l17.5,-17.5m-17.5,-3.33l17.5,-17.5m-17.5,-3.33l17.5,-17.5m-17.5,-3.33l17.5,-17.5m-17.5,-3.33l17.5,-17.92m-17.5,-2.92l17.5,-17.92m-17.5,-2.92l17.5,-17.92m-17.5,-2.92l17.5,-17.92m-17.5,-2.92l17.5,-17.92m-17.5,-3.33l17.5,-17.5m-17.5,-3.33l17.5,-17.5m-17.5,-3.33l17.5,-17.5m-17.5,-3.33l5.83,-6.25m11.25,-94.17l0.42,-0.83m-17.5,-2.92l17.5,-17.92m-17.5,-3.33l17.5,-17.5m-17.5,-3.33l17.5,-17.5m-17.5,-3.33l17.5,-17.5m-17.5,-3.33l12.92,-12.92m2.08,-106.25l2.5,-2.92m-17.5,-3.33l17.5,-17.5m-17.5,-3.33l17.5,-17.5m-17.5,-3.33l17.5,-17.5m-17.5,-3.33l17.5,-17.5m-17.5,-3.33l17.5,-17.92m-17.5,-2.92l17.5,-17.92m-17.5,-2.92l17.5,-17.92m-17.5,-2.92l17.5,-17.92m-17.5,-2.92l17.5,-17.92m-17.5,-3.33l17.5,-17.5m-17.5,-3.33l17.5,-17.5m-17.5,-3.33l17.5,-17.5m-17.5,-3.33l15,-15" style="fill:none;fill-rule:nonzero;stroke:#000;stroke-opacity:0.31;stroke-width:1.48px;"/>
        <path d="M463.59,433.98l-17.5,0l0,-271.67m17.5,0l0,247.92m0,17.5l0,6.25m-17.5,300.83l17.5,0l0,277.92m-17.5,0l0,-277.92m17.5,-94.17l-17.5,0l0,-77.08m0,-17.5l0,-5.83l17.5,0l0,100.42" style="fill:none;fill-rule:nonzero;stroke:#2b2b2b;stroke-width:2.95px;stroke-linecap:round;"/>
        <path d="M670.25,1012.32l17.92,-17.5m-17.92,-3.33l17.92,-17.5m-17.92,-3.33l17.92,-17.5m-17.92,-3.33l17.92,-17.5m-17.92,-3.33l17.92,-17.5m-17.92,-3.33l2.08,-2.08m10.83,-94.17l5,-5m-17.92,-3.33l17.92,-17.5m-17.92,-3.33l4.17,-4.17" style="fill:none;fill-rule:nonzero;stroke:#000;stroke-opacity:0.31;stroke-width:1.48px;"/>
        <path d="M670.25,1012.73l0,-106.67l17.92,0l0,85m0,-212.5l0,33.33l-17.92,0l0,-33.33" style="fill:none;fill-rule:nonzero;stroke:#2b2b2b;stroke-width:2.95px;stroke-linecap:round;"/>
        <path d="M238.17,634.4l10,-9.58m-30.83,9.58l17.5,-17.5m-38.33,17.5l17.5,-17.5m-38.33,17.5l17.5,-17.5m-38.33,17.5l17.5,-17.5m-38.75,17.5l17.92,-17.5m-38.75,17.5l17.92,-17.5m-38.75,17.5l17.92,-17.5m-38.75,17.5l17.92,-17.5m-38.75,17.5l17.92,-17.5" style="fill:none;fill-rule:nonzero;stroke:#000;stroke-opacity:0.31;stroke-width:1.48px;"/>
        <path d="M239.42,634.4l-189.17,0m0,-17.5l189.17,0m8.75,17.5l-8.75,0" style="fill:none;fill-rule:nonzero;stroke:#2b2b2b;stroke-width:2.95px;stroke-linecap:round;"/>
        <path d="M1066.92,778.57l16.67,-16.67m-37.5,16.67l17.92,-17.5m-38.75,17.5l17.92,-17.5m-38.75,17.5l17.5,-17.5m-38.33,17.5l17.5,-17.5m-38.33,17.5l17.5,-17.5m-38.33,17.5l17.5,-17.5m-38.33,17.5l17.5,-17.5m-38.75,17.5l17.92,-17.5m-38.75,17.5l17.92,-17.5m-38.75,17.5l17.92,-17.5m-38.75,17.5l17.92,-17.5m-38.75,17.5l17.5,-17.5m-38.33,17.5l17.5,-17.5m-38.33,17.5l17.5,-17.5m-38.33,17.5l17.5,-17.5m-38.33,17.5l17.5,-17.5m-38.75,17.5l17.92,-17.5m-38.75,17.5l17.92,-17.5m-38.75,17.5l17.92,-17.5" style="fill:none;fill-rule:nonzero;stroke:#000;stroke-opacity:0.31;stroke-width:1.48px;"/>
        <path d="M670.25,778.57l0,-17.5m17.92,0l395.42,0m0,17.5l-395.42,0" style="fill:none;fill-rule:nonzero;stroke:#2b2b2b;stroke-width:2.95px;stroke-linecap:round;"/>
        <rect x="50.25" y="1012.73" width="413.33" height="35.42" style="fill:#fff;fill-opacity:0.1;"/>
        <path d="M446.92,1048.15l16.67,-16.67m-37.5,16.67l35.42,-35.42m-56.25,35.42l35.42,-35.42m-56.25,35.42l35.42,-35.42m-56.25,35.42l35.42,-35.42m-56.25,35.42l35.42,-35.42m-56.67,35.42l35.42,-35.42m-56.25,35.42l35.42,-35.42m-56.25,35.42l35.42,-35.42m-56.25,35.42l35.42,-35.42m-56.25,35.42l35.42,-35.42m-56.25,35.42l35.42,-35.42m-56.25,35.42l35.42,-35.42m-56.25,35.42l35.42,-35.42m-56.25,35.42l35.42,-35.42m-56.67,35.42l35.42,-35.42m-56.25,35.42l35.42,-35.42m-56.25,35.42l35.42,-35.42m-56.25,35.42l35.42,-35.42m-56.25,35.42l35.42,-35.42m-35.42,14.17l14.58,-14.17m398.75,10l-10.42,-10m10.42,30.83l-31.25,-30.83m14.58,35.42l-35.42,-35.42m14.58,35.42l-35.42,-35.42m14.58,35.42l-35.42,-35.42m14.58,35.42l-35.42,-35.42m14.58,35.42l-35.42,-35.42m14.58,35.42l-35.83,-35.42m14.58,35.42l-35.42,-35.42m14.58,35.42l-35.42,-35.42m14.58,35.42l-35.42,-35.42m14.58,35.42l-35.42,-35.42m14.58,35.42l-35.42,-35.42m14.58,35.42l-35.42,-35.42m14.58,35.42l-35.42,-35.42m14.58,35.42l-35.42,-35.42m14.58,35.42l-35.83,-35.42m14.58,35.42l-35.42,-35.42m14.58,35.42l-35.42,-35.42m14.58,35.42l-35.42,-35.42m14.58,35.42l-20.83,-21.25" style="fill:none;fill-rule:nonzero;stroke:#000;stroke-opacity:0.31;stroke-width:1.48px;"/>
        <path d="M50.25,1012.73l395.83,0m17.5,0l0,35.42l-413.33,0" style="fill:none;fill-rule:nonzero;stroke:#2b2b2b;stroke-width:2.95px;stroke-linecap:round;"/>
        <rect x="14.84" y="162.32" width="35.42" height="885.83" style="fill:#fff;fill-opacity:0.1;"/>
        <path d="M35.67,1048.15l14.58,-14.58m-35.42,14.58l35.42,-35.42m-35.42,14.17l35.42,-35.42m-35.42,14.58l35.42,-35.42m-35.42,14.58l35.42,-35.42m-35.42,14.58l35.42,-35.42m-35.42,14.58l35.42,-35.42m-35.42,14.58l35.42,-35.42m-35.42,14.58l35.42,-35.42m-35.42,14.58l35.42,-35.42m-35.42,14.58l35.42,-35.42m-35.42,14.17l35.42,-35.42m-35.42,14.58l35.42,-35.42m-35.42,14.58l35.42,-35.42m-35.42,14.58l35.42,-35.42m-35.42,14.58l35.42,-35.42m-35.42,14.58l35.42,-35.42m-35.42,14.58l35.42,-35.42m-35.42,14.58l35.42,-35.42m-35.42,14.58l35.42,-35.42m-35.42,14.17l35.42,-35.42m-35.42,14.58l35.42,-35.42m-35.42,14.58l35.42,-35.42m-35.42,14.58l35.42,-35.42m-35.42,14.58l35.42,-35.42m-35.42,14.58l35.42,-35.42m-35.42,14.58l35.42,-35.42m-35.42,14.58l35.42,-35.42m-35.42,14.58l35.42,-35.42m-35.42,14.17l35.42,-35.42m-35.42,14.58l35.42,-35.42m-35.42,14.58l35.42,-35.42m-35.42,14.58l35.42,-35.42m-35.42,14.58l35.42,-35.42m-35.42,14.58l35.42,-35.42m-35.42,14.58l35.42,-35.42m-35.42,14.58l35.42,-35.42m-35.42,14.58l35.42,-35.42m-35.42,14.17l35.42,-35.42m-35.42,14.58l35.42,-35.42m-35.42,14.58l35.42,-35.42m-35.42,14.58l35.42,-35.42m-35.42,14.58l29.58,-29.58m-29.58,8.75l8.75,-8.75m26.67,2.5l-2.5,-2.5m2.5,23.33l-23.33,-23.33m23.33,44.17l-35.42,-35.42m35.42,56.25l-35.42,-35.42m35.42,56.25l-35.42,-35.42m35.42,56.25l-35.42,-35.42m35.42,56.25l-35.42,-35.42m35.42,56.67l-35.42,-35.83m35.42,56.67l-35.42,-35.42m35.42,56.25l-35.42,-35.42m35.42,56.25l-35.42,-35.42m35.42,56.25l-35.42,-35.42m35.42,56.25l-35.42,-35.42m35.42,56.25l-35.42,-35.42m35.42,56.25l-35.42,-35.42m35.42,56.25l-35.42,-35.42m35.42,56.67l-35.42,-35.83m35.42,56.67l-35.42,-35.42m35.42,56.25l-35.42,-35.42m35.42,56.25l-35.42,-35.42m35.42,56.25l-35.42,-35.42m35.42,56.25l-35.42,-35.42m35.42,56.25l-35.42,-35.42m35.42,56.25l-35.42,-35.42m35.42,56.25l-35.42,-35.42m35.42,56.25l-35.42,-35.42m35.42,56.67l-35.42,-35.42m35.42,56.25l-35.42,-35.42m35.42,56.25l-35.42,-35.42m35.42,56.25l-35.42,-35.42m35.42,56.25l-35.42,-35.42m35.42,56.25l-35.42,-35.42m35.42,56.25l-35.42,-35.42m35.42,56.25l-35.42,-35.42m35.42,56.25l-35.42,-35.42m35.42,56.67l-35.42,-35.42m35.42,56.25l-35.42,-35.42m35.42,56.25l-35.42,-35.42m35.42,56.25l-35.42,-35.42m35.42,56.25l-35.42,-35.42m35.42,56.25l-35.42,-35.42m35.42,56.25l-35.42,-35.42m35.42,56.25l-35.42,-35.42m20.83,42.08l-20.83,-21.25" style="fill:none;fill-rule:nonzero;stroke:#000;stroke-opacity:0.31;stroke-width:1.48px;"/>
        <path d="M50.25,1048.15l-35.42,0l0,-885.83m35.42,0l0,454.58m0,17.5l0,378.33" style="fill:none;fill-rule:nonzero;stroke:#2b2b2b;stroke-width:2.95px;stroke-linecap:round;"/>
        <rect x="670.25" y="1012.73" width="413.33" height="35.42" style="fill:#fff;fill-opacity:0.1;"/>
        <path d="M1066.92,1048.15l16.67,-16.67m-37.5,16.67l35.42,-35.42m-56.25,35.42l35.42,-35.42m-56.25,35.42l35.42,-35.42m-56.25,35.42l35.42,-35.42m-56.25,35.42l35.42,-35.42m-56.25,35.42l35.42,-35.42m-56.25,35.42l35.42,-35.42m-56.67,35.42l35.42,-35.42m-56.25,35.42l35.42,-35.42m-56.25,35.42l35.42,-35.42m-56.25,35.42l35.42,-35.42m-56.25,35.42l35.42,-35.42m-56.25,35.42l35.42,-35.42m-56.25,35.42l35.42,-35.42m-56.25,35.42l35.42,-35.42m-56.25,35.42l35.42,-35.42m-56.67,35.42l35.42,-35.42m-56.25,35.42l35.42,-35.42m-56.25,35.42l35.42,-35.42m-35.42,14.17l14.58,-14.17m398.75,10l-10.42,-10m10.42,30.83l-31.25,-30.83m14.58,35.42l-35.42,-35.42m14.58,35.42l-35.42,-35.42m14.58,35.42l-35.42,-35.42m14.58,35.42l-35.42,-35.42m14.58,35.42l-35.42,-35.42m14.58,35.42l-35.42,-35.42m14.58,35.42l-35.42,-35.42m14.58,35.42l-35.83,-35.42m14.58,35.42l-35.42,-35.42m14.58,35.42l-35.42,-35.42m14.58,35.42l-35.42,-35.42m14.58,35.42l-35.42,-35.42m14.58,35.42l-35.42,-35.42m14.58,35.42l-35.42,-35.42m14.58,35.42l-35.42,-35.42m14.58,35.42l-35.42,-35.42m14.58,35.42l-35.83,-35.42m14.58,35.42l-35.42,-35.42m14.58,35.42l-20.83,-21.25" style="fill:none;fill-rule:nonzero;stroke:#000;stroke-opacity:0.31;stroke-width:1.48px;"/>
        <path d="M1083.59,1048.15l-413.33,0l0,-35.42" style="fill:none;fill-rule:nonzero;stroke:#2b2b2b;stroke-width:2.95px;stroke-linecap:round;"/>
        <rect x="1083.59" y="162.32" width="35.42" height="885.83" style="fill:#fff;fill-opacity:0.1;"/>
        <path d="M1104.42,1048.15l14.58,-14.58m-35.42,14.17l35.42,-35.42m-35.42,14.58l35.42,-35.42m-35.42,14.58l35.42,-35.42m-35.42,14.58l35.42,-35.42m-35.42,14.58l35.42,-35.42m-35.42,14.58l35.42,-35.42m-35.42,14.58l35.42,-35.42m-35.42,14.58l35.42,-35.42m-35.42,14.58l35.42,-35.42m-35.42,14.58l35.42,-35.83m-35.42,14.58l35.42,-35.42m-35.42,14.58l35.42,-35.42m-35.42,14.58l35.42,-35.42m-35.42,14.58l35.42,-35.42m-35.42,14.58l35.42,-35.42m-35.42,14.58l35.42,-35.42m-35.42,14.58l35.42,-35.42m-35.42,14.58l35.42,-35.42m-35.42,14.58l35.42,-35.83m-35.42,14.58l35.42,-35.42m-35.42,14.58l35.42,-35.42m-35.42,14.58l35.42,-35.42m-35.42,14.58l35.42,-35.42m-35.42,14.58l35.42,-35.42m-35.42,14.58l35.42,-35.42m-35.42,14.58l35.42,-35.42m-35.42,14.58l35.42,-35.42m-35.42,14.58l35.42,-35.83m-35.42,14.58l35.42,-35.42m-35.42,14.58l35.42,-35.42m-35.42,14.58l35.42,-35.42m-35.42,14.58l35.42,-35.42m-35.42,14.58l35.42,-35.42m-35.42,14.58l35.42,-35.42m-35.42,14.58l35.42,-35.42m-35.42,14.58l35.42,-35.42m-35.42,14.58l35.42,-35.42m-35.42,14.17l35.42,-35.42m-35.42,14.58l35.42,-35.42m-35.42,14.58l35.42,-35.42m-35.42,14.58l35.42,-35.42m-35.42,14.58l30,-29.58m-30,8.75l9.17,-8.75m26.25,2.5l-2.5,-2.5m2.5,23.33l-23.33,-23.33m23.33,44.17l-35.42,-35.42m35.42,56.25l-35.42,-35.42m35.42,56.25l-35.42,-35.42m35.42,56.25l-35.42,-35.42m35.42,56.25l-35.42,-35.42m35.42,56.67l-35.42,-35.42m35.42,56.25l-35.42,-35.42m35.42,56.25l-35.42,-35.42m35.42,56.25l-35.42,-35.42m35.42,56.25l-35.42,-35.42m35.42,56.25l-35.42,-35.42m35.42,56.25l-35.42,-35.42m35.42,56.25l-35.42,-35.42m35.42,56.25l-35.42,-35.42m35.42,56.67l-35.42,-35.83m35.42,56.67l-35.42,-35.42m35.42,56.25l-35.42,-35.42m35.42,56.25l-35.42,-35.42m35.42,56.25l-35.42,-35.42m35.42,56.25l-35.42,-35.42m35.42,56.25l-35.42,-35.42m35.42,56.25l-35.42,-35.42m35.42,56.25l-35.42,-35.42m35.42,56.67l-35.42,-35.83m35.42,56.67l-35.42,-35.42m35.42,56.25l-35.42,-35.42m35.42,56.25l-35.42,-35.42m35.42,56.25l-35.42,-35.42m35.42,56.25l-35.42,-35.42m35.42,56.25l-35.42,-35.42m35.42,56.25l-35.42,-35.42m35.42,56.25l-35.42,-35.42m35.42,56.67l-35.42,-35.83m35.42,56.67l-35.42,-35.42m35.42,56.25l-35.42,-35.42m35.42,56.25l-35.42,-35.42m35.42,56.25l-35.42,-35.42m35.42,56.25l-35.42,-35.42m35.42,56.25l-35.42,-35.42m35.42,56.25l-35.42,-35.42m35.42,56.25l-35.42,-35.42m20.83,42.08l-20.83,-21.25" style="fill:none;fill-rule:nonzero;stroke:#000;stroke-opacity:0.31;stroke-width:1.48px;"/>
        <path d="M1083.59,991.07l0,-212.5m0,-17.5l0,-598.75m35.42,0l0,885.83l-35.42,0" style="fill:none;fill-rule:nonzero;stroke:#2b2b2b;stroke-width:2.95px;stroke-linecap:round;"/>
        <rect x="14.84" y="126.9" width="1104.17" height="35.42" style="fill:#fff;fill-opacity:0.1;"/>
        <path d="M1100.67,162.32l18.33,-18.75m-39.17,18.75l35.42,-35.42m-56.67,35.42l35.42,-35.42m-56.25,35.42l35.42,-35.42m-56.25,35.42l35.42,-35.42m-56.25,35.42l35.42,-35.42m-56.25,35.42l35.42,-35.42m-56.25,35.42l35.42,-35.42m-56.25,35.42l35.42,-35.42m-56.25,35.42l35.42,-35.42m-56.25,35.42l35.42,-35.42m-56.67,35.42l35.42,-35.42m-56.25,35.42l35.42,-35.42m-56.25,35.42l35.42,-35.42m-56.25,35.42l35.42,-35.42m-56.25,35.42l35.42,-35.42m-56.25,35.42l35.42,-35.42m-56.25,35.42l35.42,-35.42m-56.25,35.42l35.42,-35.42m-56.25,35.42l35.42,-35.42m-56.67,35.42l35.83,-35.42m-56.67,35.42l35.42,-35.42m-56.25,35.42l35.42,-35.42m-56.25,35.42l35.42,-35.42m-56.25,35.42l35.42,-35.42m-56.25,35.42l35.42,-35.42m-56.25,35.42l35.42,-35.42m-56.25,35.42l35.42,-35.42m-56.25,35.42l35.42,-35.42m-56.67,35.42l35.83,-35.42m-56.67,35.42l35.42,-35.42m-56.25,35.42l35.42,-35.42m-56.25,35.42l35.42,-35.42m-56.25,35.42l35.42,-35.42m-56.25,35.42l35.42,-35.42m-56.25,35.42l35.42,-35.42m-56.25,35.42l35.42,-35.42m-56.25,35.42l35.42,-35.42m-56.67,35.42l35.83,-35.42m-56.67,35.42l35.42,-35.42m-56.25,35.42l35.42,-35.42m-56.25,35.42l35.42,-35.42m-56.25,35.42l35.42,-35.42m-56.25,35.42l35.42,-35.42m-56.25,35.42l35.42,-35.42m-56.25,35.42l35.42,-35.42m-56.25,35.42l35.42,-35.42m-56.67,35.42l35.83,-35.42m-56.67,35.42l35.42,-35.42m-56.25,35.42l35.42,-35.42m-56.25,35.42l35.42,-35.42m-56.25,35.42l35.42,-35.42m-56.25,35.42l35.42,-35.42m-35.42,14.17l14.58,-14.17m1089.58,12.08l-12.08,-12.08m12.08,32.92l-32.92,-32.92m14.58,35.42l-35.42,-35.42m14.58,35.42l-35.42,-35.42m14.17,35.42l-35.42,-35.42m14.58,35.42l-35.42,-35.42m14.58,35.42l-35.42,-35.42m14.58,35.42l-35.42,-35.42m14.58,35.42l-35.42,-35.42m14.58,35.42l-35.42,-35.42m14.58,35.42l-35.42,-35.42m14.58,35.42l-35.42,-35.42m14.58,35.42l-35.42,-35.42m14.17,35.42l-35.42,-35.42m14.58,35.42l-35.42,-35.42m14.58,35.42l-35.42,-35.42m14.58,35.42l-35.42,-35.42m14.58,35.42l-35.42,-35.42m14.58,35.42l-35.42,-35.42m14.58,35.42l-35.42,-35.42m14.58,35.42l-35.42,-35.42m14.58,35.42l-35.42,-35.42m14.17,35.42l-35.42,-35.42m14.58,35.42l-35.42,-35.42m14.58,35.42l-35.42,-35.42m14.58,35.42l-35.42,-35.42m14.58,35.42l-35.42,-35.42m14.58,35.42l-35.42,-35.42m14.58,35.42l-35.42,-35.42m14.58,35.42l-35.42,-35.42m14.58,35.42l-35.42,-35.42m14.17,35.42l-35.42,-35.42m14.58,35.42l-35.42,-35.42m14.58,35.42l-35.42,-35.42m14.58,35.42l-35.42,-35.42m14.58,35.42l-35.42,-35.42m14.58,35.42l-35.42,-35.42m14.58,35.42l-35.42,-35.42m14.58,35.42l-35.42,-35.42m14.58,35.42l-35.42,-35.42m14.17,35.42l-35.42,-35.42m14.58,35.42l-35.42,-35.42m14.58,35.42l-35.42,-35.42m14.58,35.42l-35.42,-35.42m14.58,35.42l-35.42,-35.42m14.58,35.42l-35.42,-35.42m14.58,35.42l-35.42,-35.42m14.58,35.42l-35.42,-35.42m14.58,35.42l-35.42,-35.42m14.17,35.42l-35.42,-35.42m14.58,35.42l-35.42,-35.42m14.58,35.42l-35.42,-35.42m14.58,35.42l-35.42,-35.42m14.58,35.42l-20.83,-21.25" style="fill:none;fill-rule:nonzero;stroke:#000;stroke-opacity:0.31;stroke-width:1.48px;"/>
        <path d="M446.09,162.32l-395.83,0m-35.42,0l0,-35.42l1104.17,0l0,35.42m-35.42,0l-395.42,0m-29.58,0l-195,0" style="fill:none;fill-rule:nonzero;stroke:#2b2b2b;stroke-width:2.95px;stroke-linecap:round;"/>
        <path d="M670.25,906.07l-70.83,0l0,106.67l70.83,0l0,-106.67Z" style="fill:#ddb682;stroke:#000;stroke-width:0.77px;"/>
        <path d="M599.42,906.07l70.83,53.33l-70.83,53.33" style="fill:none;fill-rule:nonzero;stroke:#000;stroke-width:0.3px;"/>
        <path d="M670.25,690.23l-70.83,0l0,121.67l70.83,0l0,-121.67Z" style="fill:#ddb682;stroke:#000;stroke-width:0.77px;"/>
        <path d="M599.42,690.23l70.83,60.83l-70.83,60.83" style="fill:none;fill-rule:nonzero;stroke:#000;stroke-width:0.3px;"/>
        <path d="M670.25,427.73l-70.83,0l0,142.08l70.83,0l0,-142.08Z" style="fill:#ddb682;stroke:#000;stroke-width:0.77px;"/>
        <path d="M599.42,427.73l70.83,70.83l-70.83,71.25" style="fill:none;fill-rule:nonzero;stroke:#000;stroke-width:0.3px;"/>
        <rect x="658.59" y="162.32" width="11.67" height="247.92" style="fill:#ddd;"/>
        <path d="M658.59,410.23l0,-247.92" style="fill:none;fill-rule:nonzero;stroke:#2b2b2b;stroke-width:2.95px;stroke-linecap:round;"/>
        <path d="M581.5,427.73l0,-17.5" style="fill:none;fill-rule:nonzero;stroke:#000;stroke-width:0.3px;"/>
        <path d="M487.34,427.73l0,-112.08" style="fill:none;fill-rule:nonzero;stroke:#000;stroke-width:0.3px;"/>
        <path d="M487.34,315.65c52.08,0 94.17,42.5 94.17,94.58" style="fill:none;fill-rule:nonzero;stroke:#000;stroke-width:0.3px;"/>
        <rect x="481.5" y="410.23" width="106.25" height="17.5" style="fill:none;fill-rule:nonzero;stroke:#000;stroke-width:0.3px;"/>
        <path d="M589.42,172.32c-2.5,16.67 -2.5,33.75 0,50.42l3.33,0.42l0.83,10l65,0l0,-70.83l-65,0l-0.42,4.58l-1.25,0l0,2.92l1.25,0l-0.42,2.5l-3.33,0Z" style="fill:#f7f7f7;stroke:#000;stroke-width:1.48px;"/>
        <path d="M591.5,203.15l-2.08,0l0,-10.83l2.08,0" style="fill:none;fill-rule:nonzero;stroke:#18181b;stroke-width:0.3px;"/>
        <path d="M593.17,169.82l0,-2.92" style="fill:none;fill-rule:nonzero;stroke:#18181b;stroke-width:0.3px;"/>
        <path d="M595.67,233.15l0,-18.75l-3.75,0" style="fill:none;fill-rule:nonzero;stroke:#18181b;stroke-width:0.3px;"/>
        <path d="M597.75,233.15l0,-70.83" style="fill:none;fill-rule:nonzero;stroke:#18181b;stroke-width:0.3px;"/>
        <path d="M592.75,223.15c-1.25,-16.67 -1.25,-33.33 0,-50" style="fill:none;fill-rule:nonzero;stroke:#18181b;stroke-width:0.3px;"/>
        <ellipse cx="627.75" cy="197.32" rx="11.25" ry="13.75" style="fill:none;stroke:#bcbcbc;stroke-width:0.3px;"/>
        <path d="M627.75,183.98c-0.42,0.42 -0.83,1.25 -0.83,2.08c0,0.83 0.42,1.25 0.83,2.08c0.42,0.42 0.83,0.83 0.83,1.67c0,0.83 -0.42,1.67 -0.83,2.08c-0.42,0.42 -0.83,1.25 -0.83,2.08c0,0.83 0.42,1.67 0.83,2.08c0.42,0.42 0.83,1.25 0.83,2.08c0,0.83 -0.42,1.25 -0.83,1.67c-0.42,0.42 -0.83,1.25 -0.83,2.08c0,0.83 0.42,1.67 0.83,2.08c0.42,0.42 0.83,1.25 0.83,2.08c0,0.83 -0.42,1.25 -0.83,1.67c-0.42,0.42 -0.42,1.25 -0.42,1.67c0,0.42 0,1.25 0.42,1.25" style="fill:none;fill-rule:nonzero;stroke:#bcbcbc;stroke-width:0.3px;"/>
        <path d="M589.42,243.15c-2.5,16.67 -2.5,33.75 0,50.42l3.33,0.42l0.83,10l65,0l0,-70.83l-65,0l-0.42,4.58l-1.25,0l0,2.92l1.25,0l-0.42,2.92l-3.33,-0.42Z" style="fill:#f7f7f7;stroke:#000;stroke-width:1.48px;"/>
        <path d="M591.5,273.98l-2.08,0l0,-10.83l2.08,0" style="fill:none;fill-rule:nonzero;stroke:#18181b;stroke-width:0.3px;"/>
        <path d="M593.17,240.65l0,-2.92" style="fill:none;fill-rule:nonzero;stroke:#18181b;stroke-width:0.3px;"/>
        <path d="M595.67,303.98l0,-18.75l-3.75,0" style="fill:none;fill-rule:nonzero;stroke:#18181b;stroke-width:0.3px;"/>
        <path d="M597.75,303.98l0,-70.83" style="fill:none;fill-rule:nonzero;stroke:#18181b;stroke-width:0.3px;"/>
        <path d="M592.75,293.98c-1.25,-16.67 -1.25,-33.33 0,-50" style="fill:none;fill-rule:nonzero;stroke:#18181b;stroke-width:0.3px;"/>
        <ellipse cx="627.75" cy="268.15" rx="11.25" ry="13.75" style="fill:none;stroke:#bcbcbc;stroke-width:0.3px;"/>
        <path d="M627.75,254.82c-0.42,0.42 -0.83,1.25 -0.83,2.08c0,0.83 0.42,1.67 0.83,2.08c0.42,0.42 0.83,1.25 0.83,2.08c0,0.83 -0.42,1.25 -0.83,1.67c-0.42,0.42 -0.83,1.25 -0.83,2.08c0,0.83 0.42,1.67 0.83,2.08c0.42,0.42 0.83,1.25 0.83,2.08c0,0.83 -0.42,1.25 -0.83,2.08c-0.42,0.42 -0.83,0.83 -0.83,1.67c0,0.83 0.42,1.67 0.83,2.08c0.42,0.42 0.83,1.25 0.83,2.08c0,0.83 -0.42,1.67 -0.83,2.08c-0.42,0 -0.42,0.83 -0.42,1.25c0,0.42 0,1.25 0.42,1.67" style="fill:none;fill-rule:nonzero;stroke:#bcbcbc;stroke-width:0.3px;"/>
        <path d="M593.59,410.23l65,0l0,-106.25l-65,0l0,106.25Z" style="fill:#ddb682;stroke:#000;stroke-width:0.77px;"/>
        <path d="M593.59,410.23l65,-53.33l-65,-52.92" style="fill:none;fill-rule:nonzero;stroke:#000;stroke-width:0.3px;"/>
        <path d="M463.59,439.82l-17.5,0" style="fill:none;fill-rule:nonzero;stroke:#000;stroke-width:0.3px;"/>
        <path d="M463.59,534.4l-112.08,0" style="fill:none;fill-rule:nonzero;stroke:#000;stroke-width:0.3px;"/>
        <path d="M351.5,534.4c0,-52.5 42.08,-94.58 94.58,-94.58" style="fill:none;fill-rule:nonzero;stroke:#000;stroke-width:0.3px;"/>
        <rect x="446.09" y="433.98" width="17.5" height="106.25" style="fill:none;fill-rule:nonzero;stroke:#000;stroke-width:0.3px;"/>
        <rect x="446.09" y="640.65" width="17.5" height="94.17" style="fill:none;fill-rule:nonzero;stroke:#000;stroke-width:0.3px;"/>
        <path d="M463.59,646.48l-100.42,0" style="fill:none;fill-rule:nonzero;stroke:#000;stroke-width:0.3px;"/>
        <path d="M446.09,728.98c-45.83,0 -82.92,-37.08 -82.92,-82.5" style="fill:none;fill-rule:nonzero;stroke:#000;stroke-width:0.3px;"/>
        <path d="M446.09,728.98l17.5,0" style="fill:none;fill-rule:nonzero;stroke:#000;stroke-width:0.3px;"/>
        <rect x="670.25" y="811.9" width="17.92" height="94.17" style="fill:none;fill-rule:nonzero;stroke:#000;stroke-width:0.3px;"/>
        <path d="M670.25,817.73l100.42,0" style="fill:none;fill-rule:nonzero;stroke:#000;stroke-width:0.3px;"/>
        <path d="M688.17,900.23c45.42,0 82.5,-37.08 82.5,-82.5" style="fill:none;fill-rule:nonzero;stroke:#000;stroke-width:0.3px;"/>
        <path d="M688.17,900.23l-17.92,0" style="fill:none;fill-rule:nonzero;stroke:#000;stroke-width:0.3px;"/>
        <path d="M670.25,575.65l17.92,0" style="fill:none;fill-rule:nonzero;stroke:#000;stroke-width:0.3px;"/>
        <path d="M670.25,669.82l112.08,0" style="fill:none;fill-rule:nonzero;stroke:#000;stroke-width:0.3px;"/>
        <path d="M782.34,669.82c0,-52.08 -42.08,-94.17 -94.17,-94.17" style="fill:none;fill-rule:nonzero;stroke:#000;stroke-width:0.3px;"/>
        <rect x="670.25" y="569.4" width="17.92" height="106.67" style="fill:none;fill-rule:nonzero;stroke:#000;stroke-width:0.3px;"/>
    </g>
    <g id="topAllL">
        <path d="M14.84,1048.15l0,-921.25l1104.17,0l0,921.25l-448.75,0l0,-35.42l-206.67,0l0,35.42l-448.75,0Z" style="fill:#fff;"/>
        <path d="M670.25,410.23l-17.5,0l0,8.75l-106.25,0l0,-8.75l-71.25,0l0,-247.92l195,0l0,247.92Z" style="fill:#e0e0e0;fill-opacity:0.25;stroke:#a8a8a8;stroke-width:0.3px;"/>
        <path d="M446.09,433.98l8.75,0l0,106.25l-8.75,0l0,5.83l-206.67,0l0,70.83l-189.17,0l0,-454.58l395.83,0l0,271.67Z" style="fill:#e0e0e0;fill-opacity:0.25;stroke:#a8a8a8;stroke-width:0.3px;"/>
        <path d="M688.17,676.07l-9.17,0l0,-106.25l9.17,0l0,-407.5l395.42,0l0,598.75l-395.42,0l0,-85Z" style="fill:#e0e0e0;fill-opacity:0.25;stroke:#a8a8a8;stroke-width:0.3px;"/>
        <path d="M256.92,634.4l0,-70.83l189.17,0l0,77.08l8.75,0l0,94.17l-8.75,0l0,277.92l-395.83,0l0,-378.33l206.67,0Z" style="fill:#e0e0e0;fill-opacity:0.25;stroke:#a8a8a8;stroke-width:0.3px;"/>
        <path d="M463.59,1012.73l2.08,0m2.08,0l3.75,0m1.67,0l3.75,0m2.08,0l3.75,0m1.67,0l3.75,0m2.08,0l3.75,0m1.67,0l3.75,0m2.08,0l3.75,0m1.67,0l3.75,0m2.08,0l3.75,0m1.67,0l3.75,0m2.08,0l3.75,0m1.67,0l3.75,0m2.08,0l3.75,0m1.67,0l3.75,0m2.08,0l3.75,0m1.67,0l3.75,0m2.08,0l3.75,0m1.67,0l3.75,0m2.08,0l3.75,0m1.67,0l3.75,0m2.08,0l3.75,0m1.67,0l3.75,0m2.08,0l3.75,0m1.67,0l3.75,0m2.08,0l3.75,0m1.67,0l3.75,0m2.08,0l3.75,0m1.67,0l3.75,0m2.08,0l3.75,0m1.67,0l3.75,0m2.08,0l3.75,0m1.67,0l3.75,0m2.08,0l3.75,0m1.67,0l3.75,0m2.08,0l3.75,0m1.67,0l5.83,0" style="fill:none;fill-rule:nonzero;stroke:#a8a8a8;stroke-width:0.3px;stroke-linecap:round;"/>
        <path d="M679,906.07l-8.75,0l0,106.67l-206.67,0l0,-277.92l-8.75,0l0,-94.17l8.75,0l0,-100.42l-8.75,0l0,-106.25l8.75,0l0,-6.25l82.92,0l0,-8.75l106.25,0l0,8.75l17.5,0l0,142.08l8.75,0l0,106.25l-8.75,0l0,135.83l8.75,0l0,94.17Z" style="fill:#e0e0e0;fill-opacity:0.25;stroke:#a8a8a8;stroke-width:0.3px;"/>
        <path d="M1083.59,778.57l0,212.5l-395.42,0l0,-85l-9.17,0l0,-94.17l9.17,0l0,-33.33l395.42,0Z" style="fill:#e0e0e0;fill-opacity:0.25;stroke:#a8a8a8;stroke-width:0.3px;"/>
        <path d="M1083.59,991.07l-395.42,0l0,21.67l395.42,0l0,-21.67Z" style="fill:#ddd;"/>
        <path d="M688.17,991.07l395.42,0" style="fill:none;fill-rule:nonzero;stroke:#2b2b2b;stroke-width:2.95px;stroke-linecap:round;"/>
        <g transform="matrix(1,0,0,1,-350.472019,301.336191)">
            <text x="569.38px" y="148.62px" style="font-family:'ArialMT', 'Arial', sans-serif;font-size:21.14px;fill:#2b2b2b;fill-opacity:0.99;">Pokoj</text>
            <g transform="matrix(21.144211,0,0,21.144211,637.153103,172.24176)">
            </g>
            <text x="555.28px" y="172.24px" style="font-family:'ArialMT', 'Arial', sans-serif;font-size:21.14px;fill:#2b2b2b;fill-opacity:0.99;">11.92 m²</text>
        </g>
        <g transform="matrix(1,0,0,1,144.582622,416.24797)">
            <text x="716.11px" y="184.91px" style="font-family:'ArialMT', 'Arial', sans-serif;font-size:21.14px;fill:#2b2b2b;fill-opacity:0.99;">Ložnice</text>
            <g transform="matrix(21.144211,0,0,21.144211,794.278786,208.52969)">
            </g>
            <text x="710.84px" y="208.53px" style="font-family:'ArialMT', 'Arial', sans-serif;font-size:21.14px;fill:#2b2b2b;fill-opacity:0.99;">17.05 m²</text>
        </g>
        <g transform="matrix(1,0,0,1,-341.367853,518.57855)">
            <text x="572.26px" y="217.22px" style="font-family:'ArialMT', 'Arial', sans-serif;font-size:21.14px;fill:#2b2b2b;fill-opacity:0.99;">Pokoj</text>
            <g transform="matrix(21.144211,0,0,21.144211,640.028103,240.84461)">
            </g>
            <text x="558.16px" y="240.84px" style="font-family:'ArialMT', 'Arial', sans-serif;font-size:21.14px;fill:#2b2b2b;fill-opacity:0.99;">11.74 m²</text>
        </g>
        <g transform="matrix(1,0,0,1,-108.536877,424.775784)">
            <text x="669.52px" y="187.6px" style="font-family:'ArialMT', 'Arial', sans-serif;font-size:21.14px;fill:#2b2b2b;fill-opacity:0.99;">Chodba</text>
            <text x="660.13px" y="211.22px" style="font-family:'ArialMT', 'Arial', sans-serif;font-size:21.14px;fill:#2b2b2b;fill-opacity:0.99;">horní část</text>
            <g transform="matrix(21.144211,0,0,21.144211,743.8463,234.844731)">
            </g>
            <text x="672.16px" y="234.84px" style="font-family:'ArialMT', 'Arial', sans-serif;font-size:21.14px;fill:#2b2b2b;fill-opacity:0.99;">8.99 m²</text>
        </g>
        <g transform="matrix(1,0,0,1,123.524095,597.714531)">
            <text x="704.18px" y="242.21px" style="font-family:'ArialMT', 'Arial', sans-serif;font-size:21.14px;fill:#2b2b2b;fill-opacity:0.99;">Koupelna</text>
            <g transform="matrix(21.144211,0,0,21.144211,784.698952,265.83492)">
            </g>
            <text x="713.02px" y="265.83px" style="font-family:'ArialMT', 'Arial', sans-serif;font-size:21.14px;fill:#2b2b2b;fill-opacity:0.99;">6.09 m²</text>
        </g>
        <g transform="matrix(1,0,0,1,-79.203543,136.356246)">
            <text x="640.16px" y="96.52px" style="font-family:'ArialMT', 'Arial', sans-serif;font-size:21.14px;fill:#2b2b2b;fill-opacity:0.99;">Prádelna</text>
            <g transform="matrix(21.144211,0,0,21.144211,718.320591,120.14283)">
            </g>
            <text x="646.64px" y="120.14px" style="font-family:'ArialMT', 'Arial', sans-serif;font-size:21.14px;fill:#2b2b2b;fill-opacity:0.99;">3.36 m²</text>
        </g>
        <path d="M50.25,1012.73l88.75,0l0,-75l40.83,-31.67l-129.58,0l0,106.67Zm73.33,-18.75l-61.67,0l0,-65.83l61.67,0l0,65.83Z" style="fill:#e5fffe;fill-opacity:0.5;"/>
        <path d="M179.84,937.73l-40.83,0l0,75l159.17,0l0,-106.67l-118.33,0l0,31.67Z" style="fill:#bedcff;"/>
        <rect x="61.92" y="928.15" width="61.67" height="65.83" style="fill:#bedcff;"/>
        <path d="M179.84,937.73l0,-31.67l-40.83,31.67l40.83,0Z" style="fill:#e5fffe;fill-opacity:0.5;"/>
        <path d="M298.17,906.07l-247.92,0l0,106.67l247.92,0l0,-106.67Z" style="fill:none;stroke:#000;stroke-width:0.77px;"/>
        <path d="M139,1012.73l0,-75l40.83,-31.67l0,31.67l-40.83,0" style="fill:none;fill-rule:nonzero;stroke:#000;stroke-width:0.77px;"/>
        <path d="M123.59,928.15l-61.67,0l0,65.83l61.67,0l0,-65.83Z" style="fill:none;stroke:#000;stroke-width:0.77px;"/>
        <path d="M131.5,850.23l23.75,-12.08l1.25,2.5c0.42,0.83 0.83,1.25 1.67,1.67c0.83,0 1.67,0 2.5,-0.42c14.17,-9.17 19.17,-27.08 11.67,-42.08c-7.5,-15 -25,-21.67 -40.42,-15.83c-0.83,0.42 -1.67,0.83 -1.67,1.67c-0.42,0.83 -0.42,1.67 0,2.5l1.25,2.5l-23.75,11.67l23.75,47.92Z" style="fill:#cfd4a2;"/>
        <path d="M131.5,790.65l-23.75,11.67" style="fill:none;fill-rule:nonzero;stroke:#000;stroke-width:0.77px;"/>
        <path d="M131.92,783.98c-0.83,0.42 -1.67,0.83 -1.67,1.67c-0.42,0.83 -0.42,1.67 0,2.5" style="fill:none;fill-rule:nonzero;stroke:#000;stroke-width:0.77px;"/>
        <path d="M155.25,838.15l1.25,2.5" style="fill:none;fill-rule:nonzero;stroke:#000;stroke-width:0.77px;"/>
        <path d="M130.25,788.15l1.25,2.5" style="fill:none;fill-rule:nonzero;stroke:#000;stroke-width:0.77px;"/>
        <path d="M155.25,838.15c12.92,-6.67 18.33,-22.5 11.67,-35.83c-6.25,-12.92 -22.5,-18.33 -35.42,-11.67" style="fill:none;fill-rule:nonzero;stroke:#000;stroke-width:0.77px;"/>
        <path d="M160.67,841.9c14.17,-9.17 19.17,-27.08 11.67,-42.08c-7.5,-15 -25,-21.67 -40.42,-15.83" style="fill:none;fill-rule:nonzero;stroke:#000;stroke-width:0.77px;"/>
        <path d="M131.5,850.23l23.75,-12.08" style="fill:none;fill-rule:nonzero;stroke:#000;stroke-width:0.77px;"/>
        <path d="M107.75,802.32l23.75,47.92" style="fill:none;fill-rule:nonzero;stroke:#000;stroke-width:0.77px;"/>
        <path d="M156.5,840.65c0.42,0.83 0.83,1.25 1.67,1.67c0.83,0 1.67,0 2.5,-0.42" style="fill:none;fill-rule:nonzero;stroke:#000;stroke-width:0.77px;"/>
        <path d="M121.09,758.57l-70.83,0l0,147.5l70.83,0l0,-147.5Z" style="fill:#ddb682;stroke:#000;stroke-width:0.77px;"/>
        <path d="M304,1012.73l71.25,0l0,-35.83l-71.25,0l0,35.83Z" style="fill:#ddb682;stroke:#000;stroke-width:0.77px;"/>
        <path d="M375.25,976.9l-71.25,35.83" style="fill:none;fill-rule:nonzero;stroke:#000;stroke-width:0.3px;"/>
        <path d="M375.25,1012.73l70.83,0l0,-35.83l-70.83,0l0,35.83Z" style="fill:#ddb682;stroke:#000;stroke-width:0.77px;"/>
        <path d="M446.09,976.9l-70.83,35.83" style="fill:none;fill-rule:nonzero;stroke:#000;stroke-width:0.3px;"/>
        <path d="M50.25,268.57l88.75,0l0,-75l40.83,-31.25l-129.58,0l0,106.25Zm73.33,-18.75l-61.67,0l0,-65.42l61.67,0l0,65.42Z" style="fill:#e5fffe;fill-opacity:0.5;"/>
        <path d="M179.84,193.57l-40.83,0l0,75l159.17,0l0,-106.25l-118.33,0l0,31.25Z" style="fill:#bedcff;"/>
        <rect x="61.92" y="184.4" width="61.67" height="65.42" style="fill:#bedcff;"/>
        <path d="M179.84,193.57l0,-31.25l-40.83,31.25l40.83,0Z" style="fill:#e5fffe;fill-opacity:0.5;"/>
        <path d="M298.17,162.32l-247.92,0l0,106.25l247.92,0l0,-106.25Z" style="fill:none;stroke:#000;stroke-width:0.77px;"/>
        <path d="M139,268.57l0,-75l40.83,-31.25l0,31.25l-40.83,0" style="fill:none;fill-rule:nonzero;stroke:#000;stroke-width:0.77px;"/>
        <path d="M123.59,184.4l-61.67,0l0,65.42l61.67,0l0,-65.42Z" style="fill:none;stroke:#000;stroke-width:0.77px;"/>
        <rect x="688.17" y="690.23" width="141.67" height="70.83" style="fill:#ddb682;stroke:#000;stroke-width:0.77px;"/>
        <path d="M829.84,690.23l-70.83,70.83l-70.83,-70.83" style="fill:none;fill-rule:nonzero;stroke:#000;stroke-width:0.3px;"/>
        <rect x="688.17" y="520.65" width="47.08" height="47.5" style="fill:#ddb682;stroke:#000;stroke-width:0.77px;"/>
        <rect x="688.17" y="261.07" width="47.08" height="47.08" style="fill:#ddb682;stroke:#000;stroke-width:0.77px;"/>
        <rect x="696.09" y="326.9" width="59.17" height="70.83" style="fill:#69b2ff;fill-opacity:0.5;"/>
        <path d="M936.09,520.65l-100.83,0l0,-64.58l-75.83,0l0,-147.92l176.67,0l0,212.5Z" style="fill:#69b2ff;fill-opacity:0.5;"/>
        <path d="M759.42,456.07l75.83,64.58l-147.08,0l0,-212.5l71.25,0l0,147.92Zm-4.17,-58.33l0,-70.83l-59.17,0l0,70.83l59.17,0Zm0,104.58l0,-70.83l-59.17,0l0,70.83l59.17,0Z" style="fill:#e5fcff;fill-opacity:0.5;"/>
        <rect x="696.09" y="431.48" width="59.17" height="70.83" style="fill:#69b2ff;fill-opacity:0.5;"/>
        <path d="M835.25,520.65l-75.83,-64.58l75.83,0l0,64.58Z" style="fill:#e5fcff;fill-opacity:0.5;"/>
        <path d="M735.25,568.15l-47.08,0l0,-307.08l47.08,0l0,47.08l200.83,0l0,212.5l-200.83,0l0,47.5Z" style="fill:none;fill-rule:nonzero;stroke:#000;stroke-width:0.77px;"/>
        <rect x="696.09" y="431.48" width="59.17" height="70.83" style="fill:none;stroke:#000;stroke-width:0.77px;"/>
        <path d="M755.25,326.9l-59.17,0l0,70.83l59.17,0l0,-70.83Z" style="fill:none;stroke:#000;stroke-width:0.77px;"/>
        <path d="M759.42,308.15l0,147.92l75.83,64.58l0,-64.58l-75.83,0" style="fill:none;fill-rule:nonzero;stroke:#000;stroke-width:0.77px;"/>
        <path d="M735.25,520.65l-47.08,0" style="fill:none;fill-rule:nonzero;stroke:#000;stroke-width:0.77px;"/>
        <path d="M735.25,308.15l-47.08,0" style="fill:none;fill-rule:nonzero;stroke:#000;stroke-width:0.77px;"/>
        <path d="M103.17,349.82l12.08,-24.17l-2.5,-1.25c-0.83,0 -1.25,-0.83 -1.67,-1.67c0,-0.83 0,-1.67 0.42,-2.5c8.75,-14.17 27.08,-19.17 42.08,-11.67c14.58,7.5 21.67,25 15.83,40.42c-0.42,0.83 -0.83,1.67 -1.67,2.08c-0.83,0 -1.67,0 -2.5,-0.42l-2.5,-1.25l-12.08,24.17l-47.5,-23.75Z" style="fill:#cfd4a2;"/>
        <path d="M162.75,349.4l-12.08,24.17" style="fill:none;fill-rule:nonzero;stroke:#000;stroke-width:0.77px;"/>
        <path d="M169.42,348.98c-0.42,0.83 -0.83,1.67 -1.67,2.08c-0.83,0 -1.67,0 -2.5,-0.42" style="fill:none;fill-rule:nonzero;stroke:#000;stroke-width:0.77px;"/>
        <path d="M115.25,325.65l-2.5,-1.25" style="fill:none;fill-rule:nonzero;stroke:#000;stroke-width:0.77px;"/>
        <path d="M165.25,350.65l-2.5,-1.25" style="fill:none;fill-rule:nonzero;stroke:#000;stroke-width:0.77px;"/>
        <path d="M115.25,325.65c6.67,-12.92 22.5,-18.33 35.42,-11.67c13.33,6.67 18.75,22.5 12.08,35.42" style="fill:none;fill-rule:nonzero;stroke:#000;stroke-width:0.77px;"/>
        <path d="M111.5,320.23c8.75,-14.17 27.08,-19.17 42.08,-11.67c14.58,7.5 21.67,25 15.83,40.42" style="fill:none;fill-rule:nonzero;stroke:#000;stroke-width:0.77px;"/>
        <path d="M103.17,349.82l12.08,-24.17" style="fill:none;fill-rule:nonzero;stroke:#000;stroke-width:0.77px;"/>
        <path d="M150.67,373.57l-47.5,-23.75" style="fill:none;fill-rule:nonzero;stroke:#000;stroke-width:0.77px;"/>
        <path d="M112.75,324.4c-0.83,0 -1.25,-0.83 -1.67,-1.67c0,-0.83 0,-1.67 0.42,-2.5" style="fill:none;fill-rule:nonzero;stroke:#000;stroke-width:0.77px;"/>
        <path d="M50.25,410.23l70.83,0l0,-141.67l-70.83,0l0,141.67Z" style="fill:#ddb682;stroke:#000;stroke-width:0.77px;"/>
        <rect x="829.84" y="690.23" width="141.67" height="70.83" style="fill:#ddb682;stroke:#000;stroke-width:0.77px;"/>
        <path d="M971.5,690.23l-70.83,70.83l-70.83,-70.83" style="fill:none;fill-rule:nonzero;stroke:#000;stroke-width:0.3px;"/>
        <rect x="971.5" y="690.23" width="112.08" height="70.83" style="fill:#ddb682;stroke:#000;stroke-width:0.77px;"/>
        <path d="M1083.59,690.23l-55.83,70.83l-56.25,-70.83" style="fill:none;fill-rule:nonzero;stroke:#000;stroke-width:0.3px;"/>
        <path d="M998.17,242.32l12.08,23.75l-2.5,1.25c-0.83,0.42 -1.25,1.25 -1.67,2.08c-0.42,0.83 0,1.67 0.42,2.08c8.75,14.17 27.08,19.17 42.08,11.67c14.58,-7.5 21.67,-25 15.83,-40.42c-0.42,-0.83 -1.25,-1.25 -2.08,-1.67c-0.42,-0.42 -1.67,-0.42 -2.08,0l-2.5,1.25l-12.08,-23.75l-47.5,23.75Z" style="fill:#cfd4a2;"/>
        <path d="M1057.75,242.32l-12.08,-23.75" style="fill:none;fill-rule:nonzero;stroke:#000;stroke-width:0.77px;"/>
        <path d="M1064.42,242.73c-0.42,-0.83 -1.25,-1.25 -2.08,-1.67c-0.42,-0.42 -1.67,-0.42 -2.08,0" style="fill:none;fill-rule:nonzero;stroke:#000;stroke-width:0.77px;"/>
        <path d="M1010.25,266.07l-2.5,1.25" style="fill:none;fill-rule:nonzero;stroke:#000;stroke-width:0.77px;"/>
        <path d="M1060.25,241.07l-2.5,1.25" style="fill:none;fill-rule:nonzero;stroke:#000;stroke-width:0.77px;"/>
        <path d="M1010.25,266.07c6.25,13.33 22.5,18.33 35.42,12.08c13.33,-6.67 18.33,-22.5 12.08,-35.83" style="fill:none;fill-rule:nonzero;stroke:#000;stroke-width:0.77px;"/>
        <path d="M1006.5,271.48c8.75,14.17 27.08,19.17 42.08,11.67c14.58,-7.5 21.67,-25 15.83,-40.42" style="fill:none;fill-rule:nonzero;stroke:#000;stroke-width:0.77px;"/>
        <path d="M998.17,242.32l12.08,23.75" style="fill:none;fill-rule:nonzero;stroke:#000;stroke-width:0.77px;"/>
        <path d="M1045.67,218.57l-47.5,23.75" style="fill:none;fill-rule:nonzero;stroke:#000;stroke-width:0.77px;"/>
        <path d="M1007.75,267.32c-0.83,0.42 -1.25,1.25 -1.67,2.08c-0.42,0.83 0,1.67 0.42,2.08" style="fill:none;fill-rule:nonzero;stroke:#000;stroke-width:0.77px;"/>
        <rect x="941.92" y="162.32" width="141.67" height="70.83" style="fill:#ddb682;stroke:#000;stroke-width:0.77px;"/>
        <path d="M767.75,991.07l-40.42,0l-0.83,-42.08c0.42,-11.25 9.58,-20.42 21.25,-20.42c11.25,0 20.83,9.17 21.25,20.42l-1.25,42.08Z" style="fill:#e0e0e0;stroke:#000;stroke-width:0.3px;"/>
        <path d="M747.75,932.73c-3.75,0 -7.08,0.83 -10,2.92c-5,3.75 -7.92,9.58 -7.92,15.83c0.42,6.25 3.33,11.67 8.33,15.42c2.92,1.67 6.25,2.92 9.58,2.92c3.33,0 6.67,-1.25 9.58,-2.92c5,-3.75 7.92,-9.17 7.92,-15.42c0.42,-6.25 -2.5,-12.08 -7.5,-15.83c-2.92,-2.08 -6.25,-2.92 -10,-2.92Z" style="fill:#b4b4b4;stroke:#000;stroke-width:0.3px;"/>
        <path d="M747.75,991.07l0,-2.5" style="fill:none;fill-rule:nonzero;stroke:#000;stroke-width:0.3px;"/>
        <path d="M737.75,966.9c0.42,-1.67 0.42,-2.92 0.83,-4.58c0,-1.25 0.42,-2.5 1.25,-3.75c0.42,-1.25 1.67,-2.08 2.5,-2.92c0.83,-0.83 1.67,-1.25 2.5,-1.25c0.83,-0.42 1.67,-0.42 2.08,-0.42l0.83,0" style="fill:none;fill-rule:nonzero;stroke:#000;stroke-width:0.3px;"/>
        <path d="M738.59,961.9c0.42,0.42 1.25,0.83 2.08,1.25c0.83,0.42 1.67,0.83 2.5,1.25c0.83,-0 1.67,-0 2.5,0.42l2.08,0" style="fill:none;fill-rule:nonzero;stroke:#000;stroke-width:0.3px;"/>
        <path d="M740.25,977.32c0,-0.69 -0.65,-1.25 -1.46,-1.25c-0.8,0 -1.46,0.56 -1.46,1.25c0,0.69 0.65,1.25 1.46,1.25c0.8,0 1.46,-0.56 1.46,-1.25Z" style="fill:none;stroke:#000;stroke-width:0.3px;"/>
        <path d="M757.34,966.9c0,-1.67 0,-2.92 -0.42,-4.58c-0.42,-1.25 -0.83,-2.5 -1.25,-3.75c-0.83,-1.25 -1.67,-2.08 -2.5,-2.92c-0.83,-0.83 -1.67,-1.25 -2.92,-1.25c-0.42,-0.42 -1.25,-0.42 -1.67,-0.42l-0.83,0" style="fill:none;fill-rule:nonzero;stroke:#000;stroke-width:0.3px;"/>
        <path d="M756.92,961.9c-0.83,0.42 -1.25,0.83 -2.08,1.25c-0.83,0.42 -1.67,0.83 -2.5,1.25c-0.83,-0 -1.67,-0 -2.5,0.42l-2.08,0" style="fill:none;fill-rule:nonzero;stroke:#000;stroke-width:0.3px;"/>
        <path d="M755.25,977.32c0,0.69 0.56,1.25 1.25,1.25c0.69,0 1.25,-0.56 1.25,-1.25c0,-0.69 -0.56,-1.25 -1.25,-1.25c-0.69,0 -1.25,0.56 -1.25,1.25Z" style="fill:none;stroke:#000;stroke-width:0.3px;"/>
        <path d="M860.67,975.23l-25.83,0c-3.33,0 -5,-1.67 -5,-5l0,-24.58c0,-3.33 1.67,-5 5,-5l54.58,0c3.33,0 5,1.67 5,5l0,24.58c0,3.33 -1.67,5 -5,5l-19.58,0" style="fill:none;fill-rule:nonzero;stroke:#000;stroke-width:0.3px;"/>
        <path d="M816.92,933.57l164.58,0c1.25,0 1.67,0.42 1.67,1.67l0,55.42c0,0.42 0,0.42 -0.42,0.42l-166.67,0c0,0 -0.42,0 -0.42,-0.42l0,-55.42c0,-1.25 0.42,-1.67 1.25,-1.67Z" style="fill:#f7f7f7;stroke:#000;stroke-width:1.48px;"/>
        <path d="M942.34,979.82l-0.42,0" style="fill:none;fill-rule:nonzero;stroke:#000;stroke-width:0.3px;"/>
        <path d="M935.67,975.23l-26.25,0c-2.92,0 -4.58,-1.67 -4.58,-5l0,-24.58c0,-3.33 1.67,-5 4.58,-5l55,0c2.92,0 4.58,1.67 4.58,5l0,24.58c0,3.33 -1.67,5 -4.58,5l-20,0" style="fill:none;fill-rule:nonzero;stroke:#000;stroke-width:0.3px;"/>
        <path d="M869.84,979.4l0.42,0c0,0 0.42,0 0.42,0.42l0,4.17l-3.33,0l0,-4.17c0,-0.42 0,-0.42 0.42,-0.42l1.25,0" style="fill:none;fill-rule:nonzero;stroke:#000;stroke-width:0.3px;"/>
        <path d="M944.42,979.4l0.83,0l0,4.58l-2.92,0l0,-4.58l1.25,0" style="fill:none;fill-rule:nonzero;stroke:#000;stroke-width:0.3px;"/>
        <path d="M863.17,981.9l0,-25.42c0,-0.83 -0.42,-1.25 -1.25,-1.25c-0.42,0 -0.83,0.42 -0.83,1.25c0,8.75 -0.42,17.08 -0.42,25.42c0,0.42 0.42,0.42 0.42,0.83c0.42,0 0.42,0.42 0.83,0.42c0.42,0 0.83,-0.42 0.83,-0.42c0.42,-0.42 0.42,-0.42 0.42,-0.83Z" style="fill:none;fill-rule:nonzero;stroke:#000;stroke-width:0.3px;"/>
        <path d="M938.17,981.9l0,-25.42c0,-0.83 -0.42,-1.25 -1.25,-1.25c-0.83,0 -1.25,0.42 -1.25,1.25l0,25.42c0,0.42 0,0.42 0.42,0.83c0,0 0.42,0.42 0.83,0.42c0.42,0 0.42,-0.42 0.83,-0.42c0,-0.42 0.42,-0.42 0.42,-0.83Z" style="fill:none;fill-rule:nonzero;stroke:#000;stroke-width:0.3px;"/>
        <path d="M942.34,983.57l-0.42,0" style="fill:none;fill-rule:nonzero;stroke:#000;stroke-width:0.3px;"/>
        <path d="M863.17,963.57c1.25,0.42 1.67,1.25 1.67,2.5c0,1.25 -0.83,2.08 -1.67,2.5" style="fill:none;fill-rule:nonzero;stroke:#000;stroke-width:0.3px;"/>
        <path d="M938.17,963.57c0.83,0.42 1.67,1.25 1.67,2.5c0,1.25 -0.83,2.08 -1.67,2.5" style="fill:none;fill-rule:nonzero;stroke:#000;stroke-width:0.3px;"/>
        <path d="M863.17,978.98c1.25,0.42 2.08,1.67 1.67,3.33c-0.42,1.67 -1.25,2.5 -2.92,2.5c-1.25,0 -2.5,-0.83 -2.92,-2.5c0,-1.67 0.42,-2.92 1.67,-3.33" style="fill:none;fill-rule:nonzero;stroke:#000;stroke-width:0.3px;"/>
        <path d="M938.17,978.98c1.25,0.42 1.67,1.67 1.67,3.33c-0.42,1.67 -1.67,2.5 -2.92,2.5c-1.67,0 -2.5,-0.83 -2.92,-2.5c-0.42,-1.67 0.42,-2.92 1.67,-3.33" style="fill:none;fill-rule:nonzero;stroke:#000;stroke-width:0.3px;"/>
        <path d="M860.67,968.57c-0.83,-0.42 -1.25,-1.67 -1.25,-2.5c0,-1.25 0.42,-2.08 1.67,-2.5" style="fill:none;fill-rule:nonzero;stroke:#000;stroke-width:0.3px;"/>
        <path d="M935.67,968.57c-0.83,-0.42 -1.25,-1.67 -1.25,-2.5c0,-1.25 0.42,-2.08 1.25,-2.5" style="fill:none;fill-rule:nonzero;stroke:#000;stroke-width:0.3px;"/>
        <path d="M863.59,984.4l3.75,0l0,-5l-3.33,0" style="fill:none;fill-rule:nonzero;stroke:#000;stroke-width:0.3px;"/>
        <path d="M938.59,984.4l3.33,0l0,-5l-2.92,0" style="fill:none;fill-rule:nonzero;stroke:#000;stroke-width:0.3px;"/>
        <path d="M869,980.65l0,-7.08c0,-0.42 0,-0.42 0.42,-0.42c0,0 0.42,0 0.42,0.42l0,7.08" style="fill:none;fill-rule:nonzero;stroke:#000;stroke-width:0.3px;"/>
        <path d="M943.59,980.65l0,-7.08c0,-0.42 0.42,-0.42 0.42,-0.42l0.42,0l0,7.5" style="fill:none;fill-rule:nonzero;stroke:#000;stroke-width:0.3px;"/>
        <path d="M869,975.23l-5.83,0" style="fill:none;fill-rule:nonzero;stroke:#000;stroke-width:0.3px;"/>
        <path d="M943.59,975.23l-5.42,0" style="fill:none;fill-rule:nonzero;stroke:#000;stroke-width:0.3px;"/>
        <path d="M860.67,975.23l-25.83,0c-3.33,0 -5,-1.67 -5,-5l0,-24.58c0,-3.33 1.67,-5 5,-5l54.58,0c3.33,0 5,1.67 5,5l0,24.58c0,3.33 -1.67,5 -5,5l-19.58,0" style="fill:none;fill-rule:nonzero;stroke:#000;stroke-width:0.3px;"/>
        <path d="M988.59,778.57c-3.33,0 -5.42,1.67 -5.42,5.42l0,201.67c0,3.75 2.08,5.42 5.42,5.42l89.58,0c3.75,0 5.42,-1.67 5.42,-5.42l0,-201.67c0,-3.75 -1.67,-5.42 -5.42,-5.42l-89.58,0Z" style="fill:#f7f7f7;stroke:#000;stroke-width:1.48px;"/>
        <path d="M1031.5,969.4c-12.08,-0.42 -20,-5.83 -23.33,-15.42c0,-0.42 -0.42,-1.25 -0.42,-2.08c-6.67,-45.42 -9.17,-83.75 -7.5,-114.58l0,-0.42c2.08,-17.5 12.92,-26.67 33.33,-27.08c20,0.42 31.25,9.58 32.92,27.08l0,0.42c2.08,30.83 -0.42,69.17 -7.08,114.58c-0.42,0.83 -0.42,1.67 -0.83,2.08c-3.33,9.58 -10.83,15 -23.33,15.42" style="fill:none;fill-rule:nonzero;stroke:#000;stroke-width:0.3px;"/>
        <path d="M1035.67,971.48c0,-2.08 -0.42,-2.92 -2.08,-2.92c-1.67,0 -2.5,0.83 -2.5,2.92c0,3.75 -0.42,7.08 -0.42,10.83c-0.42,1.25 0,2.08 0.42,2.92c0.83,0.83 1.67,1.25 2.5,1.25c0.83,0 1.67,-0.42 2.08,-1.25c0.83,-0.83 0.83,-1.67 0.83,-2.92c0,-3.75 -0.42,-7.08 -0.83,-10.83Z" style="fill:none;fill-rule:nonzero;stroke:#000;stroke-width:0.3px;"/>
        <path d="M1031.5,974.82c-0.42,2.92 -0.42,5.42 -0.83,8.33c0,0.83 0.42,1.67 0.83,2.08c0.42,0.83 1.25,0.83 2.08,0.83c0.83,0 1.25,0 2.08,-0.83c0.42,-0.42 0.42,-1.25 0.42,-2.08c0,-2.92 -0.42,-5.42 -0.42,-8.33c0,-1.67 -0.83,-2.08 -2.08,-2.08c-1.67,0 -2.08,0.42 -2.08,2.08Z" style="fill:none;fill-rule:nonzero;stroke:#000;stroke-width:0.3px;"/>
        <path d="M1033.59,956.48c2.08,0 3.75,-1.25 3.75,-3.33c0,-2.08 -1.67,-3.75 -3.75,-3.75c-2.5,0 -4.17,1.67 -4.17,3.75c0,2.08 1.67,3.33 4.17,3.33" style="fill:none;fill-rule:nonzero;stroke:#000;stroke-width:0.3px;"/>
        <path d="M1030.67,979.4c-17.08,-0.83 -28.33,-7.08 -33.75,-18.75c-0.42,-0.83 -0.83,-1.67 -1.25,-2.5c-6.25,-52.5 -8.75,-97.92 -7.5,-135.42l0,-1.25c3.33,-23.75 18.33,-35.83 45.42,-36.67c27.08,0.83 42.08,12.92 45,36.67c0.42,0.42 0.42,0.83 0.42,1.25c1.25,37.5 -1.25,82.92 -7.92,135.42c0,0.83 -0.42,1.67 -0.83,2.5c-5.42,11.67 -16.67,17.92 -33.75,18.75" style="fill:none;fill-rule:nonzero;stroke:#000;stroke-width:0.3px;"/>
        <rect x="50.25" y="546.07" width="141.67" height="70.83" style="fill:#ddb682;stroke:#000;stroke-width:0.77px;"/>
        <path d="M50.25,546.07l70.83,70.83l70.83,-70.83" style="fill:none;fill-rule:nonzero;stroke:#000;stroke-width:0.3px;"/>
        <rect x="191.92" y="546.07" width="47.5" height="70.83" style="fill:#ddb682;stroke:#000;stroke-width:0.77px;"/>
        <path d="M191.92,546.07l23.75,70.83l23.75,-70.83" style="fill:none;fill-rule:nonzero;stroke:#000;stroke-width:0.3px;"/>
        <rect x="304" y="563.98" width="142.08" height="70.83" style="fill:#ddb682;stroke:#000;stroke-width:0.77px;"/>
        <path d="M446.09,634.82l-70.83,-70.83l-71.25,70.83" style="fill:none;fill-rule:nonzero;stroke:#000;stroke-width:0.3px;"/>
        <rect x="256.92" y="563.57" width="47.08" height="70.83" style="fill:#ddb682;stroke:#000;stroke-width:0.77px;"/>
        <path d="M304,634.4l-23.33,-70.83l-23.75,70.83" style="fill:none;fill-rule:nonzero;stroke:#000;stroke-width:0.3px;"/>
        <rect x="410.67" y="162.32" width="35.42" height="70.83" style="fill:#ddb682;stroke:#000;stroke-width:0.77px;"/>
        <path d="M410.67,233.15l35.42,-70.83" style="fill:none;fill-rule:nonzero;stroke:#000;stroke-width:0.3px;"/>
        <rect x="410.67" y="233.15" width="35.42" height="70.83" style="fill:#ddb682;stroke:#000;stroke-width:0.77px;"/>
        <path d="M410.67,303.98l35.42,-70.83" style="fill:none;fill-rule:nonzero;stroke:#000;stroke-width:0.3px;"/>
        <rect x="410.67" y="303.98" width="35.42" height="65" style="fill:#ddb682;stroke:#000;stroke-width:0.77px;"/>
        <path d="M410.67,368.98l35.42,-65" style="fill:none;fill-rule:nonzero;stroke:#000;stroke-width:0.3px;"/>
        <path d="M444.84,563.57l1.25,-0.83m-22.08,0.83l17.5,-17.5m-38.33,17.5l17.5,-17.5m-38.33,17.5l17.5,-17.5m-38.33,17.5l17.5,-17.5m-38.75,17.5l17.92,-17.5m-38.75,17.5l17.92,-17.5m-38.75,17.5l17.92,-17.5m-38.75,17.5l17.92,-17.5m-38.75,17.5l17.92,-17.5" style="fill:none;fill-rule:nonzero;stroke:#000;stroke-opacity:0.31;stroke-width:1.48px;"/>
        <path d="M256.92,546.07l189.17,0m0,17.5l-189.17,0" style="fill:none;fill-rule:nonzero;stroke:#2b2b2b;stroke-width:2.95px;stroke-linecap:round;"/>
        <path d="M248.17,625.65l8.75,-8.75m-17.5,-3.33l17.5,-17.5m-17.5,-3.33l17.5,-17.5m-17.5,-3.33l17.5,-17.5m-17.5,-3.33l5,-5" style="fill:none;fill-rule:nonzero;stroke:#000;stroke-opacity:0.31;stroke-width:1.48px;"/>
        <path d="M239.42,546.07l17.5,0m0,17.5l0,70.83l-8.75,0m-8.75,-17.5l0,-70.83" style="fill:none;fill-rule:nonzero;stroke:#2b2b2b;stroke-width:2.95px;stroke-linecap:round;"/>
        <path d="M670.25,761.07l17.92,-17.92m-17.92,-2.92l17.92,-17.92m-17.92,-3.33l17.92,-17.5m-17.92,-3.33l17.92,-17.5m-17.92,-3.33l1.67,-1.25m1.67,-106.25l14.58,-14.58m-17.92,-2.92l17.92,-17.92m-17.92,-2.92l17.92,-17.92m-17.92,-3.33l17.92,-17.5m-17.92,-3.33l17.92,-17.5m-17.92,-3.33l17.92,-17.5m-17.92,-3.33l17.92,-17.5m-17.92,-3.33l17.92,-17.92m-17.92,-2.92l17.92,-17.92m-17.92,-2.92l17.92,-17.92m-17.92,-2.92l17.92,-17.92m-17.92,-2.92l17.92,-17.92m-17.92,-3.33l17.92,-17.5m-17.92,-3.33l17.92,-17.5m-17.92,-3.33l17.92,-17.5m-17.92,-3.33l17.92,-17.5m-17.92,-3.33l17.92,-17.92m-17.92,-2.92l17.92,-17.92m-17.92,-2.92l17.92,-17.92m-17.92,-2.92l14.17,-14.17" style="fill:none;fill-rule:nonzero;stroke:#000;stroke-opacity:0.31;stroke-width:1.48px;"/>
        <path d="M670.25,569.82l0,-142.08m0,-17.5l0,-247.92m17.92,0l0,407.5l-17.92,0m17.92,106.25l0,85m-17.92,0l0,-85l17.92,0" style="fill:none;fill-rule:nonzero;stroke:#2b2b2b;stroke-width:2.95px;stroke-linecap:round;"/>
        <path d="M652.75,426.9l16.67,-16.67m-143.33,17.5l17.92,-17.5m-38.75,17.5l17.92,-17.5m-38.75,17.5l17.92,-17.5m-38.75,17.5l17.92,-17.5" style="fill:none;fill-rule:nonzero;stroke:#000;stroke-opacity:0.31;stroke-width:1.48px;"/>
        <path d="M670.25,427.73l-17.5,0l0,-17.5l17.5,0m-123.75,17.5l-82.92,0m11.67,-17.5l71.25,0l0,17.5" style="fill:none;fill-rule:nonzero;stroke:#2b2b2b;stroke-width:2.95px;stroke-linecap:round;"/>
        <path d="M446.09,1012.32l17.5,-17.5m-17.5,-3.33l17.5,-17.5m-17.5,-3.33l17.5,-17.5m-17.5,-3.33l17.5,-17.5m-17.5,-3.33l17.5,-17.5m-17.5,-3.33l17.5,-17.92m-17.5,-2.92l17.5,-17.92m-17.5,-2.92l17.5,-17.92m-17.5,-2.92l17.5,-17.92m-17.5,-2.92l17.5,-17.92m-17.5,-3.33l17.5,-17.5m-17.5,-3.33l17.5,-17.5m-17.5,-3.33l17.5,-17.5m-17.5,-3.33l5.83,-6.25m11.25,-94.17l0.42,-0.83m-17.5,-2.92l17.5,-17.92m-17.5,-3.33l17.5,-17.5m-17.5,-3.33l17.5,-17.5m-17.5,-3.33l17.5,-17.5m-17.5,-3.33l12.92,-12.92m2.08,-106.25l2.5,-2.92m-17.5,-3.33l17.5,-17.5m-17.5,-3.33l17.5,-17.5m-17.5,-3.33l17.5,-17.5m-17.5,-3.33l17.5,-17.5m-17.5,-3.33l17.5,-17.92m-17.5,-2.92l17.5,-17.92m-17.5,-2.92l17.5,-17.92m-17.5,-2.92l17.5,-17.92m-17.5,-2.92l17.5,-17.92m-17.5,-3.33l17.5,-17.5m-17.5,-3.33l17.5,-17.5m-17.5,-3.33l17.5,-17.5m-17.5,-3.33l15,-15" style="fill:none;fill-rule:nonzero;stroke:#000;stroke-opacity:0.31;stroke-width:1.48px;"/>
        <path d="M463.59,427.73l0,6.25l-17.5,0l0,-271.67m0,377.92l17.5,0l0,100.42l-17.5,0l0,-77.08m0,-17.5l0,-5.83m0,472.5l0,-277.92l17.5,0l0,277.92" style="fill:none;fill-rule:nonzero;stroke:#2b2b2b;stroke-width:2.95px;stroke-linecap:round;"/>
        <path d="M670.25,1012.32l17.92,-17.5m-17.92,-3.33l17.92,-17.5m-17.92,-3.33l17.92,-17.5m-17.92,-3.33l17.92,-17.5m-17.92,-3.33l17.92,-17.5m-17.92,-3.33l2.08,-2.08m10.83,-94.17l5,-5m-17.92,-3.33l17.92,-17.5m-17.92,-3.33l4.17,-4.17" style="fill:none;fill-rule:nonzero;stroke:#000;stroke-opacity:0.31;stroke-width:1.48px;"/>
        <path d="M688.17,811.9l-17.92,0l0,-33.33m17.92,0l0,33.33m-17.92,200.83l0,-106.67l17.92,0l0,85" style="fill:none;fill-rule:nonzero;stroke:#2b2b2b;stroke-width:2.95px;stroke-linecap:round;"/>
        <path d="M238.17,634.4l10,-9.58m-30.83,9.58l17.5,-17.5m-38.33,17.5l17.5,-17.5m-38.33,17.5l17.5,-17.5m-38.33,17.5l17.5,-17.5m-38.75,17.5l17.92,-17.5m-38.75,17.5l17.92,-17.5m-38.75,17.5l17.92,-17.5m-38.75,17.5l17.92,-17.5m-38.75,17.5l17.92,-17.5" style="fill:none;fill-rule:nonzero;stroke:#000;stroke-opacity:0.31;stroke-width:1.48px;"/>
        <path d="M239.42,634.4l-189.17,0m0,-17.5l189.17,0m8.75,17.5l-8.75,0" style="fill:none;fill-rule:nonzero;stroke:#2b2b2b;stroke-width:2.95px;stroke-linecap:round;"/>
        <path d="M1066.92,778.57l16.67,-16.67m-37.5,16.67l17.92,-17.5m-38.75,17.5l17.92,-17.5m-38.75,17.5l17.5,-17.5m-38.33,17.5l17.5,-17.5m-38.33,17.5l17.5,-17.5m-38.33,17.5l17.5,-17.5m-38.33,17.5l17.5,-17.5m-38.75,17.5l17.92,-17.5m-38.75,17.5l17.92,-17.5m-38.75,17.5l17.92,-17.5m-38.75,17.5l17.92,-17.5m-38.75,17.5l17.5,-17.5m-38.33,17.5l17.5,-17.5m-38.33,17.5l17.5,-17.5m-38.33,17.5l17.5,-17.5m-38.33,17.5l17.5,-17.5m-38.75,17.5l17.92,-17.5m-38.75,17.5l17.92,-17.5m-38.75,17.5l17.92,-17.5" style="fill:none;fill-rule:nonzero;stroke:#000;stroke-opacity:0.31;stroke-width:1.48px;"/>
        <path d="M688.17,761.07l395.42,0m0,17.5l-395.42,0m-17.92,0l0,-17.5" style="fill:none;fill-rule:nonzero;stroke:#2b2b2b;stroke-width:2.95px;stroke-linecap:round;"/>
        <rect x="50.25" y="1012.73" width="413.33" height="35.42" style="fill:#fff;fill-opacity:0.1;"/>
        <path d="M446.92,1048.15l16.67,-16.67m-37.5,16.67l35.42,-35.42m-56.25,35.42l35.42,-35.42m-56.25,35.42l35.42,-35.42m-56.25,35.42l35.42,-35.42m-56.25,35.42l35.42,-35.42m-56.67,35.42l35.42,-35.42m-56.25,35.42l35.42,-35.42m-56.25,35.42l35.42,-35.42m-56.25,35.42l35.42,-35.42m-56.25,35.42l35.42,-35.42m-56.25,35.42l35.42,-35.42m-56.25,35.42l35.42,-35.42m-56.25,35.42l35.42,-35.42m-56.25,35.42l35.42,-35.42m-56.67,35.42l35.42,-35.42m-56.25,35.42l35.42,-35.42m-56.25,35.42l35.42,-35.42m-56.25,35.42l35.42,-35.42m-56.25,35.42l35.42,-35.42m-35.42,14.17l14.58,-14.17m398.75,10l-10.42,-10m10.42,30.83l-31.25,-30.83m14.58,35.42l-35.42,-35.42m14.58,35.42l-35.42,-35.42m14.58,35.42l-35.42,-35.42m14.58,35.42l-35.42,-35.42m14.58,35.42l-35.42,-35.42m14.58,35.42l-35.83,-35.42m14.58,35.42l-35.42,-35.42m14.58,35.42l-35.42,-35.42m14.58,35.42l-35.42,-35.42m14.58,35.42l-35.42,-35.42m14.58,35.42l-35.42,-35.42m14.58,35.42l-35.42,-35.42m14.58,35.42l-35.42,-35.42m14.58,35.42l-35.42,-35.42m14.58,35.42l-35.83,-35.42m14.58,35.42l-35.42,-35.42m14.58,35.42l-35.42,-35.42m14.58,35.42l-35.42,-35.42m14.58,35.42l-20.83,-21.25" style="fill:none;fill-rule:nonzero;stroke:#000;stroke-opacity:0.31;stroke-width:1.48px;"/>
        <path d="M50.25,1012.73l395.83,0m17.5,0l0,35.42l-413.33,0" style="fill:none;fill-rule:nonzero;stroke:#2b2b2b;stroke-width:2.95px;stroke-linecap:round;"/>
        <rect x="14.84" y="162.32" width="35.42" height="885.83" style="fill:#fff;fill-opacity:0.1;"/>
        <path d="M35.67,1048.15l14.58,-14.58m-35.42,14.58l35.42,-35.42m-35.42,14.17l35.42,-35.42m-35.42,14.58l35.42,-35.42m-35.42,14.58l35.42,-35.42m-35.42,14.58l35.42,-35.42m-35.42,14.58l35.42,-35.42m-35.42,14.58l35.42,-35.42m-35.42,14.58l35.42,-35.42m-35.42,14.58l35.42,-35.42m-35.42,14.58l35.42,-35.42m-35.42,14.17l35.42,-35.42m-35.42,14.58l35.42,-35.42m-35.42,14.58l35.42,-35.42m-35.42,14.58l35.42,-35.42m-35.42,14.58l35.42,-35.42m-35.42,14.58l35.42,-35.42m-35.42,14.58l35.42,-35.42m-35.42,14.58l35.42,-35.42m-35.42,14.58l35.42,-35.42m-35.42,14.17l35.42,-35.42m-35.42,14.58l35.42,-35.42m-35.42,14.58l35.42,-35.42m-35.42,14.58l35.42,-35.42m-35.42,14.58l35.42,-35.42m-35.42,14.58l35.42,-35.42m-35.42,14.58l35.42,-35.42m-35.42,14.58l35.42,-35.42m-35.42,14.58l35.42,-35.42m-35.42,14.17l35.42,-35.42m-35.42,14.58l35.42,-35.42m-35.42,14.58l35.42,-35.42m-35.42,14.58l35.42,-35.42m-35.42,14.58l35.42,-35.42m-35.42,14.58l35.42,-35.42m-35.42,14.58l35.42,-35.42m-35.42,14.58l35.42,-35.42m-35.42,14.58l35.42,-35.42m-35.42,14.17l35.42,-35.42m-35.42,14.58l35.42,-35.42m-35.42,14.58l35.42,-35.42m-35.42,14.58l35.42,-35.42m-35.42,14.58l29.58,-29.58m-29.58,8.75l8.75,-8.75m26.67,2.5l-2.5,-2.5m2.5,23.33l-23.33,-23.33m23.33,44.17l-35.42,-35.42m35.42,56.25l-35.42,-35.42m35.42,56.25l-35.42,-35.42m35.42,56.25l-35.42,-35.42m35.42,56.25l-35.42,-35.42m35.42,56.67l-35.42,-35.83m35.42,56.67l-35.42,-35.42m35.42,56.25l-35.42,-35.42m35.42,56.25l-35.42,-35.42m35.42,56.25l-35.42,-35.42m35.42,56.25l-35.42,-35.42m35.42,56.25l-35.42,-35.42m35.42,56.25l-35.42,-35.42m35.42,56.25l-35.42,-35.42m35.42,56.67l-35.42,-35.83m35.42,56.67l-35.42,-35.42m35.42,56.25l-35.42,-35.42m35.42,56.25l-35.42,-35.42m35.42,56.25l-35.42,-35.42m35.42,56.25l-35.42,-35.42m35.42,56.25l-35.42,-35.42m35.42,56.25l-35.42,-35.42m35.42,56.25l-35.42,-35.42m35.42,56.25l-35.42,-35.42m35.42,56.67l-35.42,-35.42m35.42,56.25l-35.42,-35.42m35.42,56.25l-35.42,-35.42m35.42,56.25l-35.42,-35.42m35.42,56.25l-35.42,-35.42m35.42,56.25l-35.42,-35.42m35.42,56.25l-35.42,-35.42m35.42,56.25l-35.42,-35.42m35.42,56.25l-35.42,-35.42m35.42,56.67l-35.42,-35.42m35.42,56.25l-35.42,-35.42m35.42,56.25l-35.42,-35.42m35.42,56.25l-35.42,-35.42m35.42,56.25l-35.42,-35.42m35.42,56.25l-35.42,-35.42m35.42,56.25l-35.42,-35.42m35.42,56.25l-35.42,-35.42m20.83,42.08l-20.83,-21.25" style="fill:none;fill-rule:nonzero;stroke:#000;stroke-opacity:0.31;stroke-width:1.48px;"/>
        <path d="M14.84,1048.15l0,-885.83m35.42,0l0,454.58m0,17.5l0,378.33m0,35.42l-35.42,0" style="fill:none;fill-rule:nonzero;stroke:#2b2b2b;stroke-width:2.95px;stroke-linecap:round;"/>
        <path d="M670.25,1048.15l413.33,0l0,-35.42l-413.33,0l0,35.42Z" style="fill:#fff;fill-opacity:0.1;"/>
        <path d="M1066.92,1048.15l16.67,-16.67m-37.5,16.67l35.42,-35.42m-56.25,35.42l35.42,-35.42m-56.25,35.42l35.42,-35.42m-56.25,35.42l35.42,-35.42m-56.25,35.42l35.42,-35.42m-56.25,35.42l35.42,-35.42m-56.25,35.42l35.42,-35.42m-56.67,35.42l35.42,-35.42m-56.25,35.42l35.42,-35.42m-56.25,35.42l35.42,-35.42m-56.25,35.42l35.42,-35.42m-56.25,35.42l35.42,-35.42m-56.25,35.42l35.42,-35.42m-56.25,35.42l35.42,-35.42m-56.25,35.42l35.42,-35.42m-56.25,35.42l35.42,-35.42m-56.67,35.42l35.42,-35.42m-56.25,35.42l35.42,-35.42m-56.25,35.42l35.42,-35.42m-35.42,14.17l14.58,-14.17m398.75,10l-10.42,-10m10.42,30.83l-31.25,-30.83m14.58,35.42l-35.42,-35.42m14.58,35.42l-35.42,-35.42m14.58,35.42l-35.42,-35.42m14.58,35.42l-35.42,-35.42m14.58,35.42l-35.42,-35.42m14.58,35.42l-35.42,-35.42m14.58,35.42l-35.42,-35.42m14.58,35.42l-35.83,-35.42m14.58,35.42l-35.42,-35.42m14.58,35.42l-35.42,-35.42m14.58,35.42l-35.42,-35.42m14.58,35.42l-35.42,-35.42m14.58,35.42l-35.42,-35.42m14.58,35.42l-35.42,-35.42m14.58,35.42l-35.42,-35.42m14.58,35.42l-35.42,-35.42m14.58,35.42l-35.83,-35.42m14.58,35.42l-35.42,-35.42m14.58,35.42l-20.83,-21.25" style="fill:none;fill-rule:nonzero;stroke:#000;stroke-opacity:0.31;stroke-width:1.48px;"/>
        <path d="M1083.59,1048.15l-413.33,0l0,-35.42" style="fill:none;fill-rule:nonzero;stroke:#2b2b2b;stroke-width:2.95px;stroke-linecap:round;"/>
        <rect x="1083.59" y="162.32" width="35.42" height="885.83" style="fill:#fff;fill-opacity:0.1;"/>
        <path d="M1104.42,1048.15l14.58,-14.58m-35.42,14.17l35.42,-35.42m-35.42,14.58l35.42,-35.42m-35.42,14.58l35.42,-35.42m-35.42,14.58l35.42,-35.42m-35.42,14.58l35.42,-35.42m-35.42,14.58l35.42,-35.42m-35.42,14.58l35.42,-35.42m-35.42,14.58l35.42,-35.42m-35.42,14.58l35.42,-35.42m-35.42,14.58l35.42,-35.83m-35.42,14.58l35.42,-35.42m-35.42,14.58l35.42,-35.42m-35.42,14.58l35.42,-35.42m-35.42,14.58l35.42,-35.42m-35.42,14.58l35.42,-35.42m-35.42,14.58l35.42,-35.42m-35.42,14.58l35.42,-35.42m-35.42,14.58l35.42,-35.42m-35.42,14.58l35.42,-35.83m-35.42,14.58l35.42,-35.42m-35.42,14.58l35.42,-35.42m-35.42,14.58l35.42,-35.42m-35.42,14.58l35.42,-35.42m-35.42,14.58l35.42,-35.42m-35.42,14.58l35.42,-35.42m-35.42,14.58l35.42,-35.42m-35.42,14.58l35.42,-35.42m-35.42,14.58l35.42,-35.83m-35.42,14.58l35.42,-35.42m-35.42,14.58l35.42,-35.42m-35.42,14.58l35.42,-35.42m-35.42,14.58l35.42,-35.42m-35.42,14.58l35.42,-35.42m-35.42,14.58l35.42,-35.42m-35.42,14.58l35.42,-35.42m-35.42,14.58l35.42,-35.42m-35.42,14.58l35.42,-35.42m-35.42,14.17l35.42,-35.42m-35.42,14.58l35.42,-35.42m-35.42,14.58l35.42,-35.42m-35.42,14.58l35.42,-35.42m-35.42,14.58l30,-29.58m-30,8.75l9.17,-8.75m26.25,2.5l-2.5,-2.5m2.5,23.33l-23.33,-23.33m23.33,44.17l-35.42,-35.42m35.42,56.25l-35.42,-35.42m35.42,56.25l-35.42,-35.42m35.42,56.25l-35.42,-35.42m35.42,56.25l-35.42,-35.42m35.42,56.67l-35.42,-35.42m35.42,56.25l-35.42,-35.42m35.42,56.25l-35.42,-35.42m35.42,56.25l-35.42,-35.42m35.42,56.25l-35.42,-35.42m35.42,56.25l-35.42,-35.42m35.42,56.25l-35.42,-35.42m35.42,56.25l-35.42,-35.42m35.42,56.25l-35.42,-35.42m35.42,56.67l-35.42,-35.83m35.42,56.67l-35.42,-35.42m35.42,56.25l-35.42,-35.42m35.42,56.25l-35.42,-35.42m35.42,56.25l-35.42,-35.42m35.42,56.25l-35.42,-35.42m35.42,56.25l-35.42,-35.42m35.42,56.25l-35.42,-35.42m35.42,56.25l-35.42,-35.42m35.42,56.67l-35.42,-35.83m35.42,56.67l-35.42,-35.42m35.42,56.25l-35.42,-35.42m35.42,56.25l-35.42,-35.42m35.42,56.25l-35.42,-35.42m35.42,56.25l-35.42,-35.42m35.42,56.25l-35.42,-35.42m35.42,56.25l-35.42,-35.42m35.42,56.25l-35.42,-35.42m35.42,56.67l-35.42,-35.83m35.42,56.67l-35.42,-35.42m35.42,56.25l-35.42,-35.42m35.42,56.25l-35.42,-35.42m35.42,56.25l-35.42,-35.42m35.42,56.25l-35.42,-35.42m35.42,56.25l-35.42,-35.42m35.42,56.25l-35.42,-35.42m35.42,56.25l-35.42,-35.42m20.83,42.08l-20.83,-21.25" style="fill:none;fill-rule:nonzero;stroke:#000;stroke-opacity:0.31;stroke-width:1.48px;"/>
        <path d="M1119,162.32l0,885.83l-35.42,0m0,-57.08l0,-212.5m0,-17.5l0,-598.75" style="fill:none;fill-rule:nonzero;stroke:#2b2b2b;stroke-width:2.95px;stroke-linecap:round;"/>
        <rect x="14.84" y="126.9" width="1104.17" height="35.42" style="fill:#fff;fill-opacity:0.1;"/>
        <path d="M1100.67,162.32l18.33,-18.75m-39.17,18.75l35.42,-35.42m-56.67,35.42l35.42,-35.42m-56.25,35.42l35.42,-35.42m-56.25,35.42l35.42,-35.42m-56.25,35.42l35.42,-35.42m-56.25,35.42l35.42,-35.42m-56.25,35.42l35.42,-35.42m-56.25,35.42l35.42,-35.42m-56.25,35.42l35.42,-35.42m-56.25,35.42l35.42,-35.42m-56.67,35.42l35.42,-35.42m-56.25,35.42l35.42,-35.42m-56.25,35.42l35.42,-35.42m-56.25,35.42l35.42,-35.42m-56.25,35.42l35.42,-35.42m-56.25,35.42l35.42,-35.42m-56.25,35.42l35.42,-35.42m-56.25,35.42l35.42,-35.42m-56.25,35.42l35.42,-35.42m-56.67,35.42l35.83,-35.42m-56.67,35.42l35.42,-35.42m-56.25,35.42l35.42,-35.42m-56.25,35.42l35.42,-35.42m-56.25,35.42l35.42,-35.42m-56.25,35.42l35.42,-35.42m-56.25,35.42l35.42,-35.42m-56.25,35.42l35.42,-35.42m-56.25,35.42l35.42,-35.42m-56.67,35.42l35.83,-35.42m-56.67,35.42l35.42,-35.42m-56.25,35.42l35.42,-35.42m-56.25,35.42l35.42,-35.42m-56.25,35.42l35.42,-35.42m-56.25,35.42l35.42,-35.42m-56.25,35.42l35.42,-35.42m-56.25,35.42l35.42,-35.42m-56.25,35.42l35.42,-35.42m-56.67,35.42l35.83,-35.42m-56.67,35.42l35.42,-35.42m-56.25,35.42l35.42,-35.42m-56.25,35.42l35.42,-35.42m-56.25,35.42l35.42,-35.42m-56.25,35.42l35.42,-35.42m-56.25,35.42l35.42,-35.42m-56.25,35.42l35.42,-35.42m-56.25,35.42l35.42,-35.42m-56.67,35.42l35.83,-35.42m-56.67,35.42l35.42,-35.42m-56.25,35.42l35.42,-35.42m-56.25,35.42l35.42,-35.42m-56.25,35.42l35.42,-35.42m-56.25,35.42l35.42,-35.42m-35.42,14.17l14.58,-14.17m1089.58,12.08l-12.08,-12.08m12.08,32.92l-32.92,-32.92m14.58,35.42l-35.42,-35.42m14.58,35.42l-35.42,-35.42m14.17,35.42l-35.42,-35.42m14.58,35.42l-35.42,-35.42m14.58,35.42l-35.42,-35.42m14.58,35.42l-35.42,-35.42m14.58,35.42l-35.42,-35.42m14.58,35.42l-35.42,-35.42m14.58,35.42l-35.42,-35.42m14.58,35.42l-35.42,-35.42m14.58,35.42l-35.42,-35.42m14.17,35.42l-35.42,-35.42m14.58,35.42l-35.42,-35.42m14.58,35.42l-35.42,-35.42m14.58,35.42l-35.42,-35.42m14.58,35.42l-35.42,-35.42m14.58,35.42l-35.42,-35.42m14.58,35.42l-35.42,-35.42m14.58,35.42l-35.42,-35.42m14.58,35.42l-35.42,-35.42m14.17,35.42l-35.42,-35.42m14.58,35.42l-35.42,-35.42m14.58,35.42l-35.42,-35.42m14.58,35.42l-35.42,-35.42m14.58,35.42l-35.42,-35.42m14.58,35.42l-35.42,-35.42m14.58,35.42l-35.42,-35.42m14.58,35.42l-35.42,-35.42m14.58,35.42l-35.42,-35.42m14.17,35.42l-35.42,-35.42m14.58,35.42l-35.42,-35.42m14.58,35.42l-35.42,-35.42m14.58,35.42l-35.42,-35.42m14.58,35.42l-35.42,-35.42m14.58,35.42l-35.42,-35.42m14.58,35.42l-35.42,-35.42m14.58,35.42l-35.42,-35.42m14.58,35.42l-35.42,-35.42m14.17,35.42l-35.42,-35.42m14.58,35.42l-35.42,-35.42m14.58,35.42l-35.42,-35.42m14.58,35.42l-35.42,-35.42m14.58,35.42l-35.42,-35.42m14.58,35.42l-35.42,-35.42m14.58,35.42l-35.42,-35.42m14.58,35.42l-35.42,-35.42m14.58,35.42l-35.42,-35.42m14.17,35.42l-35.42,-35.42m14.58,35.42l-35.42,-35.42m14.58,35.42l-35.42,-35.42m14.58,35.42l-35.42,-35.42m14.58,35.42l-20.83,-21.25" style="fill:none;fill-rule:nonzero;stroke:#000;stroke-opacity:0.31;stroke-width:1.48px;"/>
        <path d="M1083.59,126.9l35.42,0l0,35.42m-35.42,0l-395.42,0m-17.92,0l-195,0m-29.17,0l-395.83,0m-35.42,0l0,-35.42l1068.75,0" style="fill:none;fill-rule:nonzero;stroke:#2b2b2b;stroke-width:2.95px;stroke-linecap:round;"/>
        <path d="M534.42,870.65l-70.83,0l0,142.08l70.83,0l0,-142.08Z" style="fill:#ddb682;stroke:#000;stroke-width:0.77px;"/>
        <path d="M534.42,870.65l-70.83,70.83l70.83,71.25" style="fill:none;fill-rule:nonzero;stroke:#000;stroke-width:0.3px;"/>
        <path d="M534.42,734.82l-70.83,0l0,135.83l70.83,0l0,-135.83Z" style="fill:#ddb682;stroke:#000;stroke-width:0.77px;"/>
        <path d="M534.42,734.82l-70.83,67.92l70.83,67.92" style="fill:none;fill-rule:nonzero;stroke:#000;stroke-width:0.3px;"/>
        <path d="M534.42,569.82l-70.83,0l0,70.83l70.83,0l0,-70.83Z" style="fill:#ddb682;stroke:#000;stroke-width:0.77px;"/>
        <path d="M534.42,569.82l-70.83,35.42l70.83,35.42" style="fill:none;fill-rule:nonzero;stroke:#000;stroke-width:0.3px;"/>
        <rect x="463.59" y="162.32" width="11.67" height="247.92" style="fill:#ddd;"/>
        <path d="M475.25,162.32l0,247.92" style="fill:none;fill-rule:nonzero;stroke:#2b2b2b;stroke-width:2.95px;stroke-linecap:round;"/>
        <path d="M552.34,427.73l0,-17.5" style="fill:none;fill-rule:nonzero;stroke:#000;stroke-width:0.3px;"/>
        <path d="M646.92,427.73l0,-112.08" style="fill:none;fill-rule:nonzero;stroke:#000;stroke-width:0.3px;"/>
        <path d="M646.92,315.65c-52.5,0 -94.58,42.5 -94.58,94.58" style="fill:none;fill-rule:nonzero;stroke:#000;stroke-width:0.3px;"/>
        <rect x="546.5" y="410.23" width="106.25" height="17.5" style="fill:none;fill-rule:nonzero;stroke:#000;stroke-width:0.3px;"/>
        <path d="M544.84,172.32c2.08,16.67 2.08,33.75 -0.42,50.42l-3.33,0.42l-0.83,10l-65,0l0,-70.83l65,0l0.42,4.58l1.25,0l0,2.92l-0.83,0l0,2.5l3.75,0Z" style="fill:#f7f7f7;stroke:#000;stroke-width:1.48px;"/>
        <path d="M542.34,203.15l2.08,0l0,-10.83l-2.08,0" style="fill:none;fill-rule:nonzero;stroke:#18181b;stroke-width:0.3px;"/>
        <path d="M541.09,169.82l-0.42,-2.92" style="fill:none;fill-rule:nonzero;stroke:#18181b;stroke-width:0.3px;"/>
        <path d="M538.17,233.15l0,-18.75l3.75,0" style="fill:none;fill-rule:nonzero;stroke:#18181b;stroke-width:0.3px;"/>
        <path d="M536.09,233.15l0,-70.83" style="fill:none;fill-rule:nonzero;stroke:#18181b;stroke-width:0.3px;"/>
        <path d="M541.09,223.15c1.67,-16.67 1.67,-33.33 0,-50" style="fill:none;fill-rule:nonzero;stroke:#18181b;stroke-width:0.3px;"/>
        <ellipse cx="506.09" cy="197.32" rx="11.25" ry="13.75" style="fill:none;stroke:#bcbcbc;stroke-width:0.3px;"/>
        <path d="M506.09,183.98c0.42,0.42 0.83,1.25 0.83,2.08c0,0.83 -0.42,1.25 -0.83,2.08c-0.42,0.42 -0.83,0.83 -0.83,1.67c0,0.83 0.42,1.67 0.83,2.08c0.83,0.42 0.83,1.25 0.83,2.08c0,0.83 0,1.67 -0.83,2.08c-0.42,0.42 -0.83,1.25 -0.83,2.08c0,0.83 0.42,1.25 0.83,1.67c0.83,0.42 0.83,1.25 0.83,2.08c0,0.83 0,1.67 -0.83,2.08c-0.42,0.42 -0.83,1.25 -0.83,2.08c0,0.83 0.42,1.25 0.83,1.67c0.42,0.42 0.83,1.25 0.83,1.67c0,0.42 -0.42,1.25 -0.83,1.25" style="fill:none;fill-rule:nonzero;stroke:#bcbcbc;stroke-width:0.3px;"/>
        <path d="M544.84,243.15c2.08,16.67 2.08,33.75 -0.42,50.42l-3.33,0.42l-0.83,10l-65,0l0,-70.83l65,0l0.42,4.58l1.25,0l0,2.92l-0.83,0l0,2.92l3.75,-0.42Z" style="fill:#f7f7f7;stroke:#000;stroke-width:1.48px;"/>
        <path d="M542.34,273.98l2.08,0l0,-10.83l-2.08,0" style="fill:none;fill-rule:nonzero;stroke:#18181b;stroke-width:0.3px;"/>
        <path d="M541.09,240.65l-0.42,-2.92" style="fill:none;fill-rule:nonzero;stroke:#18181b;stroke-width:0.3px;"/>
        <path d="M538.17,303.98l0,-18.75l3.75,0" style="fill:none;fill-rule:nonzero;stroke:#18181b;stroke-width:0.3px;"/>
        <path d="M536.09,303.98l0,-70.83" style="fill:none;fill-rule:nonzero;stroke:#18181b;stroke-width:0.3px;"/>
        <path d="M541.09,293.98c1.67,-16.67 1.67,-33.33 0,-50" style="fill:none;fill-rule:nonzero;stroke:#18181b;stroke-width:0.3px;"/>
        <ellipse cx="506.09" cy="268.15" rx="11.25" ry="13.75" style="fill:none;stroke:#bcbcbc;stroke-width:0.3px;"/>
        <path d="M506.09,254.82c0.42,0.42 0.83,1.25 0.83,2.08c0,0.83 -0.42,1.67 -0.83,2.08c-0.42,0.42 -0.83,1.25 -0.83,2.08c0,0.83 0.42,1.25 0.83,1.67c0.83,0.42 0.83,1.25 0.83,2.08c0,0.83 0,1.67 -0.83,2.08c-0.42,0.42 -0.83,1.25 -0.83,2.08c0,0.83 0.42,1.25 0.83,2.08c0.83,0.42 0.83,0.83 0.83,1.67c0,0.83 0,1.67 -0.83,2.08c-0.42,0.42 -0.83,1.25 -0.83,2.08c0,0.83 0.42,1.67 0.83,2.08c0.42,0 0.83,0.83 0.83,1.25c0,0.42 -0.42,1.25 -0.83,1.67" style="fill:none;fill-rule:nonzero;stroke:#bcbcbc;stroke-width:0.3px;"/>
        <path d="M475.25,410.23l65,0l0,-106.25l-65,0l0,106.25Z" style="fill:#ddb682;stroke:#000;stroke-width:0.77px;"/>
        <path d="M540.25,410.23l-65,-53.33l65,-52.92" style="fill:none;fill-rule:nonzero;stroke:#000;stroke-width:0.3px;"/>
        <path d="M463.59,439.82l-17.5,0" style="fill:none;fill-rule:nonzero;stroke:#000;stroke-width:0.3px;"/>
        <path d="M463.59,534.4l-112.08,0" style="fill:none;fill-rule:nonzero;stroke:#000;stroke-width:0.3px;"/>
        <path d="M351.5,534.4c0,-52.5 42.08,-94.58 94.58,-94.58" style="fill:none;fill-rule:nonzero;stroke:#000;stroke-width:0.3px;"/>
        <rect x="446.09" y="433.98" width="17.5" height="106.25" style="fill:none;fill-rule:nonzero;stroke:#000;stroke-width:0.3px;"/>
        <rect x="446.09" y="640.65" width="17.5" height="94.17" style="fill:none;fill-rule:nonzero;stroke:#000;stroke-width:0.3px;"/>
        <path d="M463.59,646.48l-100.42,0" style="fill:none;fill-rule:nonzero;stroke:#000;stroke-width:0.3px;"/>
        <path d="M446.09,728.98c-45.83,0 -82.92,-37.08 -82.92,-82.5" style="fill:none;fill-rule:nonzero;stroke:#000;stroke-width:0.3px;"/>
        <path d="M446.09,728.98l17.5,0" style="fill:none;fill-rule:nonzero;stroke:#000;stroke-width:0.3px;"/>
        <rect x="670.25" y="811.9" width="17.92" height="94.17" style="fill:none;fill-rule:nonzero;stroke:#000;stroke-width:0.3px;"/>
        <path d="M670.25,817.73l100.42,0" style="fill:none;fill-rule:nonzero;stroke:#000;stroke-width:0.3px;"/>
        <path d="M688.17,900.23c45.42,0 82.5,-37.08 82.5,-82.5" style="fill:none;fill-rule:nonzero;stroke:#000;stroke-width:0.3px;"/>
        <path d="M688.17,900.23l-17.92,0" style="fill:none;fill-rule:nonzero;stroke:#000;stroke-width:0.3px;"/>
        <path d="M670.25,575.65l17.92,0" style="fill:none;fill-rule:nonzero;stroke:#000;stroke-width:0.3px;"/>
        <path d="M670.25,669.82l112.08,0" style="fill:none;fill-rule:nonzero;stroke:#000;stroke-width:0.3px;"/>
        <path d="M782.34,669.82c0,-52.08 -42.08,-94.17 -94.17,-94.17" style="fill:none;fill-rule:nonzero;stroke:#000;stroke-width:0.3px;"/>
        <rect x="670.25" y="569.4" width="17.92" height="106.67" style="fill:none;fill-rule:nonzero;stroke:#000;stroke-width:0.3px;"/>
    </g>
    <g id="anchorTop">
        <path d="M1244,126.9l-250,0" style="fill:none;fill-rule:nonzero;stroke:#f00;stroke-width:0.3px;"/>
        <path d="M1119,1.48l0,250.42" style="fill:none;fill-rule:nonzero;stroke:#f00;stroke-width:0.3px;"/>
    </g>
</svg>
