<?xml version="1.0" encoding="UTF-8" standalone="no"?><!DOCTYPE svg PUBLIC "-//W3C//DTD SVG 1.1//EN" "http://www.w3.org/Graphics/SVG/1.1/DTD/svg11.dtd"><svg width="100%" height="100%" viewBox="0 0 1421 1212" version="1.1" xmlns="http://www.w3.org/2000/svg" xmlns:xlink="http://www.w3.org/1999/xlink" xml:space="preserve" xmlns:serif="http://www.serif.com/" style="fill-rule:evenodd;clip-rule:evenodd;stroke-miterlimit:10;"><g id="top"><path d="M698.169,1033.359l-8.333,0l0,79.583l8.333,0l0,-79.583Z" style="fill:#fff;stroke:#000;stroke-width:0.34px;"/><path d="M699.419,1029.192l-11.25,0l0,4.167l11.25,0l0,-4.167Z" style="fill:#f7f7f7;stroke:#000;stroke-width:1.68px;"/><path d="M696.502,982.109l-5.417,0l0,94.167l5.417,0l0,-94.167Z" style="fill:#f7f7f7;stroke:#000;stroke-width:1.68px;"/><path d="M688.169,1029.192l0,-94.167" style="fill:none;fill-rule:nonzero;stroke:#bcbcbc;stroke-width:0.34px;"/><path d="M699.419,930.859l-11.25,0l0,4.167l11.25,0l0,-4.167Z" style="fill:#f7f7f7;stroke:#000;stroke-width:1.68px;"/><path d="M699.419,1029.192l0,-94.167" style="fill:none;fill-rule:nonzero;stroke:#bcbcbc;stroke-width:0.34px;"/><rect x="16.919" y="144.192" width="1259.583" height="1050.417" style="fill:#fff;"/><path d="M704.002,642.525l0,-457.917l532.083,0l0,599.167l-97.917,0l0,10.417l-102.5,0l0,-10.417l-250.833,0l0,-6.667l-10,0l0,-107.5l10,0l0,-27.083l-80.833,0Z" style="fill:#e0e0e0;fill-opacity:0.25;stroke:#a8a8a8;stroke-width:0.34px;"/><path d="M529.002,541.692l-20.417,0l0,80.417l-215.417,0l0,-40.417l-235.417,0l-0.417,-397.083l626.25,0l0,457.917l-6.667,0l0,10l-121.25,0l0,-10l-26.667,0l0,-100.833Z" style="fill:#e0e0e0;fill-opacity:0.25;stroke:#a8a8a8;stroke-width:0.34px;"/><path d="M508.585,750.442l10,0l0,120.833l-10,0l0,282.917l-451.25,0l0.417,-552.083l215.417,0l0,40.417l235.417,0l0,107.917Z" style="fill:#e0e0e0;fill-opacity:0.25;stroke:#a8a8a8;stroke-width:0.34px;"/><path d="M935.669,1140.859l-231.667,0l0,-107.5l-10,0l0,-102.5l10,0l0,-126.667l231.667,0l0,336.667Z" style="fill:#e0e0e0;fill-opacity:0.25;stroke:#a8a8a8;stroke-width:0.34px;"/><path d="M1138.169,794.192l0,10l73.333,0l0,336.667l-242.083,0l0,-336.667l66.25,0l0,-10l102.5,0Z" style="fill:#e0e0e0;fill-opacity:0.25;stroke:#a8a8a8;stroke-width:0.34px;"/><path d="M764.419,669.609l10.417,0l0,107.5l-10.417,0l0,6.667l-80.833,0l0,147.083l10.417,0l0,102.5l-10.417,0l0,161.25l-154.583,0l0,-323.333l-10.417,0l0,-120.833l10.417,0l0,-87.917l26.667,0l0,-10l121.25,0l0,10l87.5,0l0,7.083Z" style="fill:#e0e0e0;fill-opacity:0.25;stroke:#a8a8a8;stroke-width:0.34px;"/><g transform="matrix(1,0,0,1,153.362338,349.898893)"><text x="757.519px" y="272.48px" style="font-family:'ArialMT', 'Arial', sans-serif;font-size:24.11px;fill:#2b2b2b;fill-opacity:0.99;">Ložnice</text><g transform="matrix(24.109898,0,0,24.109898,846.651349,299.415259)"></g><text x="751.507px" y="299.415px" style="font-family:'ArialMT', 'Arial', sans-serif;font-size:24.11px;fill:#2b2b2b;fill-opacity:0.99;">17.06 m²</text></g><g transform="matrix(1,0,0,1,-275.400022,198.045668)"><text x="633.516px" y="224.526px" style="font-family:'ArialMT', 'Arial', sans-serif;font-size:24.11px;fill:#2b2b2b;fill-opacity:0.99;">Pokoj</text><g transform="matrix(24.109898,0,0,24.109898,711.248566,251.461609)"></g><text x="616.104px" y="251.462px" style="font-family:'ArialMT', 'Arial', sans-serif;font-size:24.11px;fill:#2b2b2b;fill-opacity:0.99;">14.74 m²</text></g><g transform="matrix(1,0,0,1,-378.124345,548.648076)"><text x="601.077px" y="335.243px" style="font-family:'ArialMT', 'Arial', sans-serif;font-size:24.11px;fill:#2b2b2b;fill-opacity:0.99;">Pokoj</text><g transform="matrix(24.109898,0,0,24.109898,678.809306,362.178159)"></g><text x="583.665px" y="362.178px" style="font-family:'ArialMT', 'Arial', sans-serif;font-size:24.11px;fill:#2b2b2b;fill-opacity:0.99;">13.28 m²</text></g><g transform="matrix(1,0,0,1,47.149704,649.642196)"><text x="717.956px" y="367.136px" style="font-family:'ArialMT', 'Arial', sans-serif;font-size:24.11px;fill:#2b2b2b;fill-opacity:0.99;">Koupelna</text><g transform="matrix(24.109898,0,0,24.109898,809.769815,394.071039)"></g><text x="728.034px" y="394.071px" style="font-family:'ArialMT', 'Arial', sans-serif;font-size:24.11px;fill:#2b2b2b;fill-opacity:0.99;">4.36 m²</text></g><g transform="matrix(1,0,0,1,290.237921,601.214616)"><text x="794.721px" y="351.843px" style="font-family:'ArialMT', 'Arial', sans-serif;font-size:24.11px;fill:#2b2b2b;fill-opacity:0.99;">Koupelna</text><g transform="matrix(24.109898,0,0,24.109898,886.534515,378.778119)"></g><text x="804.799px" y="378.778px" style="font-family:'ArialMT', 'Arial', sans-serif;font-size:24.11px;fill:#2b2b2b;fill-opacity:0.99;">4.56 m²</text></g><g transform="matrix(1,0,0,1,-122.438816,611.449621)"><text x="692.612px" y="355.075px" style="font-family:'ArialMT', 'Arial', sans-serif;font-size:24.11px;fill:#2b2b2b;fill-opacity:0.99;">Chodba</text><text x="681.905px" y="382.01px" style="font-family:'ArialMT', 'Arial', sans-serif;font-size:24.11px;fill:#2b2b2b;fill-opacity:0.99;">horní část</text><g transform="matrix(24.109898,0,0,24.109898,777.362753,408.945501)"></g><text x="695.627px" y="408.946px" style="font-family:'ArialMT', 'Arial', sans-serif;font-size:24.11px;fill:#2b2b2b;fill-opacity:0.99;">5.33 m²</text></g><path d="M780.252,1194.609l-2.083,0m-2.083,0l-4.167,0m-2.5,0l-4.167,0m-2.083,0l-4.167,0m-2.083,0l-4.583,0m-2.083,0l-4.167,0m-2.083,0l-4.167,0m-2.5,0l-4.167,0m-2.083,0l-4.167,0m-2.083,0l-4.583,0m-2.083,0l-4.167,0m-2.083,0l-4.167,0m-2.5,0l-4.167,0m-2.083,0l-4.167,0m-2.083,0l-4.583,0m-2.083,0l-4.167,0m-2.083,0l-4.167,0m-2.083,0l-4.583,0m-2.083,0l-4.167,0m-2.083,0l-4.583,0m-2.083,0l-4.167,0m-2.083,0l-4.167,0m-2.083,0l-4.583,0m-2.083,0l-4.167,0m-2.083,0l-4.583,0m-2.083,0l-4.167,0m-2.083,0l-4.167,0m-2.083,0l-4.583,0m-2.083,0l-4.167,0m-2.083,0l-4.167,0m-2.5,0l-4.167,0m-2.083,0l-4.167,0m-2.083,0l-4.583,0m-2.083,0l-4.167,0m-2.083,0l-4.167,0m-2.5,0l-4.167,0m-2.083,0l-4.167,0m-2.083,0l-4.583,0m-2.083,0l-4.167,0m-2.083,0l-4.167,0m-2.5,0l-4.167,0m-2.083,0l-4.167,0m-2.083,0l-4.583,0" style="fill:none;fill-rule:nonzero;stroke:#a8a8a8;stroke-width:0.34px;stroke-linecap:round;"/><path d="M969.419,804.192l-13.75,0l0,336.667l13.75,0l0,-336.667Z" style="fill:#ddd;"/><path d="M969.419,1140.859l0,-336.667" style="fill:none;fill-rule:nonzero;stroke:#2b2b2b;stroke-width:3.37px;stroke-linecap:round;"/><path d="M935.669,1140.859l-231.667,0l0,13.333l231.667,0l0,-13.333Z" style="fill:#ddd;"/><path d="M704.002,1140.859l231.667,0" style="fill:none;fill-rule:nonzero;stroke:#2b2b2b;stroke-width:3.37px;stroke-linecap:round;"/><path d="M1236.085,804.192l-24.583,0l0,336.667l24.583,0l0,-336.667Z" style="fill:#ddd;"/><path d="M1211.502,1140.859l0,-336.667" style="fill:none;fill-rule:nonzero;stroke:#2b2b2b;stroke-width:3.37px;stroke-linecap:round;"/><rect x="955.669" y="1140.859" width="280.417" height="13.333" style="fill:#ddd;"/><path d="M969.419,1140.859l242.083,0" style="fill:none;fill-rule:nonzero;stroke:#2b2b2b;stroke-width:3.37px;stroke-linecap:round;"/><path d="M508.585,642.525l-80.833,0l0,40.417l80.833,0l0,-40.417Z" style="fill:#ddb682;stroke:#000;stroke-width:0.88px;"/><path d="M427.752,682.942l80.833,-40.417" style="fill:none;fill-rule:nonzero;stroke:#000;stroke-width:0.34px;"/><path d="M427.752,642.525l-80.833,0l0,40.417l80.833,0l0,-40.417Z" style="fill:#ddb682;stroke:#000;stroke-width:0.88px;"/><path d="M346.919,682.942l80.833,-40.417" style="fill:none;fill-rule:nonzero;stroke:#000;stroke-width:0.34px;"/><path d="M346.919,642.525l-73.75,0l0,40.417l73.75,0l0,-40.417Z" style="fill:#ddb682;stroke:#000;stroke-width:0.88px;"/><path d="M273.169,682.942l73.75,-40.417" style="fill:none;fill-rule:nonzero;stroke:#000;stroke-width:0.34px;"/><rect x="57.752" y="602.109" width="161.25" height="80.833" style="fill:#ddb682;stroke:#000;stroke-width:0.88px;"/><path d="M219.002,682.942l-80.833,-80.833l-80.417,80.833" style="fill:none;fill-rule:nonzero;stroke:#000;stroke-width:0.34px;"/><rect x="219.002" y="602.109" width="54.167" height="80.833" style="fill:#ddb682;stroke:#000;stroke-width:0.88px;"/><path d="M273.169,682.942l-27.083,-80.833l-27.083,80.833" style="fill:none;fill-rule:nonzero;stroke:#000;stroke-width:0.34px;"/><path d="M57.752,581.692l80.417,0l0,-40l-80.417,0l0,40Z" style="fill:#ddb682;stroke:#000;stroke-width:0.88px;"/><path d="M138.169,541.692l-80.417,40" style="fill:none;fill-rule:nonzero;stroke:#000;stroke-width:0.34px;"/><path d="M138.169,581.692l80.833,0l0,-40l-80.833,0l0,40Z" style="fill:#ddb682;stroke:#000;stroke-width:0.88px;"/><path d="M219.002,541.692l-80.833,40" style="fill:none;fill-rule:nonzero;stroke:#000;stroke-width:0.34px;"/><path d="M219.002,581.692l74.167,0l0,-40l-74.167,0l0,40Z" style="fill:#ddb682;stroke:#000;stroke-width:0.88px;"/><path d="M293.169,541.692l-74.167,40" style="fill:none;fill-rule:nonzero;stroke:#000;stroke-width:0.34px;"/><rect x="346.919" y="541.692" width="161.667" height="80.417" style="fill:#ddb682;stroke:#000;stroke-width:0.88px;"/><path d="M346.919,541.692l80.833,80.417l80.833,-80.417" style="fill:none;fill-rule:nonzero;stroke:#000;stroke-width:0.34px;"/><rect x="293.169" y="541.692" width="53.75" height="80.417" style="fill:#ddb682;stroke:#000;stroke-width:0.88px;"/><path d="M293.169,541.692l27.083,80.417l26.667,-80.417" style="fill:none;fill-rule:nonzero;stroke:#000;stroke-width:0.34px;"/><path d="M784.835,480.859l-80.833,0l0,161.667l80.833,0l0,-161.667Z" style="fill:#ddb682;stroke:#000;stroke-width:0.88px;"/><path d="M784.835,480.859l-80.833,80.833l80.833,80.833" style="fill:none;fill-rule:nonzero;stroke:#000;stroke-width:0.34px;"/><path d="M784.835,319.192l-80.833,0l0,161.667l80.833,0l0,-161.667Z" style="fill:#ddb682;stroke:#000;stroke-width:0.88px;"/><path d="M784.835,319.192l-80.833,80.833l80.833,80.833" style="fill:none;fill-rule:nonzero;stroke:#000;stroke-width:0.34px;"/><path d="M784.835,184.609l-80.833,0l0,134.583l80.833,0l0,-134.583Z" style="fill:#ddb682;stroke:#000;stroke-width:0.88px;"/><path d="M784.835,184.609l-80.833,67.5l80.833,67.083" style="fill:none;fill-rule:nonzero;stroke:#000;stroke-width:0.34px;"/><rect x="969.419" y="1026.275" width="242.083" height="114.583" style="fill:#f7f7f7;stroke:#000;stroke-width:1.68px;"/><path d="M1135.252,1049.192l-89.167,0c-22.917,0 -34.583,11.667 -34.583,34.167c0,22.917 11.667,34.583 34.583,34.583l89.167,0c22.5,0 34.167,-11.667 34.167,-34.583c0,-22.5 -11.667,-34.167 -34.167,-34.167Z" style="fill:none;fill-rule:nonzero;stroke:#000;stroke-width:0.34px;"/><path d="M1092.752,1040.859c0,-3.333 0.417,-6.667 0.417,-10c0.417,-0.833 0,-1.667 -0.417,-2.5c-0.833,-0.833 -1.25,-0.833 -2.083,-0.833c-0.833,0 -1.667,0 -2.083,0.833c-0.833,0.833 -0.833,1.667 -0.833,2.5c0,3.333 0.417,6.667 0.417,10c0,2.083 0.833,2.917 2.5,2.917c1.25,0 2.083,-0.833 2.083,-2.917Z" style="fill:none;fill-rule:nonzero;stroke:#000;stroke-width:0.34px;"/><path d="M1087.335,1036.275l-55.833,0c-30,0 -45.417,15.833 -45.417,47.083c0,31.667 15.417,47.5 45.417,47.5l117.917,0c30.417,0 45.417,-15.833 45.417,-47.5c0,-31.25 -15,-47.083 -45.417,-47.083l-55.833,0" style="fill:none;fill-rule:nonzero;stroke:#000;stroke-width:0.34px;"/><path d="M1087.752,1085.442c0.833,1.667 2.917,2.083 4.583,0.833c1.667,-0.833 2.083,-2.917 0.833,-4.583c-0.833,-1.667 -2.917,-2.083 -4.583,-0.833c-1.667,0.833 -2.083,2.917 -0.833,4.583" style="fill:none;fill-rule:nonzero;stroke:#000;stroke-width:0.34px;"/><path d="M1087.752,1045.025c0,2.5 1.25,3.75 2.917,3.75c1.667,0 2.5,-1.25 2.5,-3.75c0,-4.167 0.417,-8.75 0.417,-13.333c0,-1.25 0,-2.5 -0.833,-3.333c-0.417,-0.833 -1.25,-1.25 -2.083,-1.25c-1.25,0 -2.083,0.417 -2.5,1.25c-0.833,0.833 -0.833,2.083 -0.833,3.333c0,4.583 0.417,9.167 0.417,13.333Z" style="fill:none;fill-rule:nonzero;stroke:#000;stroke-width:0.34px;"/><path d="M1087.335,1032.942l-57.917,0c-31.25,0 -46.667,17.083 -46.667,50.417c0,33.75 15.417,50.833 46.667,50.833l122.083,0c31.25,0 46.667,-17.083 46.667,-50.833c0,-33.333 -15.417,-50.417 -46.667,-50.417l-57.917,0" style="fill:none;fill-rule:nonzero;stroke:#000;stroke-width:0.34px;"/><path d="M987.752,975.442l0,29.583c0,3.333 1.667,5.417 5.833,5.417l27.917,0c3.75,0 5.833,-2.083 5.833,-5.417l0,-61.667c0,-3.75 -2.083,-5.417 -5.833,-5.417l-27.917,0c-4.167,0 -5.833,1.667 -5.833,5.417l0,22.083" style="fill:none;fill-rule:nonzero;stroke:#000;stroke-width:0.34px;"/><path d="M1035.252,1025.025l0,-185.417c0,-1.25 -0.833,-1.667 -2.083,-1.667l-63.333,0c-0.417,0 -0.417,0 -0.417,0.417l0,187.5c0,0.417 0,0.417 0.417,0.417l63.333,0c1.25,0 2.083,-0.417 2.083,-1.25Z" style="fill:#f7f7f7;stroke:#000;stroke-width:1.68px;"/><path d="M987.752,891.275l0,29.583c0,3.333 1.667,5.417 5.833,5.417l27.917,0c3.75,0 5.833,-2.083 5.833,-5.417l0,-61.667c0,-3.75 -2.083,-5.417 -5.833,-5.417l-27.917,0c-4.167,0 -5.833,1.667 -5.833,5.417l0,22.083" style="fill:none;fill-rule:nonzero;stroke:#000;stroke-width:0.34px;"/><path d="M982.752,965.442l0,-0.417c0,-0.417 0,-0.417 -0.417,-0.417l-4.583,0c-0.417,0 -0.417,0 -0.417,0.417l0,2.917c0,0.417 0,0.417 0.417,0.417l4.583,0c0.417,0 0.417,0 0.417,-0.417l0,-1.25" style="fill:none;fill-rule:nonzero;stroke:#000;stroke-width:0.34px;"/><path d="M982.752,881.275l0,-0.417c0,-0.417 0,-0.417 -0.417,-0.417l-4.583,0c-0.417,0 -0.417,0 -0.417,0.417l0,2.917c0,0 0,0.417 0.417,0.417l4.583,0c0.417,0 0.417,-0.417 0.417,-0.417l0,-1.667" style="fill:none;fill-rule:nonzero;stroke:#000;stroke-width:0.34px;"/><path d="M980.252,972.942l28.333,0c1.25,0 1.667,0.417 1.667,1.25c0,0.833 -0.417,1.25 -1.667,1.25l-29.583,0c0,-0.417 -0.417,-0.833 -0.417,-1.25c0,-0.417 0.417,-0.417 0.417,-0.833c0.417,-0.417 0.833,-0.417 1.25,-0.417Z" style="fill:none;fill-rule:nonzero;stroke:#000;stroke-width:0.34px;"/><path d="M980.252,888.775l28.333,0c1.25,0 1.667,0.417 1.667,1.25c0,0.833 -0.417,1.25 -1.667,1.25l-28.333,0c-0.417,0 -0.833,0 -1.25,-0.417c0,0 -0.417,-0.417 -0.417,-0.833c0,-0.417 0.417,-0.833 0.417,-0.833c0.417,-0.417 0.833,-0.417 1.25,-0.417Z" style="fill:none;fill-rule:nonzero;stroke:#000;stroke-width:0.34px;"/><path d="M1001.085,972.942c-0.417,-1.25 -1.667,-1.667 -2.917,-1.667c-1.25,0 -2.5,0.417 -2.917,1.667" style="fill:none;fill-rule:nonzero;stroke:#000;stroke-width:0.34px;"/><path d="M1001.085,888.775c-0.417,-1.25 -1.667,-2.083 -2.917,-2.083c-1.25,0.417 -2.5,0.833 -2.917,2.083" style="fill:none;fill-rule:nonzero;stroke:#000;stroke-width:0.34px;"/><path d="M983.585,972.942c-0.833,-1.667 -2.5,-2.083 -4.167,-2.083c-1.667,0.417 -2.917,1.667 -2.917,3.333c0,1.667 1.25,2.917 2.917,3.333c1.667,0.417 3.333,-0.417 4.167,-2.083" style="fill:none;fill-rule:nonzero;stroke:#000;stroke-width:0.34px;"/><path d="M983.585,888.775c-0.833,-1.667 -2.5,-2.5 -4.167,-2.083c-1.667,0.417 -2.917,1.667 -2.917,3.333c0,1.667 1.25,2.917 2.917,3.333c1.667,0.417 3.333,-0.417 4.167,-2.083" style="fill:none;fill-rule:nonzero;stroke:#000;stroke-width:0.34px;"/><path d="M995.252,975.442c0.417,1.25 1.667,1.667 2.917,1.667c1.25,0 2.083,-0.417 2.917,-1.667" style="fill:none;fill-rule:nonzero;stroke:#000;stroke-width:0.34px;"/><path d="M995.252,891.275c0.417,1.25 1.667,1.667 2.917,1.667c1.25,0 2.083,-0.417 2.917,-1.667" style="fill:none;fill-rule:nonzero;stroke:#000;stroke-width:0.34px;"/><path d="M977.335,972.525l0,-4.167l5.417,0l0,3.75" style="fill:none;fill-rule:nonzero;stroke:#000;stroke-width:0.34px;"/><path d="M977.335,888.359l0,-4.167l5.417,0l0,3.75" style="fill:none;fill-rule:nonzero;stroke:#000;stroke-width:0.34px;"/><path d="M981.502,966.692l7.917,0c0.417,0 0.417,-0.417 0.417,-0.417l0,-0.417c0,0 0,-0.417 -0.417,-0.417l-7.917,0" style="fill:none;fill-rule:nonzero;stroke:#000;stroke-width:0.34px;"/><path d="M981.502,882.109l7.917,0c0.417,0 0.417,0 0.417,-0.417c0,0 0,-0.417 -0.417,-0.417l-7.917,0" style="fill:none;fill-rule:nonzero;stroke:#000;stroke-width:0.34px;"/><path d="M987.752,966.692l0,6.25" style="fill:none;fill-rule:nonzero;stroke:#000;stroke-width:0.34px;"/><path d="M987.752,882.109l0,6.667" style="fill:none;fill-rule:nonzero;stroke:#000;stroke-width:0.34px;"/><path d="M987.752,975.442l0,29.583c0,3.333 1.667,5.417 5.833,5.417l27.917,0c3.75,0 5.833,-2.083 5.833,-5.417l0,-61.667c0,-3.75 -2.083,-5.417 -5.833,-5.417l-27.917,0c-4.167,0 -5.833,1.667 -5.833,5.417l0,22.083" style="fill:none;fill-rule:nonzero;stroke:#000;stroke-width:0.34px;"/><path d="M1211.502,862.942l0,46.25l-47.917,1.25c-12.917,-0.417 -23.333,-11.25 -23.333,-24.167c0,-13.333 10.417,-24.167 23.333,-24.583l47.917,1.25Z" style="fill:#e0e0e0;stroke:#000;stroke-width:0.34px;"/><path d="M1144.835,886.275c0,3.75 1.25,7.917 3.75,11.25c4.167,5.833 10.833,8.75 17.917,8.75c7.083,0 13.333,-3.75 17.5,-9.167c2.083,-3.333 3.333,-7.083 2.917,-10.833c0.417,-4.167 -0.833,-7.917 -2.917,-10.833c-4.167,-5.833 -10.417,-9.583 -17.5,-9.583c-7.083,0 -13.75,2.917 -17.917,8.75c-2.5,3.333 -3.75,7.5 -3.75,11.667Z" style="fill:#b4b4b4;stroke:#000;stroke-width:0.34px;"/><path d="M1211.502,886.275l-2.917,0" style="fill:none;fill-rule:nonzero;stroke:#000;stroke-width:0.34px;"/><path d="M1183.585,897.109c-1.25,0 -3.333,0 -4.583,-0.417c-1.667,-0.417 -3.333,-0.833 -4.583,-1.667c-1.25,-0.833 -2.5,-1.667 -3.333,-2.917c-0.833,-0.833 -1.25,-2.083 -1.667,-2.917l0,-2.917" style="fill:none;fill-rule:nonzero;stroke:#000;stroke-width:0.34px;"/><path d="M1178.169,896.692c0.833,-0.833 1.25,-1.667 1.667,-2.5c0.417,-0.833 0.833,-2.083 1.25,-2.917c-0,-0.833 0.417,-1.667 0.417,-2.917l0,-2.083" style="fill:none;fill-rule:nonzero;stroke:#000;stroke-width:0.34px;"/><ellipse cx="1195.877" cy="896.275" rx="1.458" ry="1.667" style="fill:none;stroke:#000;stroke-width:0.34px;"/><path d="M1183.585,875.025c-1.25,0 -3.333,0 -4.583,0.417c-1.667,0.417 -3.333,0.833 -4.583,1.667c-1.25,0.833 -2.5,1.667 -3.333,2.917c-0.833,0.833 -1.25,2.083 -1.667,2.917l0,3.333" style="fill:none;fill-rule:nonzero;stroke:#000;stroke-width:0.34px;"/><path d="M1178.169,875.442c0.833,0.833 1.25,1.667 1.667,2.5c0.417,0.833 0.833,2.083 1.25,2.917c-0,0.833 0.417,2.083 0.417,2.917c0,0.833 0,1.667 0,2.5" style="fill:none;fill-rule:nonzero;stroke:#000;stroke-width:0.34px;"/><path d="M1195.669,877.525c1.25,0 1.667,-0.833 1.667,-1.667c0,-0.833 -0.417,-1.667 -1.667,-1.667c-0.833,0 -1.25,0.833 -1.25,1.667c0,0.833 0.417,1.667 1.25,1.667Z" style="fill:none;fill-rule:nonzero;stroke:#000;stroke-width:0.34px;"/><rect x="1181.919" y="534.609" width="54.167" height="54.167" style="fill:#ddb682;stroke:#000;stroke-width:0.88px;"/><rect x="1181.919" y="238.359" width="54.167" height="54.167" style="fill:#ddb682;stroke:#000;stroke-width:0.88px;"/><rect x="1159.419" y="313.359" width="67.5" height="80.833" style="fill:#69b2ff;fill-opacity:0.5;"/><path d="M953.169,534.609l114.583,0l0,-73.75l86.667,0l0,-168.333l-201.25,0l0,242.083Z" style="fill:#69b2ff;fill-opacity:0.5;"/><path d="M1154.419,460.859l-86.667,73.75l168.333,0l0,-242.083l-81.667,0l0,168.333Zm5,-66.667l0,-80.833l67.5,0l0,80.833l-67.5,0Zm0,119.583l0,-80.833l67.5,0l0,80.833l-67.5,0Z" style="fill:#e5fcff;fill-opacity:0.5;"/><rect x="1159.419" y="432.942" width="67.5" height="80.833" style="fill:#69b2ff;fill-opacity:0.5;"/><path d="M1067.752,534.609l86.667,-73.75l-86.667,0l0,73.75Z" style="fill:#e5fcff;fill-opacity:0.5;"/><path d="M1181.919,588.775l54.167,0l0,-350.417l-54.167,0l0,54.167l-228.75,0l0,242.083l228.75,0l0,54.167Z" style="fill:none;fill-rule:nonzero;stroke:#000;stroke-width:0.88px;"/><rect x="1159.419" y="432.942" width="67.5" height="80.833" style="fill:none;stroke:#000;stroke-width:0.88px;"/><path d="M1226.919,313.359l-67.5,0l0,80.833l67.5,0l0,-80.833Z" style="fill:none;stroke:#000;stroke-width:0.88px;"/><path d="M1154.419,292.525l0,168.333l-86.667,73.75l0,-73.75l86.667,0" style="fill:none;fill-rule:nonzero;stroke:#000;stroke-width:0.88px;"/><path d="M1181.919,534.609l54.167,0" style="fill:none;fill-rule:nonzero;stroke:#000;stroke-width:0.88px;"/><path d="M1181.919,292.525l54.167,0" style="fill:none;fill-rule:nonzero;stroke:#000;stroke-width:0.88px;"/><path d="M1175.669,681.275l-13.75,-27.083l2.917,-1.667c0.833,-0.417 1.25,-1.25 1.667,-2.083c0.417,-0.833 0,-2.083 -0.417,-2.5c-10,-16.25 -30.833,-22.083 -47.917,-13.333c-17.083,8.333 -24.583,28.333 -17.917,46.25c0.417,0.833 0.833,1.25 1.667,1.667c1.25,0.417 2.083,0.417 2.917,0l2.917,-1.25l13.333,27.083l54.583,-27.083Z" style="fill:#cfd4a2;"/><path d="M1107.752,681.275l13.333,27.083" style="fill:none;fill-rule:nonzero;stroke:#000;stroke-width:0.88px;"/><path d="M1100.252,680.859c0.417,0.833 0.833,1.25 1.667,1.667c1.25,0.417 2.083,0.417 2.917,0" style="fill:none;fill-rule:nonzero;stroke:#000;stroke-width:0.88px;"/><path d="M1161.919,654.192l2.917,-1.667" style="fill:none;fill-rule:nonzero;stroke:#000;stroke-width:0.88px;"/><path d="M1104.835,682.525l2.917,-1.25" style="fill:none;fill-rule:nonzero;stroke:#000;stroke-width:0.88px;"/><path d="M1161.919,654.192c-7.5,-15 -25.833,-21.25 -40.833,-13.75c-15,7.5 -20.833,25.833 -13.333,40.833" style="fill:none;fill-rule:nonzero;stroke:#000;stroke-width:0.88px;"/><path d="M1166.085,647.942c-10,-16.25 -30.833,-22.083 -47.917,-13.333c-17.083,8.333 -24.583,28.333 -17.917,46.25" style="fill:none;fill-rule:nonzero;stroke:#000;stroke-width:0.88px;"/><path d="M1175.669,681.275l-13.75,-27.083" style="fill:none;fill-rule:nonzero;stroke:#000;stroke-width:0.88px;"/><path d="M1121.085,708.359l54.583,-27.083" style="fill:none;fill-rule:nonzero;stroke:#000;stroke-width:0.88px;"/><path d="M1164.835,652.525c0.833,-0.417 1.25,-1.25 1.667,-2.083c0.417,-0.833 0,-2.083 -0.417,-2.5" style="fill:none;fill-rule:nonzero;stroke:#000;stroke-width:0.88px;"/><path d="M1155.252,750.442l80.833,0l0,-161.667l-80.833,0l0,161.667Z" style="fill:#ddb682;stroke:#000;stroke-width:0.88px;"/><path d="M740.252,1074.609l158.75,0c0.833,0 1.667,0.833 1.667,2.083l0,63.333c0,0.417 -0.417,0.833 -0.833,0.833l-160.417,0c-0.417,0 -0.417,-0.417 -0.417,-0.833l0,-63.333c0,-1.25 0.417,-2.083 1.25,-2.083Z" style="fill:#f7f7f7;stroke:#000;stroke-width:1.68px;"/><path d="M856.919,1122.525l-27.917,0c-3.333,0 -5,-2.083 -5,-5.833l0,-27.917c0,-4.167 1.667,-5.833 5,-5.833l58.333,0c3.333,0 5,1.667 5,5.833l0,27.917c0,3.75 -1.667,5.833 -5,5.833l-21.25,0" style="fill:none;fill-rule:nonzero;stroke:#000;stroke-width:0.34px;"/><path d="M867.335,1127.525l0.833,0l0,5l-3.75,0l0,-5l2.083,0" style="fill:none;fill-rule:nonzero;stroke:#000;stroke-width:0.34px;"/><path d="M859.419,1130.025l0,-28.75c0,-0.833 -0.417,-1.25 -1.25,-1.25c-0.833,0 -1.25,0.417 -1.25,1.25c-0.417,9.583 -0.417,19.167 -0.417,28.75c0,0.417 0.417,0.833 0.417,0.833c0.417,0.417 0.833,0.417 1.25,0.417c0.417,0 0.417,0 0.833,-0.417c0.417,0 0.417,-0.417 0.417,-0.833Z" style="fill:none;fill-rule:nonzero;stroke:#000;stroke-width:0.34px;"/><path d="M859.419,1109.192c1.25,0.417 2.083,1.667 2.083,2.917c0,1.25 -0.833,2.5 -2.083,2.917" style="fill:none;fill-rule:nonzero;stroke:#000;stroke-width:0.34px;"/><path d="M859.419,1126.692c1.667,0.417 2.5,2.083 2.083,3.75c-0.417,1.667 -1.667,2.917 -3.333,2.917c-1.667,0 -3.333,-0.833 -3.75,-2.917c-0.417,-1.667 0.417,-2.917 2.083,-3.75" style="fill:none;fill-rule:nonzero;stroke:#000;stroke-width:0.34px;"/><path d="M856.502,1115.025c-0.833,-0.833 -1.667,-1.667 -1.667,-2.917c0,-1.25 0.833,-2.5 2.083,-2.917" style="fill:none;fill-rule:nonzero;stroke:#000;stroke-width:0.34px;"/><path d="M860.252,1132.942l4.167,0l0,-5.833l-4.167,0" style="fill:none;fill-rule:nonzero;stroke:#000;stroke-width:0.34px;"/><path d="M866.502,1128.775l0,-8.333c0,0 0,-0.417 0.417,-0.417c0.417,0 0.417,0.417 0.417,0.417l0,8.333" style="fill:none;fill-rule:nonzero;stroke:#000;stroke-width:0.34px;"/><path d="M866.502,1122.525l-7.083,0" style="fill:none;fill-rule:nonzero;stroke:#000;stroke-width:0.34px;"/><path d="M780.252,1122.525l-27.917,0c-3.75,0 -5.417,-2.083 -5.417,-5.833l0,-27.917c0,-4.167 1.667,-5.833 5.417,-5.833l58.333,0c3.333,0 5,1.667 5,5.833l0,27.917c0,3.75 -1.667,5.833 -5,5.833l-21.25,0" style="fill:none;fill-rule:nonzero;stroke:#000;stroke-width:0.34px;"/><path d="M787.752,1127.942l-0.417,0" style="fill:none;fill-rule:nonzero;stroke:#000;stroke-width:0.34px;"/><path d="M790.669,1127.525l0.833,0l0,5l-3.75,0l0,-5l1.667,0" style="fill:none;fill-rule:nonzero;stroke:#000;stroke-width:0.34px;"/><path d="M782.752,1130.025l0,-28.75c0,-0.833 -0.417,-1.25 -1.25,-1.25c-0.833,0 -1.667,0.417 -1.667,1.25l0,28.75c0,0.417 0,0.833 0.417,0.833c0.417,0.417 0.417,0.417 0.833,0.417c0.417,0 0.833,0 1.25,-0.417c0.417,0 0.417,-0.417 0.417,-0.833Z" style="fill:none;fill-rule:nonzero;stroke:#000;stroke-width:0.34px;"/><path d="M787.752,1132.109l-0.417,0" style="fill:none;fill-rule:nonzero;stroke:#000;stroke-width:0.34px;"/><path d="M782.752,1109.192c1.25,0.417 2.083,1.667 2.083,2.917c0,1.25 -0.833,2.5 -2.083,2.917" style="fill:none;fill-rule:nonzero;stroke:#000;stroke-width:0.34px;"/><path d="M782.752,1126.692c1.667,0.417 2.5,2.083 2.083,3.75c-0.417,1.667 -1.667,2.917 -3.333,2.917c-2.083,-0 -3.333,-0.833 -3.75,-2.917c-0.417,-1.667 0.417,-2.917 2.083,-3.75" style="fill:none;fill-rule:nonzero;stroke:#000;stroke-width:0.34px;"/><path d="M779.835,1115.025c-0.833,-0.833 -1.667,-1.667 -1.667,-2.917c0,-1.25 0.833,-2.5 1.667,-2.917" style="fill:none;fill-rule:nonzero;stroke:#000;stroke-width:0.34px;"/><path d="M783.169,1132.942l4.167,0l0,-5.833l-3.75,0" style="fill:none;fill-rule:nonzero;stroke:#000;stroke-width:0.34px;"/><path d="M789.419,1128.775l0,-8.333l0.417,-0.417l0.417,0l0.417,0.417l0,8.333" style="fill:none;fill-rule:nonzero;stroke:#000;stroke-width:0.34px;"/><path d="M789.419,1122.525l-6.667,0" style="fill:none;fill-rule:nonzero;stroke:#000;stroke-width:0.34px;"/><rect x="969.419" y="804.192" width="65.833" height="33.75" style="fill:#ddb682;stroke:#000;stroke-width:0.88px;"/><path d="M401.085,184.609l100.833,0l0,85l47.083,36.25l-147.917,0l0,-121.25Zm83.75,20.833l-70.417,0l0,75l70.417,0l0,-75Z" style="fill:#e5fffe;fill-opacity:0.5;"/><path d="M549.002,269.609l-47.083,0l0,-85l181.667,0l0,121.25l-134.583,0l0,-36.25Z" style="fill:#bedcff;"/><rect x="414.419" y="205.442" width="70.417" height="75" style="fill:#bedcff;"/><path d="M549.002,269.609l0,36.25l-47.083,-36.25l47.083,0Z" style="fill:#e5fffe;fill-opacity:0.5;"/><path d="M401.085,305.859l282.5,0l0,-121.25l-282.5,0l0,121.25Z" style="fill:none;stroke:#000;stroke-width:0.88px;"/><path d="M501.919,184.609l0,85l47.083,36.25l0,-36.25l-47.083,0" style="fill:none;fill-rule:nonzero;stroke:#000;stroke-width:0.88px;"/><path d="M414.419,280.442l70.417,0l0,-75l-70.417,0l0,75Z" style="fill:none;stroke:#000;stroke-width:0.88px;"/><path d="M336.919,275.859l-13.75,27.083l2.917,1.667c0.833,0.417 1.667,1.25 1.667,2.083c0.417,0.833 0,2.083 -0.417,2.917c-10,15.833 -30.833,21.667 -47.917,12.917c-16.667,-8.333 -24.583,-28.333 -17.917,-45.833c0.417,-1.25 1.25,-1.667 2.083,-2.083c0.833,-0.417 1.667,-0.417 2.5,0l2.917,1.25l13.75,-27.083l54.167,27.083Z" style="fill:#cfd4a2;"/><path d="M269.002,275.859l13.75,-27.083" style="fill:none;fill-rule:nonzero;stroke:#000;stroke-width:0.88px;"/><path d="M261.502,276.692c0.417,-1.25 1.25,-1.667 2.083,-2.083c0.833,-0.417 1.667,-0.417 2.5,0" style="fill:none;fill-rule:nonzero;stroke:#000;stroke-width:0.88px;"/><path d="M323.169,302.942l2.917,1.667" style="fill:none;fill-rule:nonzero;stroke:#000;stroke-width:0.88px;"/><path d="M266.085,274.609l2.917,1.25" style="fill:none;fill-rule:nonzero;stroke:#000;stroke-width:0.88px;"/><path d="M323.169,302.942c-7.5,15 -25.417,21.25 -40.417,13.75c-15,-7.5 -21.25,-25.833 -13.75,-40.833" style="fill:none;fill-rule:nonzero;stroke:#000;stroke-width:0.88px;"/><path d="M327.335,309.609c-10,15.833 -30.833,21.667 -47.917,12.917c-16.667,-8.333 -24.583,-28.333 -17.917,-45.833" style="fill:none;fill-rule:nonzero;stroke:#000;stroke-width:0.88px;"/><path d="M336.919,275.859l-13.75,27.083" style="fill:none;fill-rule:nonzero;stroke:#000;stroke-width:0.88px;"/><path d="M282.752,248.775l54.167,27.083" style="fill:none;fill-rule:nonzero;stroke:#000;stroke-width:0.88px;"/><path d="M326.085,304.609c0.833,0.417 1.667,1.25 1.667,2.083c0.417,0.833 0,2.083 -0.417,2.917" style="fill:none;fill-rule:nonzero;stroke:#000;stroke-width:0.88px;"/><rect x="239.419" y="184.609" width="161.667" height="80.833" style="fill:#ddb682;stroke:#000;stroke-width:0.88px;"/><path d="M225.669,1154.192l101.25,0l0,-85l46.667,-36.25l-147.917,0l0,121.25Zm83.75,-20.833l-70,0l0,-75l70,0l0,75Z" style="fill:#e5fffe;fill-opacity:0.5;"/><path d="M373.585,1069.192l-46.667,0l0,85l181.667,0l0,-121.25l-135,0l0,36.25Z" style="fill:#bedcff;"/><rect x="239.419" y="1058.359" width="70" height="75" style="fill:#bedcff;"/><path d="M373.585,1069.192l0,-36.25l-46.667,36.25l46.667,0Z" style="fill:#e5fffe;fill-opacity:0.5;"/><path d="M508.585,1032.942l-282.917,0l0,121.25l282.917,0l0,-121.25Z" style="fill:none;stroke:#000;stroke-width:0.88px;"/><path d="M326.919,1154.192l0,-85l46.667,-36.25l0,36.25l-46.667,0" style="fill:none;fill-rule:nonzero;stroke:#000;stroke-width:0.88px;"/><path d="M309.419,1058.359l-70,0l0,75l70,0l0,-75Z" style="fill:none;stroke:#000;stroke-width:0.88px;"/><path d="M161.919,1061.692l-13.75,-27.083l2.917,-1.25c0.833,-0.833 1.25,-1.25 1.667,-2.5c0.417,-0.833 0,-1.667 -0.417,-2.5c-10,-16.25 -30.833,-21.667 -47.917,-13.333c-17.083,8.333 -24.583,28.333 -17.917,46.25c0.417,0.833 0.833,1.667 2.083,2.083c0.833,0 1.667,0 2.5,-0.417l2.917,-1.25l13.75,27.083l54.167,-27.083Z" style="fill:#cfd4a2;"/><path d="M94.002,1061.692l13.75,27.083" style="fill:none;fill-rule:nonzero;stroke:#000;stroke-width:0.88px;"/><path d="M86.502,1061.275c0.417,0.833 0.833,1.667 2.083,2.083c0.833,0 1.667,0 2.5,-0.417" style="fill:none;fill-rule:nonzero;stroke:#000;stroke-width:0.88px;"/><path d="M148.169,1034.609l2.917,-1.25" style="fill:none;fill-rule:nonzero;stroke:#000;stroke-width:0.88px;"/><path d="M91.085,1062.942l2.917,-1.25" style="fill:none;fill-rule:nonzero;stroke:#000;stroke-width:0.88px;"/><path d="M148.169,1034.609c-7.5,-15 -25.833,-21.25 -40.833,-13.75c-14.583,7.5 -20.833,25.833 -13.333,40.833" style="fill:none;fill-rule:nonzero;stroke:#000;stroke-width:0.88px;"/><path d="M152.335,1028.359c-10,-16.25 -30.833,-21.667 -47.917,-13.333c-17.083,8.333 -24.583,28.333 -17.917,46.25" style="fill:none;fill-rule:nonzero;stroke:#000;stroke-width:0.88px;"/><path d="M161.919,1061.692l-13.75,-27.083" style="fill:none;fill-rule:nonzero;stroke:#000;stroke-width:0.88px;"/><path d="M107.752,1088.775l54.167,-27.083" style="fill:none;fill-rule:nonzero;stroke:#000;stroke-width:0.88px;"/><path d="M151.085,1033.359c0.833,-0.833 1.25,-1.25 1.667,-2.5c0.417,-0.833 0,-1.667 -0.417,-2.5" style="fill:none;fill-rule:nonzero;stroke:#000;stroke-width:0.88px;"/><rect x="57.335" y="1073.359" width="168.333" height="80.833" style="fill:#ddb682;stroke:#000;stroke-width:0.88px;"/><rect x="704.002" y="1074.609" width="35" height="66.25" style="fill:#ddb682;stroke:#000;stroke-width:0.88px;"/><rect x="900.669" y="1074.609" width="35" height="66.25" style="fill:#ddb682;stroke:#000;stroke-width:0.88px;"/><path d="M704.002,1194.609l-20.417,-20m20.417,-3.75l-20.417,-20m20.417,-3.75l-20.417,-20.417m20.417,-3.333l-20.417,-20.417m20.417,-3.333l-20.417,-20.417m20.417,-3.75l-20.417,-20m20.417,-3.75l-18.333,-18.333m16.25,-102.5l-18.333,-18.333m20.417,-3.75l-20.417,-20m20.417,-3.75l-20.417,-20m20.417,-3.75l-20.417,-20m20.417,-3.75l-20.417,-20m20.417,-3.75l-20.417,-20.417m20.417,-3.333l-6.25,-6.25" style="fill:none;fill-rule:nonzero;stroke:#000;stroke-opacity:0.31;stroke-width:1.68px;"/><path d="M704.002,783.775l-20.417,0l0,147.083l20.417,0l0,-126.667m0,390.417l-20.417,0l0,-161.25l20.417,0l0,107.5" style="fill:none;fill-rule:nonzero;stroke:#2b2b2b;stroke-width:3.37px;stroke-linecap:round;"/><path d="M529.002,622.109l-20.417,-20m20.417,-3.75l-20.417,-20m20.417,-3.75l-20.417,-20m20.417,-3.75l-9.583,-9.167" style="fill:none;fill-rule:nonzero;stroke:#000;stroke-opacity:0.31;stroke-width:1.68px;"/><path d="M508.585,622.109l0,-80.417l20.417,0l0,80.417" style="fill:none;fill-rule:nonzero;stroke:#2b2b2b;stroke-width:3.37px;stroke-linecap:round;"/><path d="M704.002,642.525l-20.417,-20.417m20.417,-3.333l-20.417,-20.417m20.417,-3.333l-20.417,-20.417m20.417,-3.333l-20.417,-20.417m20.417,-3.75l-20.417,-20m20.417,-3.75l-20.417,-20m20.417,-3.75l-20.417,-20m20.417,-3.75l-20.417,-20.417m20.417,-3.333l-20.417,-20.417m20.417,-3.333l-20.417,-20.417m20.417,-3.333l-20.417,-20.417m20.417,-3.75l-20.417,-20m20.417,-3.75l-20.417,-20m20.417,-3.75l-20.417,-20m20.417,-3.75l-20.417,-20m20.417,-3.75l-20.417,-20.417m20.417,-3.333l-20.417,-20.417m20.417,-3.333l-20.417,-20.417m20.417,-3.75l-20.417,-20m20.417,-3.75l-5.417,-5.417" style="fill:none;fill-rule:nonzero;stroke:#000;stroke-opacity:0.31;stroke-width:1.68px;"/><path d="M683.585,642.525l0,-457.917m20.417,457.917l0,-457.917" style="fill:none;fill-rule:nonzero;stroke:#2b2b2b;stroke-width:3.37px;stroke-linecap:round;"/><path d="M550.252,662.525l-20,-20m25.417,2.083l-1.667,-2.083m139.167,20l-16.25,-15.833m40,15.833l-20,-20m43.75,20l-20,-20m43.75,20l-20,-20" style="fill:none;fill-rule:nonzero;stroke:#000;stroke-opacity:0.31;stroke-width:1.68px;"/><path d="M529.002,662.525l26.667,0l0,-20l-26.667,0m154.583,0l-6.667,0l0,20l87.5,0m-60.417,-20l60.417,0" style="fill:none;fill-rule:nonzero;stroke:#2b2b2b;stroke-width:3.37px;stroke-linecap:round;"/><path d="M784.835,783.775l-6.667,-6.667m-12.5,-107.5l-1.25,-1.25m20.417,-3.333l-20.417,-20.417" style="fill:none;fill-rule:nonzero;stroke:#000;stroke-opacity:0.31;stroke-width:1.68px;"/><path d="M764.419,783.775l0,-6.667l20.417,0l0,6.667m-20.417,-121.25l0,7.083l20.417,0l0,-27.083l-20.417,0" style="fill:none;fill-rule:nonzero;stroke:#2b2b2b;stroke-width:3.37px;stroke-linecap:round;"/><path d="M529.002,1154.192l-20.417,-20m20.417,-3.75l-20.417,-20m20.417,-3.75l-20.417,-20.417m20.417,-3.333l-20.417,-20.417m20.417,-3.333l-20.417,-20.417m20.417,-3.75l-20.417,-20m20.417,-3.75l-20.417,-20m20.417,-3.75l-20.417,-20m20.417,-3.75l-20.417,-20m20.417,-3.75l-20.417,-20.417m20.417,-3.333l-20.417,-20.417m20.417,-3.333l-20.417,-20.417m20.417,-122.5l-20.417,-20.417m20.417,-3.333l-20.417,-20.417m20.417,-3.333l-20.417,-20.417m20.417,-3.75l-20.417,-20m20.417,-3.75l-12.083,-11.667" style="fill:none;fill-rule:nonzero;stroke:#000;stroke-opacity:0.31;stroke-width:1.68px;"/><path d="M508.585,1154.192l0,-282.917l20.417,0l0,282.917m-20.417,-511.667l0,107.917l20.417,0l0,-87.917" style="fill:none;fill-rule:nonzero;stroke:#2b2b2b;stroke-width:3.37px;stroke-linecap:round;"/><path d="M935.669,804.192l20,20m-20,3.75l20,20m-20,3.75l20,20.417m-20,3.333l20,20.417m-20,3.333l20,20.417m-20,3.333l20,20.417m-20,3.75l20,20m-20,3.75l20,20m-20,3.75l20,20m-20,3.75l20,20.417m-20,3.333l20,20.417m-20,3.333l20,20.417m-20,3.333l20,20.417m-20,3.75l20,20m-20,3.75l16.667,16.667" style="fill:none;fill-rule:nonzero;stroke:#000;stroke-opacity:0.5;stroke-width:1.68px;"/><path d="M935.669,1140.859l0,-336.667" style="fill:none;fill-rule:nonzero;stroke:#2b2b2b;stroke-width:1.68px;stroke-linecap:round;"/><path d="M712.335,804.192l-8.333,-8.333m32.083,8.333l-20.417,-20.417m44.167,20.417l-20.417,-20.417m44.167,20.417l-20,-20.417m43.75,20.417l-20,-20.417m43.75,20.417l-20,-20.417m43.75,20.417l-20,-20.417m44.167,20.417l-20.417,-20.417m44.167,20.417l-20.417,-20.417m44.167,20.417l-20.417,-20.417m44.167,20.417l-20.417,-20.417m44.167,20.417l-20,-20.417m43.75,20.417l-20,-20.417m43.75,20.417l-20,-20.417m34.167,10.417l-10.417,-10.417m115.417,20.417l-2.5,-2.5m26.25,2.5l-20,-20.417m43.75,20.417l-20,-20.417m43.75,20.417l-20,-20.417m44.167,20.417l-20.417,-20.417" style="fill:none;fill-rule:nonzero;stroke:#000;stroke-opacity:0.31;stroke-width:1.68px;"/><path d="M704.002,783.775l60.417,0m-60.417,20.417l231.667,0m-150.833,-20.417l250.833,0l0,20.417l-66.25,0m242.083,0l-73.333,0l0,-20.417l97.917,0" style="fill:none;fill-rule:nonzero;stroke:#2b2b2b;stroke-width:3.37px;stroke-linecap:round;"/><path d="M314.419,642.525l-20,-20.417m44.167,20.417l-20.417,-20.417m44.167,20.417l-20.417,-20.417m44.167,20.417l-20.417,-20.417m44.167,20.417l-20,-20.417m43.75,20.417l-20,-20.417m43.75,20.417l-20,-20.417m43.75,20.417l-20,-20.417m44.167,20.417l-20.417,-20.417m44.167,20.417l-20.417,-20.417" style="fill:none;fill-rule:nonzero;stroke:#000;stroke-opacity:0.31;stroke-width:1.68px;"/><path d="M293.169,622.109l215.417,0m-215.417,20.417l215.417,0m20.417,0l0,-20.417" style="fill:none;fill-rule:nonzero;stroke:#2b2b2b;stroke-width:3.37px;stroke-linecap:round;"/><path d="M293.169,642.525l-20,-20.417m20,-3.333l-16.667,-16.667" style="fill:none;fill-rule:nonzero;stroke:#000;stroke-opacity:0.31;stroke-width:1.68px;"/><path d="M273.169,602.109l0,40.417l20,0m0,-40.417l0,20" style="fill:none;fill-rule:nonzero;stroke:#2b2b2b;stroke-width:3.37px;stroke-linecap:round;"/><path d="M79.002,602.109l-20.417,-20.417m44.167,20.417l-20.417,-20.417m44.167,20.417l-20,-20.417m43.75,20.417l-20,-20.417m43.75,20.417l-20,-20.417m44.167,20.417l-20.417,-20.417m44.167,20.417l-20.417,-20.417m44.167,20.417l-20.417,-20.417m44.167,20.417l-20.417,-20.417m44.167,20.417l-20,-20.417" style="fill:none;fill-rule:nonzero;stroke:#000;stroke-opacity:0.31;stroke-width:1.68px;"/><path d="M57.752,602.109l215.417,0m-215.417,-20.417l235.417,0l0,20.417" style="fill:none;fill-rule:nonzero;stroke:#2b2b2b;stroke-width:3.37px;stroke-linecap:round;"/><path d="M1236.085,1154.192l-532.083,0l0,40.417l532.083,0l0,-40.417Z" style="fill:#fff;fill-opacity:0.1;"/><path d="M712.335,1194.609l-8.333,-8.333m32.083,8.333l-32.083,-32.083m55.833,32.083l-40.417,-40.417m64.167,40.417l-40.417,-40.417m64.167,40.417l-40.417,-40.417m64.167,40.417l-40.417,-40.417m64.167,40.417l-40.417,-40.417m64.583,40.417l-40.417,-40.417m64.167,40.417l-40.417,-40.417m64.167,40.417l-40.417,-40.417m64.167,40.417l-40.417,-40.417m64.167,40.417l-40.417,-40.417m64.167,40.417l-40.417,-40.417m64.167,40.417l-40.417,-40.417m64.583,40.417l-40.417,-40.417m64.167,40.417l-40.417,-40.417m64.167,40.417l-40.417,-40.417m64.167,40.417l-40.417,-40.417m64.167,40.417l-40.417,-40.417m64.167,40.417l-40.417,-40.417m64.167,40.417l-40.417,-40.417m64.167,40.417l-40,-40.417m64.167,40.417l-40.417,-40.417m40.417,16.667l-16.667,-16.667m-515.417,1.25l0.833,-1.25m-0.833,25l24.583,-25m-16.25,40.417l40.417,-40.417m-16.667,40.417l40.417,-40.417m-16.667,40.417l40.417,-40.417m-16.667,40.417l40.417,-40.417m-16.667,40.417l40.417,-40.417m-16.667,40.417l40.417,-40.417m-16.667,40.417l40.417,-40.417m-16.25,40.417l40.417,-40.417m-16.667,40.417l40.417,-40.417m-16.667,40.417l40.417,-40.417m-16.667,40.417l40.417,-40.417m-16.667,40.417l40.417,-40.417m-16.667,40.417l40.417,-40.417m-16.667,40.417l40.417,-40.417m-16.25,40.417l40,-40.417m-16.25,40.417l40.417,-40.417m-16.667,40.417l40.417,-40.417m-16.667,40.417l40.417,-40.417m-16.667,40.417l40.417,-40.417m-16.667,40.417l40.417,-40.417m-16.667,40.417l40.417,-40.417m-16.667,40.417l24.167,-23.75" style="fill:none;fill-rule:nonzero;stroke:#000;stroke-opacity:0.31;stroke-width:1.68px;"/><path d="M704.002,1194.609l532.083,0" style="fill:none;fill-rule:nonzero;stroke:#2b2b2b;stroke-width:3.37px;stroke-linecap:round;"/><rect x="1236.085" y="184.609" width="40.417" height="1010" style="fill:#fff;fill-opacity:0.1;"/><path d="M1252.335,1194.609l-16.25,-16.667m40.417,16.667l-40.417,-40.417m40.417,16.667l-40.417,-40.417m40.417,16.667l-40.417,-40.417m40.417,16.667l-40.417,-40.417m40.417,16.667l-40.417,-40.417m40.417,16.25l-40.417,-40.417m40.417,16.667l-40.417,-40.417m40.417,16.667l-40.417,-40.417m40.417,16.667l-40.417,-40.417m40.417,16.667l-40.417,-40.417m40.417,16.667l-40.417,-40.417m40.417,16.667l-40.417,-40.417m40.417,16.25l-40.417,-40m40.417,16.25l-40.417,-40.417m40.417,16.667l-40.417,-40.417m40.417,16.667l-40.417,-40.417m40.417,16.667l-40.417,-40.417m40.417,16.667l-40.417,-40.417m40.417,16.667l-40.417,-40.417m40.417,16.667l-40.417,-40.417m40.417,16.25l-40.417,-40.417m40.417,16.667l-40.417,-40.417m40.417,16.667l-40.417,-40.417m40.417,16.667l-40.417,-40.417m40.417,16.667l-40.417,-40.417m40.417,16.667l-40.417,-40.417m40.417,16.667l-40.417,-40.417m40.417,16.25l-40.417,-40.417m40.417,16.667l-40.417,-40.417m40.417,16.667l-40.417,-40.417m40.417,16.667l-40.417,-40.417m40.417,16.667l-40.417,-40.417m40.417,16.667l-40.417,-40.417m40.417,16.667l-40.417,-40.417m40.417,16.25l-40.417,-40.417m40.417,16.667l-40.417,-40.417m40.417,16.667l-40.417,-40.417m40.417,16.667l-40.417,-40.417m40.417,16.667l-40.417,-40.417m40.417,16.667l-40.417,-40.417m40.417,16.667l-40.417,-40.417m40.417,16.25l-34.167,-33.75m34.167,10l-10.417,-10m-30,2.917l2.917,-2.917m-2.917,26.667l26.667,-26.667m-26.667,50.417l40.417,-40.417m-40.417,64.167l40.417,-40.417m-40.417,64.583l40.417,-40.417m-40.417,64.167l40.417,-40.417m-40.417,64.167l40.417,-40.417m-40.417,64.167l40.417,-40.417m-40.417,64.167l40.417,-40.417m-40.417,64.167l40.417,-40.417m-40.417,64.167l40.417,-40.417m-40.417,64.583l40.417,-40.417m-40.417,64.167l40.417,-40.417m-40.417,64.167l40.417,-40.417m-40.417,64.167l40.417,-40.417m-40.417,64.167l40.417,-40.417m-40.417,64.167l40.417,-40.417m-40.417,64.167l40.417,-40.417m-40.417,64.583l40.417,-40.417m-40.417,64.167l40.417,-40.417m-40.417,64.167l40.417,-40.417m-40.417,64.167l40.417,-40.417m-40.417,64.167l40.417,-40.417m-40.417,64.167l40.417,-40.417m-40.417,64.167l40.417,-40.417m-40.417,64.167l40.417,-40m-40.417,64.167l40.417,-40.417m-40.417,64.167l40.417,-40.417m-40.417,64.167l40.417,-40.417m-40.417,64.167l40.417,-40.417m-40.417,64.167l40.417,-40.417m-40.417,64.167l40.417,-40.417m-40.417,64.167l40.417,-40.417m-40.417,64.583l40.417,-40.417m-40.417,64.167l40.417,-40.417m-40.417,64.167l40.417,-40.417m-40.417,64.167l40.417,-40.417m-40.417,64.167l40.417,-40.417m-40.417,64.167l40.417,-40.417m-40.417,64.167l40.417,-40.417m-40.417,64.583l40.417,-40.417m-40.417,64.167l40.417,-40.417m-40.417,64.167l40.417,-40.417m-24.167,47.5l24.167,-23.75" style="fill:none;fill-rule:nonzero;stroke:#000;stroke-opacity:0.31;stroke-width:1.68px;"/><path d="M1236.085,783.775l0,-599.167m0,1010l40.417,0l0,-1010" style="fill:none;fill-rule:nonzero;stroke:#2b2b2b;stroke-width:3.37px;stroke-linecap:round;"/><rect x="57.335" y="1154.192" width="471.667" height="40.417" style="fill:#fff;fill-opacity:0.1;"/><path d="M76.502,1194.609l-19.167,-18.75m42.917,18.75l-40.417,-40.417m64.167,40.417l-40.417,-40.417m64.167,40.417l-40.417,-40.417m64.583,40.417l-40.417,-40.417m64.167,40.417l-40.417,-40.417m64.167,40.417l-40.417,-40.417m64.167,40.417l-40.417,-40.417m64.167,40.417l-40.417,-40.417m64.167,40.417l-40.417,-40.417m64.167,40.417l-40.417,-40.417m64.583,40.417l-40.417,-40.417m64.167,40.417l-40.417,-40.417m64.167,40.417l-40.417,-40.417m64.167,40.417l-40.417,-40.417m64.167,40.417l-40.417,-40.417m64.167,40.417l-40.417,-40.417m64.167,40.417l-40.417,-40.417m64.583,40.417l-40.417,-40.417m64.167,40.417l-40.417,-40.417m40.417,16.667l-16.667,-16.667m-455,11.667l12.083,-11.667m-12.083,35.833l35.833,-35.833m-16.667,40.417l40.417,-40.417m-16.667,40.417l40.417,-40.417m-16.667,40.417l40.417,-40.417m-16.667,40.417l40.417,-40.417m-16.25,40.417l40.417,-40.417m-16.667,40.417l40.417,-40.417m-16.667,40.417l40.417,-40.417m-16.667,40.417l40.417,-40.417m-16.667,40.417l40.417,-40.417m-16.667,40.417l40.417,-40.417m-16.667,40.417l40.417,-40.417m-16.25,40.417l40.417,-40.417m-16.667,40.417l40.417,-40.417m-16.667,40.417l40.417,-40.417m-16.667,40.417l40.417,-40.417m-16.667,40.417l40.417,-40.417m-16.667,40.417l40.417,-40.417m-16.667,40.417l40.417,-40.417m-16.25,40.417l23.75,-23.75" style="fill:none;fill-rule:nonzero;stroke:#000;stroke-opacity:0.31;stroke-width:1.68px;"/><path d="M57.335,1194.609l471.667,0l0,-40.417m-471.667,0l451.25,0" style="fill:none;fill-rule:nonzero;stroke:#2b2b2b;stroke-width:3.37px;stroke-linecap:round;"/><path d="M16.919,1194.609l0,-1010l40.417,0l0.417,397.083l0,20.417l-0.417,552.083l0,40.417l-40.417,0Z" style="fill:#fff;fill-opacity:0.1;"/><path d="M33.585,1194.609l-16.667,-16.667m40.417,16.667l-40.417,-40.417m40.417,16.667l-40.417,-40.417m40.417,16.667l-40.417,-40.417m40.417,16.667l-40.417,-40.417m40.417,16.25l-40.417,-40m40.417,16.25l-40.417,-40.417m40.417,16.667l-40.417,-40.417m40.417,16.667l-40.417,-40.417m40.417,16.667l-40.417,-40.417m40.417,16.667l-40.417,-40.417m40.417,16.667l-40.417,-40.417m40.417,16.667l-40.417,-40.417m40.417,16.25l-40.417,-40.417m40.417,16.667l-40.417,-40.417m40.417,16.667l-40.417,-40.417m40.417,16.667l-40.417,-40.417m40.417,16.667l-40.417,-40.417m40.417,16.667l-40.417,-40.417m40.833,16.667l-40.833,-40.417m40.833,16.25l-40.833,-40.417m40.833,16.667l-40.833,-40.417m40.833,16.667l-40.833,-40.417m40.833,16.667l-40.833,-40.417m40.833,16.667l-40.833,-40.417m40.833,16.667l-40.833,-40.417m40.833,16.667l-40.833,-40.417m40.833,16.667l-40.833,-40.833m40.833,16.667l-40.833,-40.417m40.833,16.667l-40.833,-40.417m40.833,16.667l-40.833,-40.417m40.833,16.667l-40.833,-40.417m40.833,16.667l-40.833,-40.417m40.417,16.667l-40.417,-40.417m40.417,16.667l-40.417,-40.417m40.417,16.25l-40.417,-40.417m40.417,16.667l-40.417,-40.417m40.417,16.667l-40.417,-40.417m40.417,16.667l-40.417,-40.417m40.417,16.667l-40.417,-40.417m40.417,16.667l-40.417,-40.417m40.417,16.667l-40.417,-40.417m40.417,16.25l-33.75,-33.75m33.75,10l-10,-10m-30.417,2.917l3.333,-2.917m-3.333,26.667l27.083,-26.667m-27.083,50.417l40.417,-40.417m-40.417,64.583l40.417,-40.417m-40.417,64.167l40.417,-40.417m-40.417,64.167l40.417,-40.417m-40.417,64.167l40.417,-40.417m-40.417,64.167l40.417,-40.417m-40.417,64.167l40.417,-40.417m-40.417,64.167l40.417,-40.417m-40.417,64.583l40.417,-40.833m-40.417,64.583l40.417,-40.417m-40.417,64.167l40.417,-40.417m-40.417,64.167l40.833,-40.417m-40.833,64.167l40.833,-40.417m-40.833,64.167l40.833,-40.417m-40.833,64.167l40.833,-40.417m-40.833,64.167l40.833,-40.417m-40.833,64.583l40.833,-40.417m-40.833,64.167l40.833,-40.417m-40.833,64.167l40.833,-40.417m-40.833,64.167l40.833,-40.417m-40.833,64.167l40.833,-40.417m-40.833,64.167l40.833,-40.417m-40.833,64.167l40.833,-40.417m-40.833,64.583l40.833,-40.417m-40.833,64.167l40.833,-40.417m-40.833,64.167l40.417,-40.417m-40.417,64.167l40.417,-40.417m-40.417,64.167l40.417,-40.417m-40.417,64.167l40.417,-40.417m-40.417,64.167l40.417,-40.417m-40.417,64.583l40.417,-40.417m-40.417,64.167l40.417,-40.417m-40.417,64.167l40.417,-40.417m-40.417,64.167l40.417,-40.417m-40.417,64.167l40.417,-40.417m-40.417,64.167l40.417,-40.417m-40.417,64.167l40.417,-40.417m-40.417,64.583l40.417,-40.417m-40.417,64.167l40.417,-40.417m-40.417,64.167l40.417,-40.417m-40.417,64.167l40.417,-40.417m-23.75,47.5l23.75,-23.75" style="fill:none;fill-rule:nonzero;stroke:#000;stroke-opacity:0.31;stroke-width:1.68px;"/><path d="M16.919,184.609l0,1010l40.417,0m0,-40.417l0.417,-552.083m-0.417,-417.5l0.417,397.083" style="fill:none;fill-rule:nonzero;stroke:#2b2b2b;stroke-width:3.37px;stroke-linecap:round;"/><rect x="16.919" y="144.192" width="1259.583" height="40.417" style="fill:#fff;fill-opacity:0.1;"/><path d="M38.169,184.609l-21.25,-21.25m45.417,21.25l-40.417,-40.417m64.167,40.417l-40.417,-40.417m64.167,40.417l-40.417,-40.417m64.167,40.417l-40.417,-40.417m64.167,40.417l-40.417,-40.417m64.167,40.417l-40.417,-40.417m64.167,40.417l-40.417,-40.417m64.583,40.417l-40.417,-40.417m64.167,40.417l-40.417,-40.417m64.167,40.417l-40.417,-40.417m64.167,40.417l-40.417,-40.417m64.167,40.417l-40.417,-40.417m64.167,40.417l-40.417,-40.417m64.167,40.417l-40.417,-40.417m64.167,40.417l-40,-40.417m64.167,40.417l-40.417,-40.417m64.167,40.417l-40.417,-40.417m64.167,40.417l-40.417,-40.417m64.167,40.417l-40.417,-40.417m64.167,40.417l-40.417,-40.417m64.167,40.417l-40.417,-40.417m64.167,40.417l-40.417,-40.417m64.583,40.417l-40.417,-40.417m64.167,40.417l-40.417,-40.417m64.167,40.417l-40.417,-40.417m64.167,40.417l-40.417,-40.417m64.167,40.417l-40.417,-40.417m64.167,40.417l-40.417,-40.417m64.167,40.417l-40.417,-40.417m64.583,40.417l-40.417,-40.417m64.167,40.417l-40.417,-40.417m64.167,40.417l-40.417,-40.417m64.167,40.417l-40.417,-40.417m64.167,40.417l-40.417,-40.417m64.167,40.417l-40.417,-40.417m64.167,40.417l-40.417,-40.417m64.583,40.417l-40.417,-40.417m64.167,40.417l-40.417,-40.417m64.167,40.417l-40.417,-40.417m64.167,40.417l-40.417,-40.417m64.167,40.417l-40.417,-40.417m64.167,40.417l-40.417,-40.417m64.167,40.417l-40.417,-40.417m64.167,40.417l-40,-40.417m64.167,40.417l-40.417,-40.417m64.167,40.417l-40.417,-40.417m64.167,40.417l-40.417,-40.417m64.167,40.417l-40.417,-40.417m64.167,40.417l-40.417,-40.417m64.167,40.417l-40.417,-40.417m64.167,40.417l-40.417,-40.417m64.583,40.417l-40.417,-40.417m40.417,16.667l-16.667,-16.667m-1242.917,14.167l14.167,-14.167m-14.167,37.917l37.917,-37.917m-16.667,40.417l40.417,-40.417m-16.25,40.417l40.417,-40.417m-16.667,40.417l40.417,-40.417m-16.667,40.417l40.417,-40.417m-16.667,40.417l40.417,-40.417m-16.667,40.417l40.417,-40.417m-16.667,40.417l40.417,-40.417m-16.667,40.417l40.417,-40.417m-16.25,40.417l40,-40.417m-16.25,40.417l40.417,-40.417m-16.667,40.417l40.417,-40.417m-16.667,40.417l40.417,-40.417m-16.667,40.417l40.417,-40.417m-16.667,40.417l40.417,-40.417m-16.667,40.417l40.417,-40.417m-16.667,40.417l40.417,-40.417m-16.25,40.417l40.417,-40.417m-16.667,40.417l40.417,-40.417m-16.667,40.417l40.417,-40.417m-16.667,40.417l40.417,-40.417m-16.667,40.417l40.417,-40.417m-16.667,40.417l40.417,-40.417m-16.667,40.417l40.417,-40.417m-16.25,40.417l40.417,-40.417m-16.667,40.417l40.417,-40.417m-16.667,40.417l40.417,-40.417m-16.667,40.417l40.417,-40.417m-16.667,40.417l40.417,-40.417m-16.667,40.417l40.417,-40.417m-16.667,40.417l40.417,-40.417m-16.25,40.417l40.417,-40.417m-16.667,40.417l40.417,-40.417m-16.667,40.417l40.417,-40.417m-16.667,40.417l40.417,-40.417m-16.667,40.417l40.417,-40.417m-16.667,40.417l40.417,-40.417m-16.667,40.417l40.417,-40.417m-16.25,40.417l40,-40.417m-16.25,40.417l40.417,-40.417m-16.667,40.417l40.417,-40.417m-16.667,40.417l40.417,-40.417m-16.667,40.417l40.417,-40.417m-16.667,40.417l40.417,-40.417m-16.667,40.417l40.417,-40.417m-16.667,40.417l40.417,-40.417m-16.25,40.417l40.417,-40.417m-16.667,40.417l40.417,-40.417m-16.667,40.417l40.417,-40.417m-16.667,40.417l40.417,-40.417m-16.667,40.417l40.417,-40.417m-16.667,40.417l40.417,-40.417m-16.667,40.417l24.167,-23.75" style="fill:none;fill-rule:nonzero;stroke:#000;stroke-opacity:0.31;stroke-width:1.68px;"/><path d="M16.919,184.609l0,-40.417l1259.583,0l0,40.417m-1219.167,0l626.25,0m20.417,0l532.083,0" style="fill:none;fill-rule:nonzero;stroke:#2b2b2b;stroke-width:3.37px;stroke-linecap:round;"/><rect x="1138.169" y="789.609" width="79.583" height="8.75" style="fill:#fff;stroke:#000;stroke-width:0.34px;"/><rect x="1134.002" y="788.359" width="4.167" height="11.25" style="fill:#f7f7f7;stroke:#000;stroke-width:1.68px;"/><rect x="1086.919" y="791.275" width="94.167" height="5.417" style="fill:#f7f7f7;stroke:#000;stroke-width:1.68px;"/><path d="M1134.002,788.359l-94.167,0" style="fill:none;fill-rule:nonzero;stroke:#bcbcbc;stroke-width:0.34px;"/><rect x="1035.669" y="788.359" width="4.167" height="11.25" style="fill:#f7f7f7;stroke:#000;stroke-width:1.68px;"/><path d="M1134.002,799.609l-94.167,0" style="fill:none;fill-rule:nonzero;stroke:#bcbcbc;stroke-width:0.34px;"/><path d="M529.002,864.609l-20.417,0" style="fill:none;fill-rule:nonzero;stroke:#000;stroke-width:0.34px;"/><path d="M529.002,757.109l-127.917,0" style="fill:none;fill-rule:nonzero;stroke:#000;stroke-width:0.34px;"/><path d="M401.085,757.109c0,59.167 47.917,107.5 107.5,107.5" style="fill:none;fill-rule:nonzero;stroke:#000;stroke-width:0.34px;"/><rect x="508.585" y="750.442" width="20.417" height="120.833" style="fill:none;fill-rule:nonzero;stroke:#000;stroke-width:0.34px;"/><path d="M562.752,662.525l0,-20" style="fill:none;fill-rule:nonzero;stroke:#000;stroke-width:0.34px;"/><path d="M670.252,662.525l0,-127.917" style="fill:none;fill-rule:nonzero;stroke:#000;stroke-width:0.34px;"/><path d="M670.252,534.609c-59.583,0 -107.5,48.333 -107.5,107.917" style="fill:none;fill-rule:nonzero;stroke:#000;stroke-width:0.34px;"/><rect x="555.669" y="642.525" width="121.25" height="20" style="fill:none;fill-rule:nonzero;stroke:#000;stroke-width:0.34px;"/><rect x="764.419" y="669.609" width="20.417" height="107.5" style="fill:none;fill-rule:nonzero;stroke:#000;stroke-width:0.34px;"/><path d="M764.419,770.442l114.583,0" style="fill:none;fill-rule:nonzero;stroke:#000;stroke-width:0.34px;"/><path d="M784.835,676.275c52.083,-0 94.167,42.083 94.167,94.167" style="fill:none;fill-rule:nonzero;stroke:#000;stroke-width:0.34px;"/><path d="M784.835,676.275l-20.417,0" style="fill:none;fill-rule:nonzero;stroke:#000;stroke-width:0.34px;"/><rect x="708.169" y="912.525" width="114.583" height="2.5" style="fill:#f7f7f7;stroke:#000;stroke-width:0.34px;"/><path d="M915.669,915.025l-0.417,0m-0.417,0l-0.833,0m-0.417,0l-0.833,0m-0.417,0l-0.833,0m-0.417,0l-0.833,0m-0.417,0l-0.833,0m-0.417,0l-0.833,0m-0.417,0l-0.833,0m-0.417,0l-0.833,0m-0.417,0l-0.833,0m-0.417,0l-0.833,0m-0.417,0l-0.833,0m-0.417,0l-0.833,0m-0.417,0l-0.833,0m-0.417,0l-0.833,0m-0.417,0l-0.833,0m-0.417,0l-0.833,0m-0.417,0l-0.833,0m-0.417,0l-0.833,0m-0.417,0l-0.833,0m-0.417,0l-0.833,0m-0.417,0l-0.833,0m-0.417,0l-0.833,0m-0.417,0l-0.833,0m-0.417,0l-0.833,0m-0.417,0l-0.833,0m-0.417,0l-0.833,0m-0.417,0l-0.833,0m-0.417,0l-0.833,0m-0.417,0l-0.833,0m-0.417,0l-0.833,0m-0.417,0l-0.833,0m-0.417,0l-0.833,0m-0.417,0l-0.833,0m-0.417,0l-0.833,0m-0.417,0l-0.833,0m-0.417,0l-0.833,0m-0.417,0l-0.833,0m-0.417,0l-0.833,0m-0.417,0l-0.833,0m-0.417,0l-0.833,0m-0.417,0l-0.833,0m-0.417,0l-0.833,0m-0.417,0l-0.833,0m-0.417,0l-0.833,0m-0.417,0l-0.833,0m-0.417,0l-0.833,0m-0.417,0l-0.833,0m-0.417,0l-0.833,0m-0.417,0l-0.833,0m-0.417,0l-0.833,0m-0.417,0l-0.833,0m-0.417,0l-0.833,0m-0.417,0l-0.833,0m-0.417,0l-0.833,0m-0.417,0l-0.833,0m-0.417,0l-0.833,0m-0.417,0l-0.833,0m-0.417,0l-0.833,0m-0.417,0l-0.833,0m-0.417,0l-0.833,0m-0.417,0l-0.833,0m-0.417,0l-0.833,0m-0.417,0l-0.833,0m-0.417,0l-0.833,0m-0.417,0l-0.833,0m-0.417,0l-0.833,0m-0.417,0l-0.833,0m-0.417,0l-0.833,0m-0.417,0l-0.833,0m-0.417,0l-0.833,0m-0.417,0l-0.833,0m-0.417,0l-0.833,0m-0.417,0l-0.833,0m-0.417,0l-0.833,0" style="fill:none;fill-rule:nonzero;stroke:#bcbcbc;stroke-width:0.34px;"/><rect x="704.002" y="911.692" width="4.167" height="3.75" style="fill:#f7f7f7;stroke:#000;stroke-width:1.68px;"/><path d="M822.752,912.525l0.417,0m0.417,0l0.833,0m0.417,0l0.833,0m0.417,0l0.833,0m0.417,0l0.833,0m0.417,0l0.833,0m0.417,0l0.833,0m0.417,0l0.833,0m0.417,0l0.833,0m0.417,0l0.833,0m0.417,0l0.833,0m0.417,0l0.833,0m0.417,0l0.833,0m0.417,0l0.833,0m0.417,0l0.833,0m0.417,0l0.833,0m0.417,0l0.833,0m0.417,0l0.833,0m0.417,0l0.833,0m0.417,0l0.833,0m0.417,0l0.833,0m0.417,0l0.833,0m0.417,0l0.833,0m0.417,0l0.833,0m0.417,0l0.833,0m0.417,0l0.833,0m0.417,0l0.833,0m0.417,0l0.833,0m0.417,0l0.833,0m0.417,0l0.833,0m0.417,0l0.833,0m0.417,0l0.833,0m0.417,0l0.833,0m0.417,0l0.833,0m0.417,0l0.833,0m0.417,0l0.833,0m0.417,0l0.833,0m0.417,0l0.833,0m0.417,0l0.833,0m0.417,0l0.833,0m0.417,0l0.833,0m0.417,0l0.833,0m0.417,0l0.833,0m0.417,0l0.833,0m0.417,0l0.833,0m0.417,0l0.833,0m0.417,0l0.833,0m0.417,0l0.833,0m0.417,0l0.833,0m0.417,0l0.833,0m0.417,0l0.833,0m0.417,0l0.833,0m0.417,0l0.833,0m0.417,0l0.833,0m0.417,0l0.833,0m0.417,0l0.833,0m0.417,0l0.833,0m0.417,0l0.833,0m0.417,0l0.833,0m0.417,0l0.833,0m0.417,0l0.833,0m0.417,0l0.833,0m0.417,0l0.833,0m0.417,0l0.833,0m0.417,0l0.833,0m0.417,0l0.833,0m0.417,0l0.833,0m0.417,0l0.833,0m0.417,0l0.833,0m0.417,0l0.833,0m0.417,0l0.833,0m0.417,0l0.833,0m0.417,0l0.833,0m0.417,0l0.833,0m0.417,0l0.833,0m0.417,0l0.833,0m0.417,0l0.833,0m0.417,0l0.833,0" style="fill:none;fill-rule:nonzero;stroke:#bcbcbc;stroke-width:0.34px;"/><path d="M857.335,977.109l1.25,1.25l2.083,-1.667l-1.667,-1.667l-1.667,2.083Z" style="fill:#f7f7f7;"/><path d="M857.335,977.109l1.25,1.25l2.083,-1.667l-1.667,-1.667" style="fill:none;fill-rule:nonzero;stroke:#000;stroke-width:0.34px;"/><path d="M852.335,982.109l67.083,-67.083l-2.083,-1.667l-66.667,67.083l1.667,1.667Z" style="fill:#f7f7f7;stroke:#000;stroke-width:0.34px;"/><path d="M855.252,975.442l-1.25,-1.667l2.083,-1.667l1.25,1.25l-2.083,2.083Z" style="fill:#f7f7f7;"/><path d="M855.252,975.442l-1.25,-1.667l2.083,-1.667l1.25,1.25" style="fill:none;fill-rule:nonzero;stroke:#000;stroke-width:0.34px;"/><path d="M850.669,980.442c-17.917,-18.333 -27.917,-42.5 -27.917,-67.917" style="fill:none;fill-rule:nonzero;stroke:#000;stroke-width:0.34px;"/><rect x="919.419" y="912.525" width="12.083" height="2.5" style="fill:#f7f7f7;stroke:#000;stroke-width:0.34px;"/><rect x="931.502" y="911.692" width="4.167" height="3.75" style="fill:#f7f7f7;stroke:#000;stroke-width:1.68px;"/></g><g id="anchorTop"><path d="M1419.002,144.192l-285.417,0" style="fill:none;fill-rule:nonzero;stroke:#f00;stroke-width:0.34px;"/><path d="M1276.502,1.692l0,285" style="fill:none;fill-rule:nonzero;stroke:#f00;stroke-width:0.34px;"/></g></svg>