<?xml version="1.0" encoding="UTF-8" standalone="no"?><!DOCTYPE svg PUBLIC "-//W3C//DTD SVG 1.1//EN" "http://www.w3.org/Graphics/SVG/1.1/DTD/svg11.dtd"><svg width="100%" height="100%" viewBox="0 0 3195 1759" version="1.1" xmlns="http://www.w3.org/2000/svg" xmlns:xlink="http://www.w3.org/1999/xlink" xml:space="preserve" xmlns:serif="http://www.serif.com/" style="fill-rule:evenodd;clip-rule:evenodd;stroke-linecap:round;stroke-linejoin:round;stroke-miterlimit:1.5;"><path d="M13.881,1300.181l3134.809,0" style="fill:none;stroke:#2a66d2;stroke-width:27.76px;"/><g><g><path d="M60.03,1685.207l41.684,-4.053c2.509,13.991 7.599,24.267 15.27,30.828c7.671,6.561 18.019,9.842 31.046,9.842c13.798,0 24.195,-2.919 31.19,-8.756c6.996,-5.838 10.493,-12.664 10.493,-20.48c0,-5.017 -1.471,-9.287 -4.414,-12.809c-2.943,-3.522 -8.081,-6.585 -15.414,-9.191c-5.017,-1.737 -16.452,-4.824 -34.302,-9.263c-22.965,-5.693 -39.078,-12.688 -48.341,-20.987c-13.026,-11.675 -19.539,-25.908 -19.539,-42.697c0,-10.807 3.064,-20.914 9.191,-30.322c6.127,-9.408 14.956,-16.572 26.486,-21.493c11.531,-4.921 25.449,-7.381 41.756,-7.381c26.631,0 46.677,5.838 60.137,17.513c13.46,11.675 20.528,27.258 21.204,46.749l-42.841,1.882c-1.833,-10.903 -5.765,-18.743 -11.796,-23.519c-6.031,-4.776 -15.077,-7.164 -27.138,-7.164c-12.447,0 -22.193,2.557 -29.236,7.671c-4.535,3.281 -6.803,7.671 -6.803,13.171c0,5.017 2.123,9.311 6.368,12.881c5.403,4.535 18.526,9.263 39.368,14.184c20.842,4.921 36.256,10.011 46.243,15.27c9.987,5.259 17.802,12.447 23.447,21.565c5.645,9.118 8.467,20.383 8.467,33.796c0,12.158 -3.377,23.544 -10.131,34.157c-6.754,10.614 -16.307,18.502 -28.657,23.664c-12.351,5.162 -27.741,7.743 -46.17,7.743c-26.824,0 -47.425,-6.199 -61.802,-18.598c-14.377,-12.399 -22.965,-30.467 -25.763,-54.203Z" style="fill:#2a66d2;fill-rule:nonzero;"/><path d="M316.356,1754.246l0,-176.287l-62.96,0l0,-35.894l168.616,0l0,35.894l-62.815,0l0,176.287l-42.841,0Z" style="fill:#2a66d2;fill-rule:nonzero;"/><path d="M449.367,1542.065l42.841,0l0,114.919c0,18.237 0.531,30.057 1.592,35.46c1.833,8.684 6.199,15.655 13.098,20.914c6.899,5.259 16.331,7.888 28.296,7.888c12.158,0 21.324,-2.485 27.5,-7.454c6.175,-4.969 9.89,-11.072 11.145,-18.309c1.254,-7.237 1.882,-19.25 1.882,-36.039l0,-117.38l42.841,0l0,111.446c0,25.473 -1.158,43.469 -3.474,53.986c-2.316,10.517 -6.585,19.394 -12.809,26.631c-6.224,7.237 -14.546,13.002 -24.967,17.296c-10.421,4.294 -24.026,6.441 -40.815,6.441c-20.263,0 -35.629,-2.34 -46.098,-7.02c-10.469,-4.68 -18.743,-10.759 -24.822,-18.237c-6.079,-7.478 -10.083,-15.318 -12.013,-23.519c-2.798,-12.158 -4.197,-30.105 -4.197,-53.841l0,-113.183Z" style="fill:#2a66d2;fill-rule:nonzero;"/><path d="M663.574,1542.065l78.301,0c17.658,0 31.118,1.351 40.381,4.053c12.447,3.667 23.109,10.18 31.986,19.539c8.877,9.36 15.631,20.818 20.263,34.374c4.632,13.557 6.947,30.274 6.947,50.151c0,17.465 -2.171,32.517 -6.513,45.157c-5.307,15.438 -12.881,27.934 -22.723,37.486c-7.43,7.237 -17.465,12.881 -30.105,16.934c-9.456,2.991 -22.096,4.487 -37.92,4.487l-80.617,0l0,-212.181Zm42.841,35.894l0,140.537l31.986,0c11.965,0 20.601,-0.675 25.908,-2.026c6.947,-1.737 12.713,-4.68 17.296,-8.829c4.583,-4.149 8.322,-10.976 11.217,-20.48c2.895,-9.504 4.342,-22.458 4.342,-38.861c0,-16.403 -1.447,-28.995 -4.342,-37.776c-2.895,-8.781 -6.947,-15.631 -12.158,-20.552c-5.21,-4.921 -11.82,-8.25 -19.829,-9.987c-5.982,-1.351 -17.706,-2.026 -35.171,-2.026l-19.25,0Z" style="fill:#2a66d2;fill-rule:nonzero;"/><rect x="876.479" y="1542.065" width="42.841" height="212.181" style="fill:#2a66d2;fill-rule:nonzero;"/><path d="M960.136,1754.246l0,-212.181l157.327,0l0,35.894l-114.485,0l0,47.039l106.525,0l0,35.749l-106.525,0l0,57.749l118.538,0l0,35.749l-161.379,0Z" style="fill:#2a66d2;fill-rule:nonzero;"/><path d="M1239.618,1754.246l0,-212.181l64.117,0l38.499,144.735l38.065,-144.735l64.262,0l0,212.181l-39.802,0l0,-167.024l-42.118,167.024l-41.249,0l-41.973,-167.024l0,167.024l-39.802,0Z" style="fill:#2a66d2;fill-rule:nonzero;"/><path d="M1478.431,1649.458c0,-21.614 3.232,-39.754 9.697,-54.42c4.824,-10.807 11.41,-20.504 19.756,-29.092c8.346,-8.588 17.489,-14.956 27.427,-19.105c13.219,-5.596 28.464,-8.395 45.736,-8.395c31.263,0 56.278,9.697 75.045,29.092c18.767,19.394 28.151,46.363 28.151,80.907c0,34.254 -9.311,61.054 -27.934,80.4c-18.623,19.346 -43.517,29.019 -74.683,29.019c-31.552,0 -56.64,-9.625 -75.262,-28.875c-18.623,-19.25 -27.934,-45.76 -27.934,-79.532Zm44.144,-1.447c0,24.026 5.548,42.238 16.644,54.637c11.096,12.399 25.184,18.598 42.263,18.598c17.079,0 31.094,-6.151 42.045,-18.454c10.952,-12.302 16.427,-30.756 16.427,-55.361c0,-24.315 -5.331,-42.456 -15.993,-54.42c-10.662,-11.965 -24.822,-17.947 -42.48,-17.947c-17.658,0 -31.89,6.055 -42.697,18.164c-10.807,12.109 -16.21,30.37 -16.21,54.782Z" style="fill:#2a66d2;fill-rule:nonzero;"/><path d="M1717.532,1542.065l78.301,0c17.658,0 31.118,1.351 40.381,4.053c12.447,3.667 23.109,10.18 31.986,19.539c8.877,9.36 15.631,20.818 20.263,34.374c4.632,13.557 6.947,30.274 6.947,50.151c0,17.465 -2.171,32.517 -6.513,45.157c-5.307,15.438 -12.881,27.934 -22.723,37.486c-7.43,7.237 -17.465,12.881 -30.105,16.934c-9.456,2.991 -22.096,4.487 -37.92,4.487l-80.617,0l0,-212.181Zm42.841,35.894l0,140.537l31.986,0c11.965,0 20.601,-0.675 25.908,-2.026c6.947,-1.737 12.713,-4.68 17.296,-8.829c4.583,-4.149 8.322,-10.976 11.217,-20.48c2.895,-9.504 4.342,-22.458 4.342,-38.861c0,-16.403 -1.447,-28.995 -4.342,-37.776c-2.895,-8.781 -6.947,-15.631 -12.158,-20.552c-5.21,-4.921 -11.82,-8.25 -19.829,-9.987c-5.982,-1.351 -17.706,-2.026 -35.171,-2.026l-19.25,0Z" style="fill:#2a66d2;fill-rule:nonzero;"/><path d="M1931.45,1542.065l42.841,0l0,114.919c0,18.237 0.531,30.057 1.592,35.46c1.833,8.684 6.199,15.655 13.098,20.914c6.899,5.259 16.331,7.888 28.296,7.888c12.158,0 21.324,-2.485 27.5,-7.454c6.175,-4.969 9.89,-11.072 11.145,-18.309c1.254,-7.237 1.882,-19.25 1.882,-36.039l0,-117.38l42.841,0l0,111.446c0,25.473 -1.158,43.469 -3.474,53.986c-2.316,10.517 -6.585,19.394 -12.809,26.631c-6.224,7.237 -14.546,13.002 -24.967,17.296c-10.421,4.294 -24.026,6.441 -40.815,6.441c-20.263,0 -35.629,-2.34 -46.098,-7.02c-10.469,-4.68 -18.743,-10.759 -24.822,-18.237c-6.079,-7.478 -10.083,-15.318 -12.013,-23.519c-2.798,-12.158 -4.197,-30.105 -4.197,-53.841l0,-113.183Z" style="fill:#2a66d2;fill-rule:nonzero;"/><path d="M2146.96,1754.246l0,-210.444l42.841,0l0,174.695l106.525,0l0,35.749l-149.366,0Z" style="fill:#2a66d2;fill-rule:nonzero;"/><path d="M2518.205,1754.246l-46.605,0l-18.526,-48.197l-84.815,0l-17.513,48.197l-45.447,0l82.644,-212.181l45.302,0l84.959,212.181Zm-78.88,-83.946l-29.236,-78.736l-28.657,78.736l57.894,0Z" style="fill:#2a66d2;fill-rule:nonzero;"/><path d="M2541.073,1754.246l0,-212.181l90.17,0c22.675,0 39.151,1.906 49.427,5.717c10.276,3.811 18.502,10.59 24.677,20.335c6.175,9.745 9.263,20.89 9.263,33.434c0,15.921 -4.68,29.068 -14.039,39.44c-9.36,10.373 -23.351,16.91 -41.973,19.612c9.263,5.403 16.91,11.338 22.94,17.802c6.031,6.465 14.16,17.947 24.388,34.447l25.908,41.394l-51.236,0l-30.973,-46.17c-11,-16.5 -18.526,-26.897 -22.579,-31.19c-4.053,-4.294 -8.346,-7.237 -12.881,-8.829c-4.535,-1.592 -11.724,-2.388 -21.565,-2.388l-8.684,0l0,88.578l-42.841,0Zm42.841,-122.446l31.697,0c20.552,0 33.385,-0.868 38.499,-2.605c5.114,-1.737 9.118,-4.728 12.013,-8.974c2.895,-4.246 4.342,-9.552 4.342,-15.921c0,-7.14 -1.906,-12.906 -5.717,-17.296c-3.811,-4.39 -9.191,-7.164 -16.138,-8.322c-3.474,-0.482 -13.895,-0.724 -31.263,-0.724l-33.434,0l0,53.841Z" style="fill:#2a66d2;fill-rule:nonzero;"/><rect x="2753.688" y="1542.065" width="42.841" height="212.181" style="fill:#2a66d2;fill-rule:nonzero;"/><path d="M2885.107,1754.246l0,-176.287l-62.96,0l0,-35.894l168.616,0l0,35.894l-62.815,0l0,176.287l-42.841,0Z" style="fill:#2a66d2;fill-rule:nonzero;"/><path d="M3074.131,1754.246l0,-89.301l-77.723,-122.88l50.223,0l49.933,83.946l48.92,-83.946l49.355,0l-78.012,123.169l0,89.012l-42.697,0Z" style="fill:#2a66d2;fill-rule:nonzero;"/></g></g><g><g><path d="M1064.874,1038.776l-228.162,0l-90.698,-235.957l-415.227,0l-85.738,235.957l-222.494,0l404.598,-1038.776l221.785,0l415.936,1038.776Zm-386.175,-410.976l-143.133,-385.467l-140.299,385.467l283.431,0Z" style="fill:#2a66d2;fill-rule:nonzero;"/><path d="M1178.955,1038.776l0,-1038.776l209.739,0l0,461.285l423.73,-461.285l282.014,0l-391.135,404.598l412.393,634.178l-271.386,0l-285.557,-487.502l-170.059,173.602l0,313.9l-209.739,0Z" style="fill:#2a66d2;fill-rule:nonzero;"/><path d="M2226.943,1038.776l0,-1038.776l209.739,0l0,461.285l423.73,-461.285l282.014,0l-391.135,404.598l412.393,634.178l-271.386,0l-285.557,-487.502l-170.059,173.602l0,313.9l-209.739,0Z" style="fill:#2a66d2;fill-rule:nonzero;"/></g></g></svg>